{"glyphs":{"0":{"ha":966,"x_min":102,"x_max":864,"o":"m 237 512 q 283 248 237 338 q 483 102 359 102 q 682 248 608 102 q 728 512 728 340 q 682 776 728 684 q 483 922 609 922 q 283 776 357 922 q 237 512 237 684 m 167 195 q 102 512 102 315 q 167 829 102 709 q 483 1038 281 1038 q 799 829 686 1038 q 864 512 864 709 q 799 195 864 315 q 483 -14 686 -14 q 167 195 281 -14 z "},"1":{"ha":484,"x_min":14,"x_max":315,"o":"m 179 -27 l 179 918 l 14 772 l 14 911 l 179 1051 q 315 918 315 1051 l 315 34 l 186 -27 l 179 -27 z "},"2":{"ha":889,"x_min":102,"x_max":787,"o":"m 267 0 q 102 134 102 0 q 424 496 102 352 q 621 718 621 585 q 578 857 621 808 q 425 922 522 922 q 225 776 300 922 l 218 776 l 109 829 q 425 1038 222 1038 q 675 939 589 1038 q 758 711 758 846 q 498 397 758 521 q 223 159 223 267 q 267 115 223 115 l 578 115 q 679 195 659 115 l 686 195 l 787 146 q 578 0 747 0 l 267 0 z "},"3":{"ha":848,"x_min":88,"x_max":746,"o":"m 88 195 q 198 248 88 195 l 205 248 q 404 102 280 102 q 559 170 500 102 q 610 319 610 229 q 566 456 610 410 q 403 509 515 509 l 323 586 l 536 909 l 179 909 l 179 916 l 230 1024 l 545 1024 q 667 930 667 1024 q 606 793 667 879 l 475 616 q 654 546 576 614 q 746 320 746 466 q 655 85 746 182 q 404 -14 562 -14 q 88 195 202 -14 z "},"4":{"ha":805,"x_min":34,"x_max":751,"o":"m 498 -27 l 498 243 l 165 243 q 34 335 34 243 q 68 435 34 385 l 498 1051 q 634 918 634 1051 l 634 358 l 751 358 l 751 351 l 700 243 l 634 243 l 634 34 l 505 -27 l 498 -27 m 498 358 l 498 856 l 155 358 l 498 358 z "},"5":{"ha":861,"x_min":102,"x_max":760,"o":"m 102 195 l 212 248 l 218 248 q 418 102 293 102 q 573 170 513 102 q 624 319 624 229 q 564 471 624 420 q 417 522 505 522 q 289 479 347 522 l 147 548 l 225 878 q 434 1024 260 1024 l 703 1024 l 703 1017 l 652 909 l 444 909 q 344 829 366 909 l 281 598 q 418 642 342 642 q 656 560 561 642 q 760 320 760 471 q 669 85 760 182 q 418 -14 576 -14 q 102 195 216 -14 z "},"6":{"ha":927,"x_min":102,"x_max":825,"o":"m 799 829 l 689 776 l 682 776 q 483 922 607 922 q 283 776 357 922 q 237 512 237 684 q 482 654 325 653 q 734 554 640 654 q 825 320 825 457 q 734 85 825 182 q 483 -14 641 -14 q 167 195 280 -14 q 102 512 102 315 q 167 829 102 709 q 483 1038 280 1038 q 799 829 685 1038 m 483 537 q 332 471 397 537 q 276 319 276 414 q 330 175 276 234 q 483 102 396 102 q 644 174 583 102 q 690 319 690 229 q 644 465 690 414 q 483 537 579 537 z "},"7":{"ha":664,"x_min":7,"x_max":596,"o":"m 151 31 l 465 909 l 7 909 l 7 916 l 58 1024 l 465 1024 q 596 902 596 1024 q 551 750 596 873 l 279 -27 l 273 -27 l 151 31 z "},"8":{"ha":887,"x_min":102,"x_max":785,"o":"m 102 320 q 205 549 102 453 q 256 585 227 570 q 162 768 162 661 q 246 972 162 903 q 444 1038 326 1038 q 641 972 561 1038 q 725 768 725 904 q 631 585 725 661 q 682 549 661 570 q 785 320 785 453 q 694 85 785 182 q 444 -14 602 -14 q 193 85 285 -14 q 102 320 102 182 m 444 102 q 605 174 543 102 q 650 319 650 227 q 602 454 650 400 q 444 519 543 519 q 286 454 347 519 q 237 319 237 402 q 286 174 238 229 q 444 102 349 102 m 549 889 q 529 910 549 889 q 444 930 509 930 q 338 889 378 930 q 298 778 298 848 q 328 677 298 707 q 444 625 381 625 q 559 677 512 625 q 589 778 589 711 q 549 889 589 848 z "},"9":{"ha":927,"x_min":102,"x_max":825,"o":"m 128 195 l 238 248 l 245 248 q 444 102 320 102 q 644 248 570 102 q 690 512 690 340 q 445 370 602 371 q 193 470 288 370 q 102 704 102 567 q 193 939 102 842 q 444 1038 286 1038 q 760 829 647 1038 q 825 512 825 709 q 760 195 825 315 q 444 -14 647 -14 q 128 195 242 -14 m 444 487 q 595 553 530 487 q 651 705 651 610 q 597 849 651 790 q 444 922 531 922 q 283 850 344 922 q 237 705 237 795 q 283 559 237 610 q 444 487 348 487 z "}," ":{"ha":543,"x_min":0,"x_max":0,"o":""},"!":{"ha":407,"x_min":122,"x_max":285,"o":"m 146 11 q 134 23 146 11 q 122 70 122 35 q 146 128 122 104 q 203 153 170 153 q 261 128 237 153 q 285 70 285 104 q 261 11 285 35 q 203 -14 237 -14 q 146 11 170 -14 m 264 1051 l 271 1051 l 271 346 l 142 285 l 136 285 l 136 990 l 264 1051 z "},"\"":{"ha":507,"x_min":102,"x_max":405,"o":"m 398 1051 l 405 1051 l 405 723 l 299 673 l 292 673 l 292 1001 l 398 1051 m 208 1051 l 214 1051 l 214 723 l 109 673 l 102 673 l 102 1001 l 208 1051 z "},"#":{"ha":928,"x_min":102,"x_max":826,"o":"m 311 151 l 304 151 l 304 353 l 102 353 l 102 359 l 157 476 l 304 476 l 304 549 l 102 549 l 102 556 l 157 673 l 304 673 l 304 820 l 420 875 l 427 875 l 427 673 l 500 673 l 500 820 l 617 875 l 624 875 l 624 673 l 826 673 l 826 666 l 771 549 l 624 549 l 624 476 l 826 476 l 826 469 l 771 353 l 624 353 l 624 205 l 507 151 l 500 151 l 500 353 l 427 353 l 427 205 l 311 151 m 427 476 l 500 476 l 500 549 l 427 549 l 427 476 z "},"$":{"ha":861,"x_min":102,"x_max":760,"o":"m 102 195 l 212 248 l 218 248 q 391 103 283 117 l 391 522 q 250 589 311 545 q 157 768 157 655 q 244 968 157 889 q 391 1035 304 1023 l 391 1153 l 463 1187 l 470 1187 l 470 1036 q 674 883 599 1021 l 567 832 l 560 832 q 470 918 525 903 l 470 634 q 677 528 597 608 q 760 320 760 447 q 662 90 760 191 q 470 -10 583 5 l 470 -129 l 398 -163 l 391 -163 l 391 -13 q 102 195 208 0 m 391 656 l 391 916 q 333 881 357 906 q 292 778 292 839 q 328 692 292 724 q 391 656 353 671 m 470 503 l 470 109 q 573 180 526 126 q 623 324 623 235 q 579 438 623 392 q 470 503 540 480 z "},"%":{"ha":1392,"x_min":102,"x_max":1290,"o":"m 469 766 q 431 902 469 854 q 352 938 402 938 q 274 902 304 938 q 235 766 235 856 q 274 631 235 675 q 352 595 305 595 q 431 631 401 595 q 469 766 469 676 m 102 768 q 182 970 102 884 q 352 1038 245 1038 q 522 970 458 1038 q 602 766 602 884 q 522 563 602 648 q 352 495 458 495 q 182 563 245 495 q 102 768 102 648 m 1156 258 q 1118 393 1156 345 q 1040 429 1090 429 q 962 393 992 429 q 922 258 922 347 q 962 122 922 168 q 1040 86 993 86 q 1118 122 1088 86 q 1156 258 1156 168 m 789 260 q 869 461 789 376 q 1040 529 933 529 q 1210 461 1145 529 q 1290 258 1290 378 q 1210 54 1290 141 q 1040 -14 1146 -14 q 869 54 933 -14 q 789 260 789 140 m 503 -27 l 408 19 l 888 1051 l 895 1051 l 991 1005 l 510 -27 l 503 -27 z "},"&":{"ha":1059,"x_min":102,"x_max":958,"o":"m 540 -27 q 189 83 290 -27 q 102 317 102 178 q 202 543 102 454 q 257 583 233 571 q 163 771 163 662 q 247 972 163 904 q 444 1038 327 1038 q 680 883 596 1038 l 573 832 l 566 832 q 443 922 520 922 q 333 880 374 922 q 291 771 291 838 q 329 677 291 717 q 447 628 371 632 q 578 624 524 624 q 600 536 578 609 q 672 418 624 456 l 819 663 l 826 663 l 927 606 l 780 362 q 903 270 848 332 q 958 34 958 208 l 829 -27 l 822 -27 q 810 183 822 127 q 724 271 798 231 l 540 -27 m 467 516 q 301 468 351 516 q 236 316 236 404 q 286 167 236 231 q 477 103 336 103 l 616 326 q 467 516 522 366 z "},"'":{"ha":316,"x_min":102,"x_max":214,"o":"m 208 1051 l 214 1051 l 214 723 l 109 673 l 102 673 l 102 1001 l 208 1051 z "},"(":{"ha":531,"x_min":136,"x_max":497,"o":"m 446 -163 l 439 -163 q 201 60 292 -113 q 136 376 136 182 l 136 648 q 201 964 136 842 q 439 1187 292 1137 l 446 1187 l 497 1086 q 317 911 376 1029 q 271 648 271 821 l 271 376 q 317 113 271 203 q 497 -62 376 -5 l 446 -163 z "},")":{"ha":531,"x_min":34,"x_max":395,"o":"m 85 -163 l 34 -62 q 214 113 155 -5 q 260 376 260 203 l 260 648 q 214 911 260 821 q 34 1086 155 1029 l 85 1187 l 92 1187 q 330 964 239 1137 q 395 648 395 842 l 395 376 q 330 60 395 182 q 92 -163 239 -113 l 85 -163 z "},"*":{"ha":802,"x_min":102,"x_max":701,"o":"m 463 1051 l 463 835 l 591 922 l 697 848 l 701 843 l 511 741 l 701 640 l 697 634 l 591 560 l 463 648 l 463 486 l 346 431 l 339 431 l 339 648 l 211 560 l 105 634 l 102 640 l 291 741 l 102 843 l 105 848 l 211 922 l 339 835 l 339 996 l 456 1051 l 463 1051 z "},"+":{"ha":823,"x_min":102,"x_max":722,"o":"m 473 822 l 473 574 l 722 574 l 722 567 l 667 450 l 473 450 l 473 257 l 357 202 l 350 202 l 350 450 l 102 450 l 102 457 l 157 574 l 350 574 l 350 767 l 467 822 l 473 822 z "},",":{"ha":413,"x_min":102,"x_max":311,"o":"m 231 189 l 237 189 q 311 23 311 116 q 145 -194 311 -106 l 116 -160 q 193 -14 193 -82 q 102 127 193 68 l 231 189 z "},"-":{"ha":823,"x_min":102,"x_max":722,"o":"m 102 450 l 102 457 l 157 574 l 722 574 l 722 567 l 667 450 l 102 450 z "},".":{"ha":407,"x_min":122,"x_max":285,"o":"m 146 11 q 134 23 146 11 q 122 70 122 35 q 146 128 122 104 q 203 153 170 153 q 261 128 237 153 q 285 70 285 104 q 261 11 285 35 q 203 -14 237 -14 q 146 11 170 -14 z "},"/":{"ha":661,"x_min":7,"x_max":654,"o":"m 102 -95 l 7 -49 l 551 1119 l 557 1119 l 654 1073 l 109 -95 l 102 -95 z "},":":{"ha":407,"x_min":122,"x_max":285,"o":"m 146 452 q 134 465 146 452 q 122 511 122 477 q 146 570 122 545 q 203 594 170 594 q 261 570 237 594 q 285 511 285 545 q 261 452 285 477 q 203 428 237 428 q 146 452 170 428 m 146 11 q 134 23 146 11 q 122 70 122 35 q 146 128 122 104 q 203 153 170 153 q 261 128 237 153 q 285 70 285 104 q 261 11 285 35 q 203 -14 237 -14 q 146 11 170 -14 z "},";":{"ha":407,"x_min":96,"x_max":305,"o":"m 139 -194 q 110 -160 139 -194 q 186 -14 186 -82 q 96 127 186 68 q 224 189 96 127 l 231 189 q 305 23 305 116 q 139 -194 305 -106 m 146 452 q 134 465 146 452 q 122 511 122 477 q 146 570 122 545 q 203 594 170 594 q 261 570 237 594 q 285 511 285 545 q 261 452 285 477 q 203 428 237 428 q 146 452 170 428 z "},"<":{"ha":907,"x_min":102,"x_max":772,"o":"m 102 450 l 102 457 l 157 574 l 716 812 l 772 695 l 772 688 l 308 500 l 772 313 l 772 306 l 716 189 l 102 450 z "},"=":{"ha":823,"x_min":102,"x_max":722,"o":"m 102 574 l 102 581 l 157 697 l 722 697 l 722 690 l 667 574 l 102 574 m 102 327 l 102 334 l 157 450 l 722 450 l 722 444 l 667 327 l 102 327 z "},">":{"ha":907,"x_min":136,"x_max":806,"o":"m 806 551 l 806 544 l 750 427 l 191 189 l 136 306 l 136 313 l 600 500 l 136 688 l 136 695 l 191 812 l 806 551 z "},"?":{"ha":833,"x_min":81,"x_max":731,"o":"m 81 829 q 397 1038 195 1038 q 648 939 559 1038 q 731 711 731 847 q 497 402 731 510 q 447 308 447 380 l 316 245 l 309 245 q 428 490 309 428 q 597 711 597 577 q 551 857 597 805 q 397 922 494 922 q 198 776 273 922 l 191 776 l 81 829 m 331 11 q 319 23 331 11 q 307 70 307 35 q 331 128 307 104 q 389 153 355 153 q 446 128 422 153 q 470 70 470 104 q 446 11 470 35 q 389 -14 422 -14 q 331 11 355 -14 z "},"@":{"ha":947,"x_min":102,"x_max":825,"o":"m 696 -27 l 631 -27 q 433 34 498 -18 q 350 203 350 100 q 434 389 350 322 q 631 454 505 445 l 688 454 q 640 564 682 509 q 483 644 579 644 q 283 498 358 644 q 237 234 237 406 q 283 -30 237 60 q 483 -176 359 -176 l 483 -292 q 167 -83 281 -292 q 102 234 102 37 q 167 551 102 431 q 483 760 281 760 q 732 646 630 760 q 825 410 825 543 l 825 34 l 696 -27 m 690 349 q 520 311 566 348 q 475 214 475 274 q 524 117 475 160 q 690 80 566 80 l 690 349 z "},"A":{"ha":986,"x_min":122,"x_max":884,"o":"m 122 -27 l 122 512 q 187 829 122 709 q 503 1038 301 1038 q 819 829 706 1038 q 884 512 884 709 q 819 195 884 318 q 581 -27 728 23 l 574 -27 l 523 74 q 703 248 644 131 q 747 454 741 323 l 258 454 l 258 34 l 129 -27 l 122 -27 m 259 570 l 747 570 q 703 776 741 700 q 503 922 629 922 q 304 776 378 922 q 259 570 266 700 z "},"B":{"ha":947,"x_min":122,"x_max":846,"o":"m 292 0 q 122 145 122 0 l 122 512 q 187 829 122 709 q 503 1038 301 1038 q 694 975 617 1038 q 784 774 784 901 q 681 580 784 657 q 747 537 714 566 q 846 313 846 447 q 759 93 846 179 q 503 0 665 0 l 292 0 m 503 513 l 258 513 l 258 512 l 258 145 q 292 115 258 115 l 503 115 q 665 182 602 115 q 710 309 710 230 q 666 444 710 393 q 503 513 606 513 m 264 628 l 503 628 q 612 672 571 628 q 649 777 649 712 q 610 882 649 842 q 503 922 571 922 q 304 776 378 922 q 264 628 275 718 z "},"C":{"ha":926,"x_min":102,"x_max":845,"o":"m 845 321 q 799 195 832 256 q 483 -14 685 -14 q 167 195 281 -14 q 102 512 102 315 q 167 829 102 709 q 483 1038 281 1038 q 799 829 686 1038 l 689 776 l 682 776 q 483 922 609 922 q 283 776 357 922 q 237 512 237 684 q 283 248 237 338 q 483 102 359 102 q 682 248 608 102 l 838 321 l 845 321 z "},"D":{"ha":986,"x_min":122,"x_max":884,"o":"m 292 0 q 122 145 122 0 l 122 512 q 187 829 122 709 q 503 1038 301 1038 q 819 829 706 1038 q 884 512 884 709 q 818 213 884 342 q 503 0 708 0 l 292 0 m 503 115 q 701 266 630 115 q 749 512 749 366 q 703 776 749 684 q 503 922 629 922 q 304 776 378 922 q 258 512 258 685 l 258 145 q 292 115 258 115 l 503 115 z "},"E":{"ha":802,"x_min":122,"x_max":768,"o":"m 292 0 q 122 145 122 0 l 122 512 q 187 829 122 709 q 503 1038 301 1038 l 685 1038 l 685 1031 l 634 922 l 503 922 q 304 776 377 922 q 259 570 266 700 l 644 570 l 644 563 l 593 454 l 258 454 l 258 145 q 292 115 258 115 l 559 115 q 659 195 639 115 l 666 195 l 768 146 q 559 0 727 0 l 292 0 z "},"F":{"ha":766,"x_min":122,"x_max":685,"o":"m 122 -27 l 122 512 q 187 829 122 710 q 503 1038 301 1038 l 685 1038 l 685 1031 l 634 922 l 503 922 q 304 776 377 922 q 259 570 266 700 l 644 570 l 644 563 l 593 454 l 258 454 l 258 34 q 129 -27 258 34 l 122 -27 z "},"G":{"ha":966,"x_min":102,"x_max":864,"o":"m 864 570 l 864 512 q 799 195 864 315 q 483 -14 686 -14 q 167 195 281 -14 q 102 512 102 315 q 167 829 102 709 q 483 1038 281 1038 q 799 829 686 1038 l 689 776 l 682 776 q 483 922 609 922 q 283 776 358 922 q 237 512 237 684 q 283 248 237 338 q 483 102 359 102 q 682 248 608 102 q 727 454 720 324 l 471 454 l 471 461 l 522 570 l 864 570 z "},"H":{"ha":986,"x_min":136,"x_max":884,"o":"m 136 -27 l 136 990 l 264 1051 l 271 1051 l 271 570 l 747 570 q 703 776 741 701 q 523 950 644 893 l 574 1051 l 581 1051 q 819 829 728 1001 q 884 512 884 706 q 819 195 884 318 q 581 -27 728 23 l 574 -27 l 523 74 q 703 248 644 131 q 747 454 741 323 l 271 454 l 271 34 l 142 -27 l 136 -27 z "},"I":{"ha":407,"x_min":136,"x_max":271,"o":"m 136 -27 l 136 990 l 264 1051 l 271 1051 l 271 34 l 142 -27 l 136 -27 z "},"J":{"ha":887,"x_min":54,"x_max":751,"o":"m 54 195 l 164 248 l 171 248 q 370 102 244 102 q 570 248 498 102 q 616 512 616 342 l 616 879 q 582 909 616 909 l 221 909 l 221 916 l 272 1024 l 582 1024 q 751 879 751 1024 l 751 512 q 686 195 751 315 q 370 -14 572 -14 q 54 195 168 -14 z "},"K":{"ha":917,"x_min":136,"x_max":815,"o":"m 136 -27 l 136 990 l 264 1051 l 271 1051 l 271 541 l 640 1051 l 646 1051 l 766 995 l 468 593 q 748 470 654 593 q 815 271 815 382 q 737 71 815 155 q 581 -27 669 -5 l 574 -27 l 523 74 q 621 123 585 87 q 680 271 680 183 q 628 416 680 366 q 468 477 566 477 q 320 408 379 477 q 271 260 271 350 l 271 34 l 142 -27 l 136 -27 z "},"L":{"ha":751,"x_min":136,"x_max":748,"o":"m 305 0 q 136 145 136 0 l 136 990 l 264 1051 l 271 1051 l 271 145 q 305 115 271 115 l 539 115 q 640 195 619 115 l 646 195 l 748 146 q 539 0 707 0 l 305 0 z "},"M":{"ha":1592,"x_min":102,"x_max":1491,"o":"m 728 -27 l 728 512 q 682 776 728 684 q 483 922 608 922 q 283 776 357 922 q 237 512 237 684 q 283 248 237 338 q 463 74 344 130 l 412 -27 l 406 -27 q 167 195 258 23 q 102 512 102 318 q 167 829 102 709 q 483 1038 280 1038 q 796 833 682 1038 q 1109 1038 910 1038 q 1426 829 1312 1038 q 1491 512 1491 709 q 1426 195 1491 318 q 1187 -27 1334 23 l 1180 -27 l 1129 74 q 1309 248 1249 131 q 1355 512 1355 339 q 1309 776 1355 684 q 1109 922 1235 922 q 910 776 984 922 q 864 512 864 684 l 864 34 l 735 -27 l 728 -27 z "},"N":{"ha":986,"x_min":122,"x_max":884,"o":"m 122 -27 l 122 512 q 187 829 122 709 q 503 1038 301 1038 q 819 829 706 1038 q 884 512 884 709 q 819 195 884 318 q 581 -27 728 23 l 574 -27 l 523 74 q 703 248 644 131 q 749 512 749 338 q 703 776 749 684 q 503 922 629 922 q 304 776 377 922 q 258 512 258 684 l 258 34 l 129 -27 l 122 -27 z "},"O":{"ha":966,"x_min":102,"x_max":864,"o":"m 237 512 q 283 248 237 338 q 483 102 359 102 q 682 248 608 102 q 728 512 728 340 q 682 776 728 684 q 483 922 609 922 q 283 776 357 922 q 237 512 237 684 m 167 195 q 102 512 102 315 q 167 829 102 709 q 483 1038 281 1038 q 799 829 686 1038 q 864 512 864 709 q 799 195 864 315 q 483 -14 686 -14 q 167 195 281 -14 z "},"P":{"ha":932,"x_min":122,"x_max":850,"o":"m 122 -27 l 122 512 q 187 829 122 709 q 503 1038 301 1038 q 770 913 672 1038 q 850 682 850 810 q 768 464 850 565 q 469 339 667 339 l 258 339 l 258 34 l 129 -27 l 122 -27 m 258 454 l 469 454 q 652 517 597 454 q 715 682 715 589 q 650 859 715 791 q 503 922 589 922 q 304 776 378 922 q 258 512 258 685 l 258 454 z "},"Q":{"ha":966,"x_min":102,"x_max":864,"o":"m 669 -27 l 663 -27 l 630 20 q 483 -14 564 -14 q 167 195 281 -14 q 102 512 102 315 q 167 829 102 709 q 483 1038 281 1038 q 799 829 686 1038 q 864 512 864 709 q 799 195 864 315 q 736 104 770 143 l 789 29 l 669 -27 m 283 776 q 237 512 237 684 q 283 248 237 340 q 483 102 359 102 q 561 118 525 102 l 428 309 l 547 365 l 554 365 l 661 212 q 682 248 672 229 q 728 512 728 337 q 682 776 728 684 q 483 922 609 922 q 283 776 356 922 z "},"R":{"ha":975,"x_min":122,"x_max":873,"o":"m 258 454 l 469 454 q 652 517 597 454 q 715 682 715 589 q 650 859 715 791 q 503 922 589 922 q 304 776 378 922 q 258 512 258 685 l 258 454 m 122 -27 l 122 512 q 187 829 122 709 q 503 1038 301 1038 q 770 913 672 1038 q 850 682 850 810 q 768 464 850 565 q 637 368 715 399 l 873 29 l 754 -27 l 747 -27 l 492 339 l 258 339 l 258 34 l 129 -27 l 122 -27 z "},"S":{"ha":821,"x_min":81,"x_max":739,"o":"m 81 195 q 191 248 81 195 l 198 248 q 397 102 271 102 q 553 180 484 102 q 602 324 602 237 q 559 438 602 392 q 410 513 509 492 q 230 589 307 534 q 136 768 136 656 q 224 968 136 890 q 418 1038 300 1038 q 654 883 570 1038 l 547 832 l 540 832 q 418 922 494 922 q 313 881 353 922 q 272 778 272 840 q 308 692 272 724 q 448 634 353 653 q 657 528 575 610 q 739 320 739 446 q 642 90 739 191 q 397 -14 545 -14 q 81 195 195 -14 z "},"T":{"ha":723,"x_min":3,"x_max":720,"o":"m 294 -27 l 294 909 l 212 909 q 112 829 132 909 l 105 829 l 3 878 q 212 1024 43 1024 l 720 1024 l 720 1017 l 669 909 l 430 909 l 429 34 l 300 -27 l 294 -27 z "},"U":{"ha":1000,"x_min":102,"x_max":864,"o":"m 864 1051 l 864 512 q 799 195 864 315 q 483 -14 685 -14 q 167 195 280 -14 q 102 512 102 315 q 167 829 102 706 q 406 1051 258 1001 l 412 1051 l 463 950 q 283 776 342 893 q 237 512 237 686 q 283 248 237 340 q 483 102 357 102 q 682 248 608 102 q 728 512 728 340 l 728 990 l 857 1051 l 864 1051 z "},"V":{"ha":1000,"x_min":136,"x_max":898,"o":"m 136 990 l 264 1051 l 271 1051 l 271 512 q 317 248 271 324 q 517 102 406 102 q 716 248 642 102 q 762 512 762 340 q 716 776 762 686 q 536 950 656 894 q 587 1051 536 950 l 594 1051 q 833 829 741 1001 q 898 512 898 706 q 833 195 898 315 q 517 -14 720 -14 q 201 195 315 -14 q 136 512 136 315 l 136 990 z "},"W":{"ha":1592,"x_min":102,"x_max":1491,"o":"m 864 1051 l 864 512 q 910 248 864 340 q 1109 102 984 102 q 1309 248 1235 102 q 1355 512 1355 340 q 1309 776 1355 686 q 1129 950 1249 894 l 1180 1051 l 1187 1051 q 1426 829 1334 1001 q 1491 512 1491 706 q 1426 195 1491 315 q 1109 -14 1312 -14 q 796 191 910 -14 q 483 -14 682 -14 q 167 195 280 -14 q 102 512 102 315 q 167 829 102 706 q 406 1051 258 1001 l 412 1051 l 463 950 q 283 776 343 893 q 237 512 237 685 q 283 248 237 340 q 483 102 357 102 q 682 248 608 102 q 728 512 728 340 l 728 990 l 857 1051 l 864 1051 z "},"X":{"ha":867,"x_min":68,"x_max":799,"o":"m 186 -27 l 68 28 l 344 495 q 161 675 224 570 q 68 990 68 831 l 197 1051 l 203 1051 q 286 730 203 855 q 407 601 336 653 l 673 1051 l 680 1051 l 799 995 l 520 525 q 705 347 642 445 q 799 34 799 197 l 670 -27 l 663 -27 q 585 293 663 163 q 457 419 547 359 l 193 -27 l 186 -27 z "},"Y":{"ha":930,"x_min":81,"x_max":795,"o":"m 659 -27 l 659 359 q 446 260 574 260 q 162 399 271 260 q 81 647 81 502 q 163 910 81 803 q 317 1051 232 1000 l 324 1051 l 375 950 q 280 857 316 910 q 217 647 217 764 q 284 451 217 526 q 446 376 351 376 q 599 446 537 376 q 659 606 659 515 l 659 990 l 788 1051 l 795 1051 l 795 34 l 666 -27 l 659 -27 z "},"Z":{"ha":819,"x_min":81,"x_max":738,"o":"m 212 0 q 81 91 81 0 q 146 265 81 168 l 557 909 l 127 909 l 127 916 l 178 1024 l 557 1024 q 692 932 692 1024 q 623 759 692 863 l 212 115 l 529 115 q 629 195 609 115 l 636 195 l 738 146 q 529 0 697 0 l 212 0 z "},"[":{"ha":586,"x_min":136,"x_max":552,"o":"m 501 -163 l 305 -163 q 136 -18 136 -163 l 136 1042 q 305 1187 136 1187 l 552 1187 l 552 1180 l 501 1072 l 305 1072 q 271 1042 271 1072 l 271 -18 q 305 -47 271 -47 l 552 -47 l 552 -54 l 501 -163 z "},"\\":{"ha":661,"x_min":7,"x_max":654,"o":"m 551 -95 l 7 1073 l 102 1119 l 109 1119 l 654 -49 l 557 -95 l 551 -95 z "},"]":{"ha":586,"x_min":34,"x_max":450,"o":"m 34 -163 l 34 -156 l 85 -47 l 281 -47 q 315 -18 315 -47 l 315 1042 q 281 1072 315 1072 l 34 1072 l 34 1078 l 85 1187 l 281 1187 q 450 1042 450 1187 l 450 -18 q 281 -163 450 -163 l 34 -163 z "},"^":{"ha":896,"x_min":102,"x_max":794,"o":"m 102 738 l 358 996 l 475 1051 l 482 1051 l 794 738 l 677 682 l 670 682 l 447 901 l 226 682 l 219 682 l 102 738 z "},"_":{"ha":823,"x_min":102,"x_max":722,"o":"m 102 -278 l 102 -271 l 157 -155 l 722 -155 l 722 -161 l 667 -278 l 102 -278 z "},"`":{"ha":439,"x_min":102,"x_max":338,"o":"m 221 1051 l 228 1051 l 338 817 l 258 780 l 252 780 l 102 994 l 221 1051 z "},"a":{"ha":719,"x_min":68,"x_max":617,"o":"m 481 -27 l 481 68 q 336 -14 423 -13 q 138 63 209 -14 q 68 244 68 140 q 144 429 68 353 q 336 502 218 502 q 479 427 419 502 q 454 555 467 530 q 332 644 408 644 l 174 644 l 174 651 l 225 760 l 332 760 q 568 603 484 760 q 617 373 617 513 l 617 34 l 488 -27 l 481 -27 m 199 245 q 236 143 199 184 q 336 102 273 102 q 441 144 399 102 q 480 243 480 184 q 438 345 480 304 q 337 387 396 387 q 236 345 274 387 q 199 245 199 303 z "},"b":{"ha":795,"x_min":122,"x_max":694,"o":"m 258 373 q 286 191 258 245 q 408 102 332 102 q 530 191 484 102 q 558 373 558 248 q 530 555 558 498 q 408 644 485 644 q 285 553 330 644 q 258 373 258 498 m 258 689 q 408 760 325 760 q 644 603 559 760 q 694 373 694 513 q 645 143 694 232 q 408 -14 559 -14 q 171 143 258 -14 q 122 373 122 231 l 122 990 l 251 1051 l 258 1051 l 258 689 z "},"c":{"ha":745,"x_min":102,"x_max":663,"o":"m 663 256 q 625 143 651 191 q 387 -14 538 -14 q 151 143 238 -14 q 102 373 102 231 q 151 603 102 513 q 387 760 235 760 q 623 605 539 760 l 516 555 l 509 555 q 387 644 465 644 q 265 555 310 644 q 237 373 237 498 q 265 191 237 247 q 387 102 311 102 q 509 191 465 102 l 656 256 l 663 256 z "},"d":{"ha":795,"x_min":102,"x_max":673,"o":"m 102 373 q 151 603 102 514 q 387 760 235 760 q 538 688 475 760 l 538 990 l 667 1051 l 673 1051 l 673 373 q 625 143 673 232 q 387 -14 538 -14 q 151 143 238 -14 q 102 373 102 231 m 237 373 q 265 191 237 245 q 387 102 311 102 q 509 191 464 102 q 538 373 538 248 q 509 555 538 498 q 387 644 465 644 q 265 553 310 644 q 237 373 237 497 z "},"e":{"ha":765,"x_min":102,"x_max":663,"o":"m 663 256 q 625 143 651 191 q 387 -14 538 -14 q 151 143 238 -14 q 102 373 102 231 q 151 603 102 513 q 387 760 235 760 q 624 604 538 760 q 658 513 645 565 l 264 193 q 389 102 310 102 q 509 191 465 102 l 656 256 l 663 256 m 239 321 l 509 555 q 387 644 465 644 q 265 555 311 644 q 237 373 237 499 q 239 321 237 345 z "},"f":{"ha":567,"x_min":122,"x_max":499,"o":"m 122 -27 l 122 651 q 171 881 122 792 q 408 1038 256 1038 l 499 1038 l 499 1031 l 448 922 l 408 922 q 286 833 331 922 q 258 678 261 785 l 499 678 l 499 671 l 448 563 l 258 563 l 258 34 l 129 -27 l 122 -27 z "},"g":{"ha":789,"x_min":102,"x_max":673,"o":"m 264 554 q 237 373 237 499 q 265 191 237 247 q 387 102 310 102 q 509 191 465 102 q 538 373 538 248 q 509 555 538 498 q 387 644 465 644 q 264 554 309 644 m 102 373 q 151 603 102 514 q 387 760 235 760 q 624 603 539 760 q 673 373 673 513 l 673 95 q 625 -135 673 -44 q 388 -292 541 -292 l 224 -292 l 224 -285 l 276 -176 l 388 -176 q 510 -87 473 -176 q 535 54 535 -25 q 387 -14 469 -14 q 151 143 238 -14 q 102 373 102 231 z "},"h":{"ha":809,"x_min":136,"x_max":707,"o":"m 136 -27 l 136 990 l 264 1051 l 271 1051 l 271 689 q 421 760 334 760 q 658 603 573 760 q 707 373 707 513 q 659 143 707 243 q 483 -27 600 19 l 476 -27 l 425 74 q 543 191 507 103 q 572 373 572 262 q 543 555 572 498 q 421 644 498 644 q 299 555 344 644 q 271 373 271 498 l 271 34 l 142 -27 l 136 -27 z "},"i":{"ha":407,"x_min":122,"x_max":285,"o":"m 146 896 q 134 908 146 896 q 122 955 122 920 q 146 1013 122 989 q 203 1038 170 1038 q 261 1013 237 1038 q 285 955 285 989 q 261 896 285 920 q 203 871 237 871 q 146 896 170 871 m 136 -27 l 136 712 l 264 773 l 271 773 l 271 34 l 142 -27 l 136 -27 z "},"j":{"ha":407,"x_min":-14,"x_max":285,"o":"m -14 -292 l 41 -170 q 108 -94 81 -147 q 136 88 136 -37 l 136 712 l 264 773 l 271 773 l 271 88 q 222 -142 271 -53 q -14 -298 138 -298 l -14 -292 m 146 896 q 134 908 146 896 q 122 955 122 920 q 146 1013 122 989 q 203 1038 170 1038 q 261 1013 237 1038 q 285 955 285 989 q 261 896 285 920 q 203 871 237 871 q 146 896 170 871 z "},"k":{"ha":800,"x_min":136,"x_max":699,"o":"m 136 -27 l 136 990 l 264 1051 l 271 1051 l 271 486 l 532 773 l 538 773 l 658 717 l 456 510 q 614 447 553 497 q 699 252 699 378 q 650 90 699 155 q 474 -27 584 0 l 467 -27 l 416 74 q 534 138 507 101 q 563 252 563 176 q 520 367 563 330 q 417 403 478 403 q 313 366 356 403 q 271 252 271 330 l 271 34 l 142 -27 l 136 -27 z "},"l":{"ha":407,"x_min":136,"x_max":271,"o":"m 136 -27 l 136 990 l 264 1051 l 271 1051 l 271 34 l 142 -27 l 136 -27 z "},"m":{"ha":1211,"x_min":102,"x_max":1109,"o":"m 538 -27 l 538 373 q 510 555 538 497 q 388 644 467 644 q 266 555 311 644 q 237 373 237 497 q 266 191 237 262 q 384 74 302 103 l 333 -27 l 326 -27 q 151 143 210 19 q 102 373 102 245 q 151 603 102 513 q 388 760 236 760 q 606 635 523 760 q 823 760 688 760 q 1061 603 975 760 q 1109 373 1109 513 q 1061 143 1109 243 q 885 -27 1002 19 l 878 -27 l 827 74 q 945 191 909 103 q 974 373 974 262 q 945 555 974 497 q 823 644 901 644 q 701 555 746 644 q 673 373 673 498 l 673 34 l 545 -27 l 538 -27 z "},"n":{"ha":775,"x_min":102,"x_max":673,"o":"m 102 -27 l 102 373 q 151 603 102 514 q 387 760 235 760 q 624 603 539 760 q 673 373 673 513 q 625 143 673 243 q 449 -27 566 19 l 442 -27 l 391 74 q 509 191 473 103 q 538 373 538 262 q 509 555 538 498 q 387 644 465 644 q 265 555 310 644 q 237 373 237 498 l 237 34 l 109 -27 l 102 -27 z "},"o":{"ha":775,"x_min":102,"x_max":673,"o":"m 264 554 q 237 373 237 499 q 265 191 237 247 q 387 102 310 102 q 509 191 465 102 q 538 373 538 248 q 509 555 538 498 q 387 644 465 644 q 264 554 309 644 m 102 373 q 151 603 102 514 q 387 760 235 760 q 624 603 539 760 q 673 373 673 513 q 625 143 673 231 q 387 -14 538 -14 q 151 143 238 -14 q 102 373 102 231 z "},"p":{"ha":789,"x_min":115,"x_max":687,"o":"m 279 554 q 252 373 252 499 q 279 191 252 247 q 401 102 324 102 q 524 191 479 102 q 552 373 552 248 q 524 555 552 498 q 401 644 479 644 q 279 554 323 644 m 115 -305 l 115 373 q 164 603 115 514 q 401 760 250 760 q 638 603 551 760 q 687 373 687 515 q 639 143 687 232 q 401 -14 553 -14 q 251 58 313 -14 l 251 -244 l 122 -305 l 115 -305 z "},"q":{"ha":789,"x_min":102,"x_max":673,"o":"m 264 554 q 237 373 237 499 q 265 191 237 247 q 387 102 310 102 q 509 191 465 102 q 538 373 538 248 q 509 555 538 498 q 387 644 465 644 q 264 554 309 644 m 102 373 q 151 603 102 514 q 388 760 237 760 q 625 603 537 760 q 673 373 673 515 l 673 -244 l 545 -305 l 538 -305 l 538 57 q 388 -14 470 -14 q 151 143 235 -14 q 102 373 102 234 z "},"r":{"ha":492,"x_min":102,"x_max":479,"o":"m 102 -27 l 102 373 q 151 603 102 514 q 387 760 235 760 l 479 760 l 479 753 l 427 644 l 387 644 q 265 555 310 644 q 237 373 237 498 l 237 34 l 109 -27 l 102 -27 z "},"s":{"ha":680,"x_min":81,"x_max":599,"o":"m 81 141 q 189 191 81 141 l 195 191 q 317 102 240 102 q 433 151 392 102 q 466 238 466 191 q 431 317 466 288 q 325 357 394 347 q 184 409 237 372 q 111 559 111 461 q 197 715 111 654 q 338 760 260 760 q 532 631 471 760 l 425 581 l 418 581 q 338 644 387 644 q 272 624 298 644 q 241 557 241 600 q 275 497 241 515 q 380 464 309 478 q 524 404 469 446 q 599 231 599 345 q 521 62 599 142 q 317 -14 447 -14 q 81 141 165 -14 z "},"t":{"ha":511,"x_min":14,"x_max":498,"o":"m 188 -27 l 188 631 l 14 631 l 14 637 l 64 746 l 188 746 l 188 990 l 317 1051 l 323 1051 l 323 746 l 498 746 l 498 739 l 447 631 l 323 631 l 323 34 l 195 -27 l 188 -27 z "},"u":{"ha":795,"x_min":102,"x_max":673,"o":"m 673 773 l 673 373 q 625 143 673 232 q 388 -14 540 -14 q 151 143 236 -14 q 102 373 102 233 q 151 603 102 503 q 326 773 210 727 l 333 773 l 384 672 q 266 555 302 643 q 237 373 237 484 q 266 191 237 248 q 388 102 311 102 q 510 191 465 102 q 538 373 538 248 l 538 712 l 667 773 l 673 773 z "},"v":{"ha":795,"x_min":122,"x_max":694,"o":"m 122 712 l 251 773 l 258 773 l 258 373 q 286 191 258 247 q 408 102 330 102 q 530 191 484 102 q 558 373 558 248 q 530 555 558 484 q 412 672 494 643 l 463 773 l 469 773 q 645 603 586 727 q 694 373 694 500 q 644 143 694 233 q 408 -14 559 -14 q 171 143 256 -14 q 122 373 122 232 l 122 712 z "},"w":{"ha":1211,"x_min":102,"x_max":1109,"o":"m 673 773 l 673 373 q 701 191 673 249 q 823 102 745 102 q 945 191 901 102 q 974 373 974 249 q 945 555 974 484 q 827 672 909 643 l 878 773 l 885 773 q 1061 603 1002 727 q 1109 373 1109 500 q 1061 143 1109 233 q 823 -14 975 -14 q 606 111 688 -14 q 388 -14 523 -14 q 151 143 235 -14 q 102 373 102 233 q 151 603 102 500 q 326 773 210 727 l 333 773 l 384 672 q 266 555 302 643 q 237 373 237 484 q 266 191 237 249 q 388 102 311 102 q 510 191 465 102 q 538 373 538 248 l 538 712 l 667 773 l 673 773 z "},"x":{"ha":715,"x_min":68,"x_max":648,"o":"m 193 -27 l 186 -27 l 68 28 l 266 353 q 121 488 173 405 q 71 712 71 565 l 200 773 l 207 773 q 235 536 207 580 q 322 446 275 475 l 522 773 l 529 773 l 648 717 l 448 390 q 598 258 549 336 q 648 34 648 180 l 519 -27 l 512 -27 q 484 210 512 144 q 392 299 459 267 l 193 -27 z "},"y":{"ha":809,"x_min":102,"x_max":673,"o":"m 673 773 l 673 95 q 625 -135 673 -44 q 388 -292 541 -292 l 224 -292 l 224 -285 l 276 -176 l 388 -176 q 510 -87 473 -176 q 535 54 535 -25 q 387 -14 469 -14 q 151 143 235 -14 q 102 373 102 233 q 151 603 102 500 q 326 773 210 727 l 333 773 l 384 672 q 266 555 302 643 q 237 373 237 484 q 266 191 237 248 q 388 102 311 102 q 510 191 465 102 q 538 373 538 248 l 538 712 l 667 773 l 673 773 z "},"z":{"ha":714,"x_min":68,"x_max":646,"o":"m 199 0 q 68 91 68 0 q 153 258 68 158 l 466 631 l 113 631 l 113 637 l 164 746 l 466 746 q 597 655 597 746 q 511 491 597 593 l 199 115 l 437 115 q 538 195 517 115 l 545 195 l 646 146 q 437 0 606 0 l 199 0 z "},"{":{"ha":611,"x_min":34,"x_max":577,"o":"m 526 -163 q 275 -64 371 -163 q 183 176 183 29 l 183 450 l 34 450 l 34 457 l 89 574 l 183 574 l 183 848 q 275 1088 183 995 q 526 1187 371 1187 l 577 1187 l 577 1180 l 526 1072 q 369 1004 427 1072 q 319 848 319 946 l 319 176 q 368 20 319 76 q 526 -47 426 -47 l 577 -47 l 577 -54 l 526 -163 z "},"|":{"ha":452,"x_min":170,"x_max":282,"o":"m 170 -163 l 170 1137 l 275 1187 l 282 1187 l 282 -113 l 176 -163 l 170 -163 z "},"}":{"ha":611,"x_min":34,"x_max":577,"o":"m 34 -163 l 34 -156 l 85 -47 q 242 20 184 -47 q 292 176 292 78 l 292 848 q 243 1004 292 948 q 85 1072 185 1072 l 34 1072 l 34 1078 l 85 1187 q 336 1088 240 1187 q 428 848 428 995 l 428 574 l 577 574 l 577 567 l 522 450 l 428 450 l 428 176 q 336 -64 428 29 q 85 -163 240 -163 l 34 -163 z "},"~":{"ha":772,"x_min":102,"x_max":670,"o":"m 102 395 q 262 640 102 640 q 414 572 353 640 q 500 515 463 515 q 549 585 549 515 l 663 640 l 670 640 q 509 395 670 395 q 358 464 418 395 q 271 520 309 520 q 222 450 222 520 l 109 395 l 102 395 z "}," ":{"ha":543,"x_min":0,"x_max":0,"o":""},"¡":{"ha":407,"x_min":122,"x_max":285,"o":"m 261 1013 q 273 1001 261 1013 q 285 955 285 989 q 261 896 285 920 q 203 871 237 871 q 146 896 170 871 q 122 955 122 920 q 146 1013 122 989 q 203 1038 170 1038 q 261 1013 237 1038 m 142 -27 l 136 -27 l 136 678 l 264 739 l 271 739 l 271 34 l 142 -27 z "},"¢":{"ha":745,"x_min":102,"x_max":663,"o":"m 344 -163 l 344 -10 q 151 143 225 10 q 102 373 102 230 q 151 603 102 513 q 344 756 223 736 l 344 875 l 416 909 l 422 909 l 422 758 q 623 605 549 741 l 516 555 l 509 555 q 422 639 475 623 l 422 107 q 509 191 475 123 l 656 256 l 663 256 q 625 143 651 191 q 422 -12 549 5 l 422 -129 l 351 -163 l 344 -163 m 344 110 l 344 636 q 265 555 296 617 q 237 373 237 499 q 265 191 237 247 q 344 110 297 129 z "},"£":{"ha":867,"x_min":102,"x_max":766,"o":"m 102 0 l 102 7 l 153 115 l 203 115 l 203 406 l 102 406 l 102 412 l 153 521 l 203 521 l 203 694 q 296 960 203 871 q 485 1038 375 1038 q 721 883 637 1038 l 614 833 l 607 833 q 485 922 562 922 q 376 873 409 922 q 339 694 339 816 l 339 521 l 616 521 l 616 514 l 566 406 l 339 406 l 339 115 l 766 115 l 766 109 l 715 0 l 102 0 z "},"¤":{"ha":946,"x_min":102,"x_max":844,"o":"m 815 506 q 756 305 815 391 l 844 217 l 840 212 l 718 169 l 668 218 q 473 167 588 167 q 271 223 353 167 l 228 180 l 106 223 l 102 228 l 185 311 q 130 507 130 395 q 189 708 130 623 l 102 796 l 106 801 l 227 844 l 277 795 q 473 846 357 846 q 668 795 588 846 l 718 844 l 840 801 l 844 796 l 756 708 q 815 506 815 623 m 473 289 q 631 359 566 289 q 680 507 680 412 q 631 654 680 593 q 472 724 574 724 q 315 654 378 724 q 266 507 266 600 q 315 359 266 414 q 473 289 377 289 z "},"¥":{"ha":867,"x_min":68,"x_max":799,"o":"m 350 -27 l 350 292 l 123 292 l 123 298 l 178 415 l 328 415 l 283 515 l 123 515 l 123 522 l 178 639 l 228 639 l 68 995 l 186 1051 l 193 1051 l 375 639 l 530 639 l 721 1051 l 728 1051 l 799 1017 l 618 639 l 743 639 l 743 632 l 688 515 l 559 515 l 511 415 l 743 415 l 743 408 l 688 292 l 486 292 l 486 34 l 357 -27 l 350 -27 m 472 515 l 429 515 l 450 468 l 472 515 z "},"¦":{"ha":452,"x_min":170,"x_max":282,"o":"m 170 -163 l 170 398 l 275 448 l 282 448 l 282 -113 l 176 -163 l 170 -163 m 275 1187 l 282 1187 l 282 626 l 176 576 l 170 576 l 170 1137 l 275 1187 z "},"§":{"ha":766,"x_min":102,"x_max":665,"o":"m 169 115 l 276 165 l 283 165 q 363 102 313 102 q 429 122 403 102 q 460 189 460 146 q 426 249 460 231 q 320 282 391 268 q 177 342 232 300 q 102 515 102 401 q 180 684 102 604 l 268 595 q 235 508 235 555 q 270 429 235 458 q 376 389 307 399 q 516 337 464 374 q 589 186 589 285 q 503 31 589 92 q 363 -14 441 -14 q 169 115 229 -14 m 597 909 l 490 859 l 484 859 q 404 922 453 922 q 338 902 363 922 q 307 835 307 878 q 340 775 307 793 q 446 742 375 756 q 589 682 534 724 q 665 509 665 623 q 587 340 665 420 l 498 429 q 532 516 532 469 q 496 595 532 566 q 391 635 460 625 q 250 687 302 650 q 177 838 177 739 q 263 994 177 932 q 404 1038 326 1038 q 597 909 537 1038 z "},"¨":{"ha":570,"x_min":102,"x_max":468,"o":"m 329 896 q 317 908 329 896 q 305 955 305 920 q 329 1013 305 989 q 387 1038 353 1038 q 444 1013 420 1038 q 468 955 468 989 q 444 896 468 920 q 387 871 420 871 q 329 896 353 871 m 125 896 q 114 908 125 896 q 102 955 102 920 q 125 1013 102 989 q 183 1038 149 1038 q 241 1013 217 1038 q 264 955 264 989 q 241 896 264 920 q 183 871 217 871 q 125 896 149 871 z "},"©":{"ha":950,"x_min":102,"x_max":848,"o":"m 677 429 q 651 343 670 382 q 478 232 596 232 q 305 346 367 232 q 271 512 271 410 q 305 678 271 615 q 478 791 366 791 q 659 663 597 791 q 585 627 659 663 l 568 627 q 481 700 536 700 q 393 636 426 700 q 372 512 372 594 q 393 388 372 429 q 479 324 426 324 q 563 388 530 324 l 650 429 l 677 429 m 475 903 q 618 873 550 903 q 739 787 683 846 q 821 661 793 731 q 848 511 848 593 q 821 363 848 433 q 739 237 795 296 q 618 151 686 181 q 475 122 551 122 q 332 151 400 122 q 211 237 267 179 q 129 363 156 294 q 102 511 102 431 q 129 661 102 592 q 211 787 156 730 q 332 874 266 845 q 475 903 399 903 m 475 848 q 353 824 409 848 q 248 749 296 800 q 176 640 201 700 q 152 515 152 581 l 152 511 q 176 384 152 444 q 248 275 199 328 q 352 201 296 225 q 475 176 410 176 q 599 201 541 176 q 703 275 655 225 q 774 383 750 324 q 798 511 798 442 q 774 641 798 581 q 703 749 751 699 q 599 824 656 799 q 475 848 541 848 z "},"ª":{"ha":648,"x_min":102,"x_max":546,"o":"m 381 617 l 381 644 q 321 624 355 624 q 213 666 252 624 q 174 766 174 709 q 216 868 174 826 q 321 909 257 909 q 374 893 350 909 q 368 916 371 910 q 319 953 351 953 l 227 953 l 227 973 l 258 1038 l 319 1038 q 450 952 403 1038 q 476 831 476 904 l 476 652 l 401 617 l 381 617 m 267 767 q 281 726 267 742 q 322 709 296 709 q 364 726 347 709 q 380 766 380 741 q 363 807 380 789 q 322 824 346 824 q 282 807 296 824 q 267 767 267 791 m 102 450 l 102 457 l 157 574 l 546 574 l 546 567 l 491 450 l 102 450 z "},"«":{"ha":819,"x_min":102,"x_max":684,"o":"m 559 206 l 363 537 l 559 871 l 566 871 l 684 815 l 519 539 l 684 262 l 566 206 l 559 206 m 298 206 l 102 537 l 298 871 l 304 871 l 422 815 l 258 539 l 422 262 l 304 206 l 298 206 z "},"¬":{"ha":823,"x_min":102,"x_max":722,"o":"m 435 273 l 532 450 l 102 450 l 102 457 l 157 574 l 722 574 l 722 567 l 581 273 l 435 273 z "},"­":{"ha":823,"x_min":102,"x_max":722,"o":"m 102 450 l 102 457 l 157 574 l 722 574 l 722 567 l 667 450 l 102 450 z "},"®":{"ha":950,"x_min":102,"x_max":848,"o":"m 475 903 q 618 873 550 903 q 739 787 683 846 q 821 661 793 731 q 848 511 848 593 q 821 363 848 433 q 739 237 795 296 q 618 151 686 181 q 475 122 551 122 q 332 151 400 122 q 211 237 267 179 q 129 363 156 294 q 102 511 102 431 q 129 661 102 593 q 211 787 156 730 q 332 873 265 844 q 475 903 398 903 m 475 848 q 353 824 409 848 q 248 749 296 800 q 176 640 201 700 q 152 515 152 581 l 152 511 q 176 384 152 444 q 248 275 199 329 q 281 245 264 258 l 281 507 q 315 674 281 610 q 488 787 377 787 q 635 718 581 787 q 679 593 679 662 q 634 473 679 527 q 581 429 612 446 l 694 266 l 703 275 q 774 383 750 324 q 798 511 798 442 q 774 641 798 581 q 703 749 751 699 q 599 824 656 799 q 475 848 541 848 m 382 507 l 382 496 l 471 496 q 550 522 527 496 q 577 593 577 552 q 549 669 577 641 q 488 696 524 696 q 406 631 439 696 q 382 507 382 585 m 310 223 q 352 201 330 210 q 475 176 410 176 q 599 201 541 176 q 673 248 638 218 l 618 221 l 602 221 l 473 404 l 382 404 l 382 258 l 310 223 z "},"¯":{"ha":823,"x_min":102,"x_max":722,"o":"m 102 901 l 102 907 l 157 1024 l 722 1024 l 722 1017 l 667 901 l 102 901 z "},"°":{"ha":704,"x_min":102,"x_max":602,"o":"m 469 766 q 431 902 469 854 q 352 938 402 938 q 274 902 304 938 q 235 766 235 856 q 274 631 235 675 q 352 595 305 595 q 431 631 401 595 q 469 766 469 676 m 102 768 q 182 970 102 884 q 352 1038 245 1038 q 522 970 458 1038 q 602 766 602 884 q 522 563 602 648 q 352 495 458 495 q 182 563 245 495 q 102 768 102 648 z "},"±":{"ha":823,"x_min":102,"x_max":722,"o":"m 102 165 l 102 172 l 157 288 l 722 288 l 722 281 l 667 165 l 102 165 m 473 938 l 473 690 l 722 690 l 722 683 l 667 566 l 473 566 l 473 373 l 357 318 l 350 318 l 350 566 l 102 566 l 102 573 l 157 690 l 350 690 l 350 883 l 467 938 l 473 938 z "},"²":{"ha":583,"x_min":102,"x_max":481,"o":"m 201 495 q 127 517 152 495 q 102 579 102 538 q 273 776 102 702 q 361 861 361 814 q 344 920 361 898 q 280 946 321 946 q 195 882 229 946 l 178 882 l 103 918 q 280 1038 170 1038 q 418 983 370 1038 q 464 857 464 931 q 324 695 464 761 q 225 636 252 661 q 197 593 197 610 q 201 587 197 587 l 357 587 q 394 627 385 587 l 414 627 l 481 595 q 357 495 456 495 l 201 495 z "},"³":{"ha":573,"x_min":102,"x_max":471,"o":"m 102 610 l 176 646 l 194 646 q 283 573 225 573 q 348 602 323 573 q 370 665 370 627 q 351 711 370 692 q 275 732 332 732 l 220 785 l 317 932 l 153 932 l 153 957 l 185 1024 l 353 1024 q 431 960 431 1024 q 397 882 431 928 l 349 817 q 418 781 387 808 q 471 665 471 734 q 421 536 471 586 q 281 483 368 483 q 102 610 165 483 z "},"´":{"ha":439,"x_min":102,"x_max":338,"o":"m 212 1051 l 218 1051 l 338 994 l 188 780 l 181 780 l 102 817 l 212 1051 z "},"µ":{"ha":816,"x_min":122,"x_max":694,"o":"m 122 -305 l 122 373 q 171 603 122 500 q 347 773 230 727 l 353 773 l 404 672 q 286 555 322 643 q 258 373 258 484 q 286 191 258 248 q 408 102 331 102 q 530 191 486 102 q 558 373 558 248 l 558 712 l 687 773 l 694 773 l 694 373 q 646 143 694 231 q 408 -14 560 -14 q 258 37 322 -14 l 258 -244 l 129 -305 l 122 -305 z "},"¶":{"ha":800,"x_min":102,"x_max":665,"o":"m 529 -27 l 529 410 q 383 376 461 376 q 198 454 276 376 q 102 709 102 549 q 199 963 102 867 q 383 1038 275 1038 q 569 966 496 1038 q 665 709 665 869 l 665 34 l 620 13 l 620 771 l 576 771 l 576 -8 l 536 -27 l 529 -27 z "},"·":{"ha":407,"x_min":122,"x_max":285,"o":"m 146 452 q 134 465 146 452 q 122 511 122 477 q 146 570 122 545 q 203 594 170 594 q 261 570 237 594 q 285 511 285 545 q 261 452 285 477 q 203 428 237 428 q 146 452 170 428 z "},"¸":{"ha":413,"x_min":102,"x_max":311,"o":"m 145 189 q 311 -28 311 101 q 237 -194 311 -121 l 231 -194 l 102 -133 q 193 8 193 -74 q 116 155 193 77 l 145 189 z "},"¹":{"ha":456,"x_min":102,"x_max":286,"o":"m 184 481 l 184 933 l 102 860 l 102 975 l 195 1051 q 264 1029 241 1051 q 286 971 286 1008 l 286 518 l 209 481 l 184 481 z "},"º":{"ha":648,"x_min":102,"x_max":546,"o":"m 263 831 q 275 746 263 771 q 324 709 294 709 q 373 746 354 709 q 386 831 386 772 q 373 916 386 889 q 324 953 355 953 q 275 916 293 953 q 263 831 263 891 m 168 831 q 194 952 168 904 q 324 1038 241 1038 q 454 952 408 1038 q 481 831 481 903 q 454 709 481 758 q 324 624 408 624 q 195 708 242 624 q 168 831 168 755 m 102 450 l 102 457 l 157 574 l 546 574 l 546 567 l 491 450 l 102 450 z "},"»":{"ha":819,"x_min":136,"x_max":718,"o":"m 260 206 l 254 206 l 136 262 l 300 539 l 136 815 l 254 871 l 260 871 l 456 537 l 260 206 m 522 206 l 515 206 l 397 262 l 561 539 l 397 815 l 515 871 l 522 871 l 718 537 l 522 206 z "},"¼":{"ha":997,"x_min":102,"x_max":868,"o":"m 184 481 l 184 933 l 102 860 l 102 975 l 195 1051 q 264 1029 241 1051 q 286 971 286 1008 l 286 518 l 209 481 l 184 481 m 708 -27 l 708 108 l 558 108 q 476 171 476 108 q 496 231 476 202 l 715 543 q 787 520 764 543 q 810 463 810 498 l 810 199 l 868 199 l 868 175 l 836 108 l 810 108 l 810 9 l 732 -27 l 708 -27 m 708 199 l 708 377 l 586 199 l 708 199 m 239 -27 l 143 19 l 624 1051 l 631 1051 l 726 1005 l 245 -27 l 239 -27 z "},"½":{"ha":1053,"x_min":102,"x_max":918,"o":"m 637 0 q 563 22 588 0 q 538 84 538 43 q 709 281 538 207 q 797 366 797 319 q 780 425 797 403 q 716 451 758 451 q 631 387 665 451 l 614 387 l 539 422 q 716 543 606 543 q 854 488 806 543 q 900 362 900 436 q 760 200 900 266 q 661 141 688 166 q 633 98 633 115 q 637 92 633 92 l 793 92 q 830 132 821 92 l 850 132 l 918 100 q 793 0 892 0 l 637 0 m 184 481 l 184 933 l 102 860 l 102 975 l 195 1051 q 264 1029 241 1051 q 286 971 286 1008 l 286 518 l 209 481 l 184 481 m 239 -27 l 143 19 l 624 1051 l 631 1051 l 726 1005 l 245 -27 l 239 -27 z "},"¾":{"ha":1130,"x_min":102,"x_max":1001,"o":"m 841 -27 l 841 108 l 691 108 q 609 171 609 108 q 629 231 609 202 l 848 543 q 920 520 897 543 q 943 463 943 498 l 943 199 l 1001 199 l 1001 175 l 969 108 l 943 108 l 943 9 l 865 -27 l 841 -27 m 841 199 l 841 377 l 719 199 l 841 199 m 102 610 l 176 646 l 194 646 q 283 573 225 573 q 348 602 323 573 q 370 665 370 627 q 351 711 370 692 q 275 732 332 732 l 220 785 l 317 932 l 153 932 l 153 957 l 185 1024 l 353 1024 q 431 960 431 1024 q 397 882 431 928 l 349 817 q 418 781 387 808 q 471 665 471 734 q 421 536 471 586 q 281 483 368 483 q 102 610 165 483 m 372 -27 l 276 19 l 757 1051 l 764 1051 l 859 1005 l 378 -27 l 372 -27 z "},"¿":{"ha":833,"x_min":102,"x_max":751,"o":"m 751 195 q 435 -14 637 -14 q 184 85 273 -14 q 102 313 102 177 q 336 622 102 514 q 386 716 386 644 l 517 779 l 524 779 q 405 534 524 596 q 236 313 236 447 q 281 167 236 219 q 435 102 338 102 q 635 248 559 102 l 642 248 l 751 195 m 502 1013 q 514 1001 502 1013 q 526 955 526 989 q 502 896 526 920 q 444 871 478 871 q 387 896 410 871 q 363 955 363 920 q 387 1013 363 989 q 444 1038 410 1038 q 502 1013 478 1038 z "},"À":{"ha":986,"x_min":122,"x_max":884,"o":"m 122 -27 l 122 512 q 187 829 122 709 q 503 1038 301 1038 q 819 829 706 1038 q 884 512 884 709 q 819 195 884 318 q 581 -27 728 23 l 574 -27 l 523 74 q 703 248 644 131 q 747 454 741 323 l 258 454 l 258 34 l 129 -27 l 122 -27 m 259 570 l 747 570 q 703 776 741 700 q 503 922 629 922 q 304 776 378 922 q 259 570 266 700 m 425 1333 l 431 1333 l 541 1099 l 462 1062 l 455 1062 l 305 1276 l 425 1333 z "},"Á":{"ha":956,"x_min":122,"x_max":884,"o":"m 122 -27 l 122 512 q 187 829 122 709 q 503 1038 301 1038 q 819 829 706 1038 q 884 512 884 709 q 819 195 884 318 q 581 -27 728 23 l 574 -27 l 523 74 q 703 248 644 131 q 747 454 741 323 l 258 454 l 258 34 l 129 -27 l 122 -27 m 259 570 l 747 570 q 703 776 741 700 q 503 922 629 922 q 304 776 378 922 q 259 570 266 700 m 574 1333 l 581 1333 l 701 1276 l 551 1062 l 544 1062 l 465 1099 l 574 1333 z "},"Â":{"ha":986,"x_min":122,"x_max":884,"o":"m 122 -27 l 122 512 q 187 829 122 709 q 503 1038 301 1038 q 819 829 706 1038 q 884 512 884 709 q 819 195 884 318 q 581 -27 728 23 l 574 -27 l 523 74 q 703 248 644 131 q 747 454 741 323 l 258 454 l 258 34 l 129 -27 l 122 -27 m 259 570 l 747 570 q 703 776 741 700 q 503 922 629 922 q 304 776 378 922 q 259 570 266 700 m 315 1099 l 418 1276 l 538 1333 l 545 1333 l 689 1099 l 610 1062 l 604 1062 l 502 1203 l 401 1062 l 395 1062 l 315 1099 z "},"Ã":{"ha":986,"x_min":122,"x_max":884,"o":"m 122 -27 l 122 512 q 187 829 122 709 q 503 1038 301 1038 q 819 829 706 1038 q 884 512 884 709 q 819 195 884 318 q 581 -27 728 23 l 574 -27 l 523 74 q 703 248 644 131 q 747 454 741 323 l 258 454 l 258 34 l 129 -27 l 122 -27 m 259 570 l 747 570 q 703 776 741 700 q 503 922 629 922 q 304 776 378 922 q 259 570 266 700 m 340 1111 q 435 1305 340 1305 q 528 1257 479 1305 q 579 1224 563 1224 q 602 1273 602 1224 l 677 1305 l 681 1305 q 585 1111 681 1111 q 492 1158 542 1111 q 441 1192 458 1192 q 418 1143 418 1192 l 344 1111 l 340 1111 z "},"Ä":{"ha":986,"x_min":122,"x_max":884,"o":"m 122 -27 l 122 512 q 187 829 122 709 q 503 1038 301 1038 q 819 829 706 1038 q 884 512 884 709 q 819 195 884 318 q 581 -27 728 23 l 574 -27 l 523 74 q 703 248 644 131 q 747 454 741 323 l 258 454 l 258 34 l 129 -27 l 122 -27 m 259 570 l 747 570 q 703 776 741 700 q 503 922 629 922 q 304 776 378 922 q 259 570 266 700 m 547 1164 q 535 1176 547 1164 q 524 1222 524 1188 q 547 1281 524 1257 q 605 1305 571 1305 q 663 1281 639 1305 q 686 1222 686 1257 q 663 1164 686 1188 q 605 1139 639 1139 q 547 1164 571 1139 m 344 1164 q 332 1176 344 1164 q 320 1222 320 1188 q 344 1281 320 1257 q 401 1305 368 1305 q 459 1281 435 1305 q 483 1222 483 1257 q 459 1164 483 1188 q 401 1139 435 1139 q 344 1164 368 1139 z "},"Å":{"ha":986,"x_min":122,"x_max":884,"o":"m 122 -27 l 122 512 q 187 829 122 709 q 503 1038 301 1038 q 819 829 706 1038 q 884 512 884 709 q 819 195 884 318 q 581 -27 728 23 l 574 -27 l 523 74 q 703 248 644 131 q 747 454 741 323 l 258 454 l 258 34 l 129 -27 l 122 -27 m 259 570 l 747 570 q 703 776 741 700 q 503 922 629 922 q 304 776 378 922 q 259 570 266 700 m 590 1110 q 498 1077 553 1077 q 407 1110 444 1077 q 365 1205 365 1147 q 407 1300 365 1261 q 498 1333 443 1333 q 590 1300 553 1333 q 632 1205 632 1263 q 590 1110 632 1147 m 498 1263 q 462 1249 475 1263 q 448 1205 448 1234 q 463 1161 448 1174 q 498 1147 477 1147 q 534 1162 519 1147 q 547 1205 547 1175 q 532 1250 547 1236 q 498 1263 519 1263 z "},"Æ":{"ha":1427,"x_min":122,"x_max":1393,"o":"m 259 570 l 747 570 q 703 776 741 700 q 503 922 629 922 q 304 776 378 922 q 259 570 266 700 m 122 -27 l 122 512 q 187 829 122 709 q 503 1038 301 1038 q 816 835 703 1038 q 1128 1038 929 1038 l 1310 1038 l 1310 1031 l 1259 922 l 1128 922 q 929 776 1002 922 q 884 570 891 700 l 1270 570 l 1270 563 l 1219 454 l 883 454 l 883 145 q 917 115 883 115 l 1184 115 q 1284 195 1264 115 l 1291 195 l 1393 146 q 1184 0 1352 0 l 917 0 q 747 145 747 0 l 747 454 l 258 454 l 258 34 l 129 -27 l 122 -27 z "},"Ç":{"ha":926,"x_min":102,"x_max":845,"o":"m 845 321 q 799 195 832 256 q 526 -11 698 9 q 576 -140 576 -69 q 502 -305 576 -233 l 495 -305 l 366 -244 q 457 -103 457 -185 q 425 -9 457 -60 q 167 195 264 18 q 102 512 102 315 q 167 829 102 709 q 483 1038 281 1038 q 799 829 686 1038 l 689 776 l 682 776 q 483 922 609 922 q 283 776 357 922 q 237 512 237 684 q 283 248 237 338 q 483 102 359 102 q 682 248 608 102 l 838 321 l 845 321 z "},"È":{"ha":802,"x_min":122,"x_max":768,"o":"m 292 0 q 122 145 122 0 l 122 512 q 187 829 122 709 q 503 1038 301 1038 l 685 1038 l 685 1031 l 634 922 l 503 922 q 304 776 377 922 q 259 570 266 700 l 644 570 l 644 563 l 593 454 l 258 454 l 258 145 q 292 115 258 115 l 559 115 q 659 195 639 115 l 666 195 l 768 146 q 559 0 727 0 l 292 0 m 363 1333 l 370 1333 l 480 1099 l 401 1062 l 394 1062 l 244 1276 l 363 1333 z "},"É":{"ha":802,"x_min":122,"x_max":768,"o":"m 292 0 q 122 145 122 0 l 122 512 q 187 829 122 709 q 503 1038 301 1038 l 685 1038 l 685 1031 l 634 922 l 503 922 q 304 776 377 922 q 259 570 266 700 l 644 570 l 644 563 l 593 454 l 258 454 l 258 145 q 292 115 258 115 l 559 115 q 659 195 639 115 l 666 195 l 768 146 q 559 0 727 0 l 292 0 m 484 1333 l 491 1333 l 610 1276 l 460 1062 l 454 1062 l 374 1099 l 484 1333 z "},"Ê":{"ha":802,"x_min":122,"x_max":768,"o":"m 292 0 q 122 145 122 0 l 122 512 q 187 829 122 709 q 503 1038 301 1038 l 685 1038 l 685 1031 l 634 922 l 503 922 q 304 776 377 922 q 259 570 266 700 l 644 570 l 644 563 l 593 454 l 258 454 l 258 145 q 292 115 258 115 l 559 115 q 659 195 639 115 l 666 195 l 768 146 q 559 0 727 0 l 292 0 m 233 1099 l 336 1276 l 456 1333 l 463 1333 l 607 1099 l 528 1062 l 522 1062 l 420 1203 l 319 1062 l 313 1062 l 233 1099 z "},"Ë":{"ha":802,"x_min":122,"x_max":768,"o":"m 292 0 q 122 145 122 0 l 122 512 q 187 829 122 709 q 503 1038 301 1038 l 685 1038 l 685 1031 l 634 922 l 503 922 q 304 776 377 922 q 259 570 266 700 l 644 570 l 644 563 l 593 454 l 258 454 l 258 145 q 292 115 258 115 l 559 115 q 659 195 639 115 l 666 195 l 768 146 q 559 0 727 0 l 292 0 m 463 1164 q 451 1176 463 1164 q 439 1222 439 1188 q 463 1281 439 1257 q 520 1305 486 1305 q 578 1281 554 1305 q 602 1222 602 1257 q 578 1164 602 1188 q 520 1139 554 1139 q 463 1164 486 1139 m 259 1164 q 247 1176 259 1164 q 235 1222 235 1188 q 259 1281 235 1257 q 317 1305 283 1305 q 374 1281 351 1305 q 398 1222 398 1257 q 374 1164 398 1188 q 317 1139 351 1139 q 259 1164 283 1139 z "},"Ì":{"ha":407,"x_min":45,"x_max":281,"o":"m 164 1333 l 171 1333 l 281 1099 l 201 1062 l 195 1062 l 45 1276 l 164 1333 m 136 -27 l 136 990 l 264 1051 l 271 1051 l 271 34 l 142 -27 l 136 -27 z "},"Í":{"ha":407,"x_min":126,"x_max":362,"o":"m 236 1333 l 243 1333 l 362 1276 l 212 1062 l 205 1062 l 126 1099 l 236 1333 m 136 -27 l 136 990 l 264 1051 l 271 1051 l 271 34 l 142 -27 l 136 -27 z "},"Î":{"ha":407,"x_min":16,"x_max":391,"o":"m 136 -27 l 136 990 l 264 1051 l 271 1051 l 271 34 l 142 -27 l 136 -27 m 16 1099 l 119 1276 l 239 1333 l 245 1333 l 391 1099 l 311 1062 l 304 1062 l 203 1203 l 102 1062 l 96 1062 l 16 1099 z "},"Ï":{"ha":407,"x_min":20,"x_max":387,"o":"m 136 -27 l 136 990 l 264 1051 l 271 1051 l 271 34 l 142 -27 l 136 -27 m 248 1164 q 236 1176 248 1164 q 224 1222 224 1188 q 248 1281 224 1257 q 305 1305 271 1305 q 363 1281 339 1305 q 387 1222 387 1257 q 363 1164 387 1188 q 305 1139 339 1139 q 248 1164 271 1139 m 44 1164 q 32 1176 44 1164 q 20 1222 20 1188 q 44 1281 20 1257 q 102 1305 68 1305 q 159 1281 136 1305 q 183 1222 183 1257 q 159 1164 183 1188 q 102 1139 136 1139 q 44 1164 68 1139 z "},"Ð":{"ha":986,"x_min":34,"x_max":884,"o":"m 503 115 q 701 266 630 115 q 749 512 749 366 q 703 776 749 684 q 503 922 629 922 q 304 776 378 922 q 259 570 266 701 l 577 570 l 577 563 l 526 454 l 258 454 l 258 145 q 292 115 258 115 l 503 115 m 292 0 q 122 145 122 0 l 122 454 l 34 454 l 34 461 l 85 570 l 123 570 q 187 829 132 727 q 503 1038 301 1038 q 819 829 706 1038 q 884 512 884 709 q 818 213 884 342 q 503 0 708 0 l 292 0 z "},"Ñ":{"ha":986,"x_min":122,"x_max":884,"o":"m 122 -27 l 122 512 q 187 829 122 709 q 503 1038 301 1038 q 819 829 706 1038 q 884 512 884 709 q 819 195 884 318 q 581 -27 728 23 l 574 -27 l 523 74 q 703 248 644 131 q 749 512 749 338 q 703 776 749 684 q 503 922 629 922 q 304 776 377 922 q 258 512 258 684 l 258 34 l 129 -27 l 122 -27 m 340 1111 q 435 1305 340 1305 q 528 1257 479 1305 q 579 1224 563 1224 q 602 1273 602 1224 l 677 1305 l 681 1305 q 585 1111 681 1111 q 492 1158 542 1111 q 441 1192 458 1192 q 418 1143 418 1192 l 344 1111 l 340 1111 z "},"Ò":{"ha":966,"x_min":102,"x_max":864,"o":"m 237 512 q 283 248 237 338 q 483 102 359 102 q 682 248 608 102 q 728 512 728 340 q 682 776 728 684 q 483 922 609 922 q 283 776 357 922 q 237 512 237 684 m 167 195 q 102 512 102 315 q 167 829 102 709 q 483 1038 281 1038 q 799 829 686 1038 q 864 512 864 709 q 799 195 864 315 q 483 -14 686 -14 q 167 195 281 -14 m 404 1333 l 411 1333 l 521 1099 l 441 1062 l 435 1062 l 285 1276 l 404 1333 z "},"Ó":{"ha":966,"x_min":102,"x_max":864,"o":"m 237 512 q 283 248 237 338 q 483 102 359 102 q 682 248 608 102 q 728 512 728 340 q 682 776 728 684 q 483 922 609 922 q 283 776 357 922 q 237 512 237 684 m 167 195 q 102 512 102 315 q 167 829 102 709 q 483 1038 281 1038 q 799 829 686 1038 q 864 512 864 709 q 799 195 864 315 q 483 -14 686 -14 q 167 195 281 -14 m 554 1333 l 561 1333 l 680 1276 l 530 1062 l 524 1062 l 444 1099 l 554 1333 z "},"Ô":{"ha":966,"x_min":102,"x_max":864,"o":"m 237 512 q 283 248 237 338 q 483 102 359 102 q 682 248 608 102 q 728 512 728 340 q 682 776 728 684 q 483 922 609 922 q 283 776 357 922 q 237 512 237 684 m 167 195 q 102 512 102 315 q 167 829 102 709 q 483 1038 281 1038 q 799 829 686 1038 q 864 512 864 709 q 799 195 864 315 q 483 -14 686 -14 q 167 195 281 -14 m 294 1099 l 398 1276 l 517 1333 l 524 1333 l 669 1099 l 590 1062 l 583 1062 l 481 1203 l 381 1062 l 374 1062 l 294 1099 z "},"Õ":{"ha":966,"x_min":102,"x_max":864,"o":"m 237 512 q 283 248 237 338 q 483 102 359 102 q 682 248 608 102 q 728 512 728 340 q 682 776 728 684 q 483 922 609 922 q 283 776 357 922 q 237 512 237 684 m 167 195 q 102 512 102 315 q 167 829 102 709 q 483 1038 281 1038 q 799 829 686 1038 q 864 512 864 709 q 799 195 864 315 q 483 -14 686 -14 q 167 195 281 -14 m 319 1111 q 415 1305 319 1305 q 508 1257 458 1305 q 559 1224 543 1224 q 582 1273 582 1224 l 656 1305 l 661 1305 q 565 1111 661 1111 q 472 1158 522 1111 q 421 1192 437 1192 q 398 1143 398 1192 l 323 1111 l 319 1111 z "},"Ö":{"ha":966,"x_min":102,"x_max":864,"o":"m 237 512 q 283 248 237 338 q 483 102 359 102 q 682 248 608 102 q 728 512 728 340 q 682 776 728 684 q 483 922 609 922 q 283 776 357 922 q 237 512 237 684 m 167 195 q 102 512 102 315 q 167 829 102 709 q 483 1038 281 1038 q 799 829 686 1038 q 864 512 864 709 q 799 195 864 315 q 483 -14 686 -14 q 167 195 281 -14 m 527 1164 q 515 1176 527 1164 q 503 1222 503 1188 q 527 1281 503 1257 q 585 1305 551 1305 q 642 1281 618 1305 q 666 1222 666 1257 q 642 1164 666 1188 q 585 1139 618 1139 q 527 1164 551 1139 m 323 1164 q 312 1176 323 1164 q 300 1222 300 1188 q 323 1281 300 1257 q 381 1305 347 1305 q 439 1281 415 1305 q 463 1222 463 1257 q 439 1164 463 1188 q 381 1139 415 1139 q 323 1164 347 1139 z "},"×":{"ha":729,"x_min":102,"x_max":627,"o":"m 102 688 l 106 692 l 228 736 l 364 600 l 501 736 l 623 692 l 627 688 l 452 512 l 627 336 l 623 332 l 501 288 l 364 425 l 228 288 l 106 332 l 102 336 l 277 512 l 102 688 z "},"Ø":{"ha":966,"x_min":102,"x_max":864,"o":"m 279 -27 l 272 -27 l 201 7 l 241 92 q 167 195 200 134 q 102 512 102 315 q 167 829 102 709 q 483 1038 281 1038 q 658 989 581 1038 l 687 1051 l 694 1051 l 764 1017 l 725 932 q 799 829 766 890 q 864 512 864 709 q 799 195 864 315 q 483 -14 686 -14 q 308 35 385 -14 l 279 -27 m 237 512 q 283 248 237 336 q 300 219 292 233 l 606 878 q 483 922 553 922 q 283 776 357 922 q 237 512 237 684 m 666 806 l 360 147 q 483 102 414 102 q 682 248 608 102 q 728 512 728 340 q 682 776 728 688 q 666 806 674 791 z "},"Ù":{"ha":1000,"x_min":102,"x_max":864,"o":"m 864 1051 l 864 512 q 799 195 864 315 q 483 -14 685 -14 q 167 195 280 -14 q 102 512 102 315 q 167 829 102 706 q 406 1051 258 1001 l 412 1051 l 463 950 q 283 776 342 893 q 237 512 237 686 q 283 248 237 340 q 483 102 357 102 q 682 248 608 102 q 728 512 728 340 l 728 990 l 857 1051 l 864 1051 m 472 1333 l 479 1333 l 589 1099 l 509 1062 l 503 1062 l 353 1276 l 472 1333 z "},"Ú":{"ha":1000,"x_min":102,"x_max":864,"o":"m 864 1051 l 864 512 q 799 195 864 315 q 483 -14 685 -14 q 167 195 280 -14 q 102 512 102 315 q 167 829 102 706 q 406 1051 258 1001 l 412 1051 l 463 950 q 283 776 342 893 q 237 512 237 686 q 283 248 237 340 q 483 102 357 102 q 682 248 608 102 q 728 512 728 340 l 728 990 l 857 1051 l 864 1051 m 622 1333 l 629 1333 l 748 1276 l 598 1062 l 591 1062 l 512 1099 l 622 1333 z "},"Û":{"ha":1000,"x_min":102,"x_max":864,"o":"m 864 1051 l 864 512 q 799 195 864 315 q 483 -14 685 -14 q 167 195 280 -14 q 102 512 102 315 q 167 829 102 706 q 406 1051 258 1001 l 412 1051 l 463 950 q 283 776 342 893 q 237 512 237 686 q 283 248 237 340 q 483 102 357 102 q 682 248 608 102 q 728 512 728 340 l 728 990 l 857 1051 l 864 1051 m 362 1099 l 466 1276 l 585 1333 l 592 1333 l 736 1099 l 658 1062 l 651 1062 l 549 1203 l 449 1062 l 442 1062 l 362 1099 z "},"Ü":{"ha":1000,"x_min":102,"x_max":864,"o":"m 864 1051 l 864 512 q 799 195 864 315 q 483 -14 685 -14 q 167 195 280 -14 q 102 512 102 315 q 167 829 102 706 q 406 1051 258 1001 l 412 1051 l 463 950 q 283 776 342 893 q 237 512 237 686 q 283 248 237 340 q 483 102 357 102 q 682 248 608 102 q 728 512 728 340 l 728 990 l 857 1051 l 864 1051 m 595 1164 q 583 1176 595 1164 q 571 1222 571 1188 q 595 1281 571 1257 q 652 1305 618 1305 q 710 1281 686 1305 q 734 1222 734 1257 q 710 1164 734 1188 q 652 1139 686 1139 q 595 1164 618 1139 m 391 1164 q 379 1176 391 1164 q 368 1222 368 1188 q 391 1281 368 1257 q 449 1305 415 1305 q 507 1281 483 1305 q 530 1222 530 1257 q 507 1164 530 1188 q 449 1139 483 1139 q 391 1164 415 1139 z "},"Ý":{"ha":930,"x_min":81,"x_max":795,"o":"m 659 -27 l 659 359 q 446 260 574 260 q 162 399 271 260 q 81 647 81 502 q 163 910 81 803 q 317 1051 232 1000 l 324 1051 l 375 950 q 280 857 316 910 q 217 647 217 764 q 284 451 217 526 q 446 376 351 376 q 599 446 537 376 q 659 606 659 515 l 659 990 l 788 1051 l 795 1051 l 795 34 l 666 -27 l 659 -27 m 554 1333 l 561 1333 l 680 1276 l 530 1062 l 524 1062 l 444 1099 l 554 1333 z "},"Þ":{"ha":945,"x_min":136,"x_max":864,"o":"m 271 378 l 271 321 l 483 321 q 665 383 610 321 q 728 548 728 455 q 663 726 728 658 q 517 789 602 789 q 317 642 392 789 q 271 378 271 551 m 136 -27 l 136 990 l 264 1051 l 271 1051 l 271 795 q 517 904 371 904 q 783 779 686 904 q 864 548 864 676 q 782 330 864 431 q 483 205 680 205 l 271 205 l 271 34 l 142 -27 l 136 -27 z "},"ß":{"ha":847,"x_min":122,"x_max":745,"o":"m 122 -27 l 122 651 q 171 881 122 791 q 408 1038 256 1038 q 601 972 528 1038 q 685 777 685 897 q 570 586 685 656 q 647 546 610 577 q 745 320 745 463 q 646 87 745 190 q 404 -14 551 -12 l 349 -14 l 349 -7 l 399 101 q 548 168 481 101 q 608 317 608 228 q 569 452 608 405 q 410 517 516 517 l 355 517 l 355 524 l 404 631 q 519 677 478 631 q 549 778 549 711 q 509 889 549 852 q 415 929 467 929 q 286 833 336 929 q 258 661 258 779 l 258 34 l 129 -27 l 122 -27 z "},"à":{"ha":719,"x_min":68,"x_max":617,"o":"m 481 -27 l 481 68 q 336 -14 423 -13 q 138 63 209 -14 q 68 244 68 140 q 144 429 68 353 q 336 502 218 502 q 479 427 419 502 q 454 555 467 530 q 332 644 408 644 l 174 644 l 174 651 l 225 760 l 332 760 q 568 603 484 760 q 617 373 617 513 l 617 34 l 488 -27 l 481 -27 m 199 245 q 236 143 199 184 q 336 102 273 102 q 441 144 399 102 q 480 243 480 184 q 438 345 480 304 q 337 387 396 387 q 236 345 274 387 q 199 245 199 303 m 292 1062 l 299 1062 l 409 828 l 330 791 l 323 791 l 173 1005 l 292 1062 z "},"á":{"ha":719,"x_min":68,"x_max":617,"o":"m 481 -27 l 481 68 q 336 -14 423 -13 q 138 63 209 -14 q 68 244 68 140 q 144 429 68 353 q 336 502 218 502 q 479 427 419 502 q 454 555 467 530 q 332 644 408 644 l 174 644 l 174 651 l 225 760 l 332 760 q 568 603 484 760 q 617 373 617 513 l 617 34 l 488 -27 l 481 -27 m 199 245 q 236 143 199 184 q 336 102 273 102 q 441 144 399 102 q 480 243 480 184 q 438 345 480 304 q 337 387 396 387 q 236 345 274 387 q 199 245 199 303 m 450 1062 l 456 1062 l 576 1005 l 426 791 l 419 791 l 340 828 l 450 1062 z "},"â":{"ha":719,"x_min":68,"x_max":617,"o":"m 481 -27 l 481 68 q 336 -14 423 -13 q 138 63 209 -14 q 68 244 68 140 q 144 429 68 353 q 336 502 218 502 q 479 427 419 502 q 454 555 467 530 q 332 644 408 644 l 174 644 l 174 651 l 225 760 l 332 760 q 568 603 484 760 q 617 373 617 513 l 617 34 l 488 -27 l 481 -27 m 199 245 q 236 143 199 184 q 336 102 273 102 q 441 144 399 102 q 480 243 480 184 q 438 345 480 304 q 337 387 396 387 q 236 345 274 387 q 199 245 199 303 m 186 828 l 290 1005 l 409 1062 l 416 1062 l 560 828 l 481 791 l 475 791 l 373 932 l 273 791 l 266 791 l 186 828 z "},"ã":{"ha":719,"x_min":68,"x_max":617,"o":"m 481 -27 l 481 68 q 336 -14 423 -13 q 138 63 209 -14 q 68 244 68 140 q 144 429 68 353 q 336 502 218 502 q 479 427 419 502 q 454 555 467 530 q 332 644 408 644 l 174 644 l 174 651 l 225 760 l 332 760 q 568 603 484 760 q 617 373 617 513 l 617 34 l 488 -27 l 481 -27 m 199 245 q 236 143 199 184 q 336 102 273 102 q 441 144 399 102 q 480 243 480 184 q 438 345 480 304 q 337 387 396 387 q 236 345 274 387 q 199 245 199 303 m 218 836 q 314 1029 218 1029 q 407 982 357 1029 q 458 949 441 949 q 481 998 481 949 l 555 1029 l 559 1029 q 464 836 559 836 q 371 883 420 836 q 320 916 336 916 q 297 867 297 916 l 222 836 l 218 836 z "},"ä":{"ha":719,"x_min":68,"x_max":617,"o":"m 481 -27 l 481 68 q 336 -14 423 -13 q 138 63 209 -14 q 68 244 68 140 q 144 429 68 353 q 336 502 218 502 q 479 427 419 502 q 454 555 467 530 q 332 644 408 644 l 174 644 l 174 651 l 225 760 l 332 760 q 568 603 484 760 q 617 373 617 513 l 617 34 l 488 -27 l 481 -27 m 199 245 q 236 143 199 184 q 336 102 273 102 q 441 144 399 102 q 480 243 480 184 q 438 345 480 304 q 337 387 396 387 q 236 345 274 387 q 199 245 199 303 m 415 896 q 403 908 415 896 q 391 955 391 920 q 415 1013 391 989 q 473 1038 439 1038 q 530 1013 507 1038 q 554 955 554 989 q 530 896 554 920 q 473 871 507 871 q 415 896 439 871 m 212 896 q 200 908 212 896 q 188 955 188 920 q 212 1013 188 989 q 269 1038 235 1038 q 327 1013 303 1038 q 351 955 351 989 q 327 896 351 920 q 269 871 303 871 q 212 896 235 871 z "},"å":{"ha":719,"x_min":68,"x_max":617,"o":"m 481 -27 l 481 68 q 336 -14 423 -13 q 138 63 209 -14 q 68 244 68 140 q 144 429 68 353 q 336 502 218 502 q 479 427 419 502 q 454 555 467 530 q 332 644 408 644 l 174 644 l 174 651 l 225 760 l 332 760 q 568 603 484 760 q 617 373 617 513 l 617 34 l 488 -27 l 481 -27 m 199 245 q 236 143 199 184 q 336 102 273 102 q 441 144 399 102 q 480 243 480 184 q 438 345 480 304 q 337 387 396 387 q 236 345 274 387 q 199 245 199 303 m 465 839 q 373 806 427 806 q 281 839 319 806 q 239 934 239 876 q 281 1029 239 990 q 373 1062 317 1062 q 465 1029 427 1062 q 507 934 507 991 q 465 839 507 876 m 373 991 q 336 977 350 991 q 323 934 323 963 q 337 890 323 903 q 372 876 352 876 q 408 891 393 876 q 422 934 422 904 q 407 979 422 964 q 373 991 393 991 z "},"æ":{"ha":1145,"x_min":68,"x_max":1043,"o":"m 199 245 q 236 143 199 184 q 336 102 273 102 q 441 144 399 102 q 480 243 480 184 q 438 345 480 304 q 337 387 396 387 q 236 345 274 387 q 199 245 199 303 m 481 -27 l 481 68 q 336 -14 423 -13 q 138 63 209 -14 q 68 244 68 140 q 144 429 68 353 q 336 502 218 502 q 479 427 419 502 q 454 555 467 530 q 332 644 408 644 l 174 644 l 174 651 l 225 760 l 332 760 q 549 635 467 760 q 767 760 631 760 q 1004 604 918 760 q 1038 513 1025 565 l 644 193 q 768 102 690 102 q 889 191 845 102 l 1036 256 l 1043 256 q 1004 143 1031 191 q 767 -14 918 -14 q 617 37 682 -14 l 617 34 l 488 -27 l 481 -27 m 618 321 l 889 555 q 767 644 845 644 q 645 555 690 644 q 617 373 617 499 q 618 321 617 345 z "},"ç":{"ha":745,"x_min":102,"x_max":663,"o":"m 663 256 q 625 143 651 191 q 430 -10 551 9 q 480 -140 480 -68 q 406 -305 480 -233 l 399 -305 l 271 -244 q 361 -103 361 -185 q 327 -7 361 -58 q 151 143 220 20 q 102 373 102 230 q 151 603 102 513 q 387 760 235 760 q 623 605 539 760 l 516 555 l 509 555 q 387 644 465 644 q 265 555 310 644 q 237 373 237 498 q 265 191 237 247 q 387 102 311 102 q 509 191 465 102 l 656 256 l 663 256 z "},"è":{"ha":765,"x_min":102,"x_max":663,"o":"m 663 256 q 625 143 651 191 q 387 -14 538 -14 q 151 143 238 -14 q 102 373 102 231 q 151 603 102 513 q 387 760 235 760 q 624 604 538 760 q 658 513 645 565 l 264 193 q 389 102 310 102 q 509 191 465 102 l 656 256 l 663 256 m 239 321 l 509 555 q 387 644 465 644 q 265 555 311 644 q 237 373 237 499 q 239 321 237 345 m 306 1062 l 313 1062 l 422 828 l 343 791 l 336 791 l 186 1005 l 306 1062 z "},"é":{"ha":765,"x_min":102,"x_max":663,"o":"m 663 256 q 625 143 651 191 q 387 -14 538 -14 q 151 143 238 -14 q 102 373 102 231 q 151 603 102 513 q 387 760 235 760 q 624 604 538 760 q 658 513 645 565 l 264 193 q 389 102 310 102 q 509 191 465 102 l 656 256 l 663 256 m 239 321 l 509 555 q 387 644 465 644 q 265 555 311 644 q 237 373 237 499 q 239 321 237 345 m 463 1062 l 470 1062 l 589 1005 l 439 791 l 433 791 l 353 828 l 463 1062 z "},"ê":{"ha":765,"x_min":102,"x_max":663,"o":"m 663 256 q 625 143 651 191 q 387 -14 538 -14 q 151 143 238 -14 q 102 373 102 231 q 151 603 102 513 q 387 760 235 760 q 624 604 538 760 q 658 513 645 565 l 264 193 q 389 102 310 102 q 509 191 465 102 l 656 256 l 663 256 m 239 321 l 509 555 q 387 644 465 644 q 265 555 311 644 q 237 373 237 499 q 239 321 237 345 m 199 828 l 303 1005 l 422 1062 l 429 1062 l 574 828 l 495 791 l 488 791 l 387 932 l 286 791 l 279 791 l 199 828 z "},"ë":{"ha":765,"x_min":102,"x_max":663,"o":"m 663 256 q 625 143 651 191 q 387 -14 538 -14 q 151 143 238 -14 q 102 373 102 231 q 151 603 102 513 q 387 760 235 760 q 624 604 538 760 q 658 513 645 565 l 264 193 q 389 102 310 102 q 509 191 465 102 l 656 256 l 663 256 m 239 321 l 509 555 q 387 644 465 644 q 265 555 311 644 q 237 373 237 499 q 239 321 237 345 m 429 896 q 417 908 429 896 q 405 955 405 920 q 429 1013 405 989 q 486 1038 452 1038 q 544 1013 520 1038 q 568 955 568 989 q 544 896 568 920 q 486 871 520 871 q 429 896 452 871 m 225 896 q 213 908 225 896 q 201 955 201 920 q 225 1013 201 989 q 283 1038 249 1038 q 340 1013 317 1038 q 364 955 364 989 q 340 896 364 920 q 283 871 317 871 q 225 896 249 871 z "},"ì":{"ha":407,"x_min":45,"x_max":281,"o":"m 136 -27 l 136 712 l 264 773 l 271 773 l 271 34 l 142 -27 l 136 -27 m 164 1062 l 171 1062 l 281 828 l 201 791 l 195 791 l 45 1005 l 164 1062 z "},"í":{"ha":407,"x_min":126,"x_max":362,"o":"m 236 1062 l 243 1062 l 362 1005 l 212 791 l 205 791 l 126 828 l 236 1062 m 136 -27 l 136 712 l 264 773 l 271 773 l 271 34 l 142 -27 l 136 -27 z "},"î":{"ha":407,"x_min":16,"x_max":391,"o":"m 16 828 l 120 1005 l 239 1062 l 246 1062 l 391 828 l 312 791 l 305 791 l 203 932 l 103 791 l 96 791 l 16 828 m 136 -27 l 136 712 l 264 773 l 271 773 l 271 34 l 142 -27 l 136 -27 z "},"ï":{"ha":407,"x_min":20,"x_max":387,"o":"m 136 -27 l 136 712 l 264 773 l 271 773 l 271 34 l 142 -27 l 136 -27 m 248 896 q 236 908 248 896 q 224 955 224 920 q 248 1013 224 989 q 305 1038 271 1038 q 363 1013 339 1038 q 387 955 387 989 q 363 896 387 920 q 305 871 339 871 q 248 896 271 871 m 44 896 q 32 908 44 896 q 20 955 20 920 q 44 1013 20 989 q 102 1038 68 1038 q 159 1013 136 1038 q 183 955 183 989 q 159 896 183 920 q 102 871 136 871 q 44 896 68 871 z "},"ð":{"ha":800,"x_min":102,"x_max":713,"o":"m 102 305 q 151 497 102 416 q 387 624 229 624 q 534 587 473 624 q 490 778 527 706 l 393 705 l 386 705 l 279 751 l 430 863 q 311 950 380 918 l 362 1051 l 369 1051 q 532 940 461 1019 l 600 991 l 607 991 l 713 945 l 593 854 q 608 829 601 842 q 673 512 673 699 l 673 305 q 623 113 673 192 q 387 -14 543 -14 q 151 113 232 -14 q 102 305 102 191 m 237 305 q 272 168 237 221 q 387 102 316 102 q 503 168 458 102 q 537 305 537 221 q 503 442 537 390 q 387 509 458 509 q 272 442 316 509 q 237 305 237 391 z "},"ñ":{"ha":775,"x_min":102,"x_max":673,"o":"m 102 -27 l 102 373 q 151 603 102 514 q 387 760 235 760 q 624 603 539 760 q 673 373 673 513 q 625 143 673 243 q 449 -27 566 19 l 442 -27 l 391 74 q 509 191 473 103 q 538 373 538 262 q 509 555 538 498 q 387 644 465 644 q 265 555 310 644 q 237 373 237 498 l 237 34 l 109 -27 l 102 -27 m 232 836 q 328 1029 232 1029 q 420 982 371 1029 q 471 949 455 949 q 494 998 494 949 l 569 1029 l 573 1029 q 477 836 573 836 q 385 883 434 836 q 334 916 350 916 q 311 867 311 916 l 236 836 l 232 836 z "},"ò":{"ha":775,"x_min":102,"x_max":673,"o":"m 264 554 q 237 373 237 499 q 265 191 237 247 q 387 102 310 102 q 509 191 465 102 q 538 373 538 248 q 509 555 538 498 q 387 644 465 644 q 264 554 309 644 m 102 373 q 151 603 102 514 q 387 760 235 760 q 624 603 539 760 q 673 373 673 513 q 625 143 673 231 q 387 -14 538 -14 q 151 143 238 -14 q 102 373 102 231 m 306 1062 l 313 1062 l 422 828 l 343 791 l 336 791 l 186 1005 l 306 1062 z "},"ó":{"ha":775,"x_min":102,"x_max":673,"o":"m 264 554 q 237 373 237 499 q 265 191 237 247 q 387 102 310 102 q 509 191 465 102 q 538 373 538 248 q 509 555 538 498 q 387 644 465 644 q 264 554 309 644 m 102 373 q 151 603 102 514 q 387 760 235 760 q 624 603 539 760 q 673 373 673 513 q 625 143 673 231 q 387 -14 538 -14 q 151 143 238 -14 q 102 373 102 231 m 463 1062 l 470 1062 l 589 1005 l 439 791 l 433 791 l 353 828 l 463 1062 z "},"ô":{"ha":775,"x_min":102,"x_max":673,"o":"m 264 554 q 237 373 237 499 q 265 191 237 247 q 387 102 310 102 q 509 191 465 102 q 538 373 538 248 q 509 555 538 498 q 387 644 465 644 q 264 554 309 644 m 102 373 q 151 603 102 514 q 387 760 235 760 q 624 603 539 760 q 673 373 673 513 q 625 143 673 231 q 387 -14 538 -14 q 151 143 238 -14 q 102 373 102 231 m 199 828 l 303 1005 l 422 1062 l 429 1062 l 574 828 l 495 791 l 488 791 l 387 932 l 286 791 l 279 791 l 199 828 z "},"õ":{"ha":775,"x_min":102,"x_max":673,"o":"m 264 554 q 237 373 237 499 q 265 191 237 247 q 387 102 310 102 q 509 191 465 102 q 538 373 538 248 q 509 555 538 498 q 387 644 465 644 q 264 554 309 644 m 102 373 q 151 603 102 514 q 387 760 235 760 q 624 603 539 760 q 673 373 673 513 q 625 143 673 231 q 387 -14 538 -14 q 151 143 238 -14 q 102 373 102 231 m 232 836 q 328 1029 232 1029 q 420 982 371 1029 q 471 949 455 949 q 494 998 494 949 l 569 1029 l 573 1029 q 477 836 573 836 q 385 883 434 836 q 334 916 350 916 q 311 867 311 916 l 236 836 l 232 836 z "},"ö":{"ha":775,"x_min":102,"x_max":673,"o":"m 264 554 q 237 373 237 499 q 265 191 237 247 q 387 102 310 102 q 509 191 465 102 q 538 373 538 248 q 509 555 538 498 q 387 644 465 644 q 264 554 309 644 m 102 373 q 151 603 102 514 q 387 760 235 760 q 624 603 539 760 q 673 373 673 513 q 625 143 673 231 q 387 -14 538 -14 q 151 143 238 -14 q 102 373 102 231 m 429 896 q 417 908 429 896 q 405 955 405 920 q 429 1013 405 989 q 486 1038 452 1038 q 544 1013 520 1038 q 568 955 568 989 q 544 896 568 920 q 486 871 520 871 q 429 896 452 871 m 225 896 q 213 908 225 896 q 201 955 201 920 q 225 1013 201 989 q 283 1038 249 1038 q 340 1013 317 1038 q 364 955 364 989 q 340 896 364 920 q 283 871 317 871 q 225 896 249 871 z "},"÷":{"ha":823,"x_min":102,"x_max":722,"o":"m 355 679 q 343 691 355 679 q 331 738 331 703 q 355 796 331 772 q 412 821 378 821 q 470 796 446 821 q 494 738 494 772 q 470 679 494 703 q 412 654 446 654 q 355 679 378 654 m 355 231 q 343 243 355 231 q 331 290 331 256 q 355 349 331 324 q 412 373 378 373 q 470 349 446 373 q 494 290 494 324 q 470 231 494 256 q 412 207 446 207 q 355 231 378 207 m 102 450 l 102 457 l 157 574 l 722 574 l 722 567 l 667 450 l 102 450 z "},"ø":{"ha":775,"x_min":102,"x_max":673,"o":"m 248 -27 l 241 -27 l 170 7 l 201 72 q 151 143 174 102 q 102 373 102 229 q 151 603 102 513 q 387 760 236 760 q 506 730 453 760 l 526 773 l 533 773 l 604 739 l 574 675 q 624 603 602 644 q 673 373 673 511 q 625 143 673 232 q 387 -14 538 -14 q 268 17 321 -14 l 248 -27 m 456 623 q 387 644 426 644 q 264 554 309 644 q 237 373 237 499 q 260 201 237 258 l 456 623 m 514 545 l 318 124 q 387 102 349 102 q 509 191 465 102 q 538 373 538 248 q 514 545 538 488 z "},"ù":{"ha":795,"x_min":102,"x_max":673,"o":"m 673 773 l 673 373 q 625 143 673 232 q 388 -14 540 -14 q 151 143 236 -14 q 102 373 102 233 q 151 603 102 503 q 326 773 210 727 l 333 773 l 384 672 q 266 555 302 643 q 237 373 237 484 q 266 191 237 248 q 388 102 311 102 q 510 191 465 102 q 538 373 538 248 l 538 712 l 667 773 l 673 773 m 360 1062 l 367 1062 l 477 828 l 397 791 l 391 791 l 241 1005 l 360 1062 z "},"ú":{"ha":795,"x_min":102,"x_max":673,"o":"m 673 773 l 673 373 q 625 143 673 232 q 388 -14 540 -14 q 151 143 236 -14 q 102 373 102 233 q 151 603 102 503 q 326 773 210 727 l 333 773 l 384 672 q 266 555 302 643 q 237 373 237 484 q 266 191 237 248 q 388 102 311 102 q 510 191 465 102 q 538 373 538 248 l 538 712 l 667 773 l 673 773 m 517 1062 l 524 1062 l 644 1005 l 494 791 l 487 791 l 408 828 l 517 1062 z "},"û":{"ha":795,"x_min":102,"x_max":673,"o":"m 673 773 l 673 373 q 625 143 673 232 q 388 -14 540 -14 q 151 143 236 -14 q 102 373 102 233 q 151 603 102 503 q 326 773 210 727 l 333 773 l 384 672 q 266 555 302 643 q 237 373 237 484 q 266 191 237 248 q 388 102 311 102 q 510 191 465 102 q 538 373 538 248 l 538 712 l 667 773 l 673 773 m 254 828 l 357 1005 l 477 1062 l 484 1062 l 628 828 l 549 791 l 543 791 l 441 932 l 340 791 l 334 791 l 254 828 z "},"ü":{"ha":795,"x_min":102,"x_max":673,"o":"m 673 773 l 673 373 q 625 143 673 232 q 388 -14 540 -14 q 151 143 236 -14 q 102 373 102 233 q 151 603 102 503 q 326 773 210 727 l 333 773 l 384 672 q 266 555 302 643 q 237 373 237 484 q 266 191 237 248 q 388 102 311 102 q 510 191 465 102 q 538 373 538 248 l 538 712 l 667 773 l 673 773 m 483 896 q 471 908 483 896 q 459 955 459 920 q 483 1013 459 989 q 541 1038 507 1038 q 598 1013 574 1038 q 622 955 622 989 q 598 896 622 920 q 541 871 574 871 q 483 896 507 871 m 279 896 q 268 908 279 896 q 256 955 256 920 q 279 1013 256 989 q 337 1038 303 1038 q 395 1013 371 1038 q 418 955 418 989 q 395 896 418 920 q 337 871 371 871 q 279 896 303 871 z "},"ý":{"ha":809,"x_min":102,"x_max":673,"o":"m 673 773 l 673 95 q 625 -135 673 -44 q 388 -292 541 -292 l 224 -292 l 224 -285 l 276 -176 l 388 -176 q 510 -87 473 -176 q 535 54 535 -25 q 387 -14 469 -14 q 151 143 235 -14 q 102 373 102 233 q 151 603 102 500 q 326 773 210 727 l 333 773 l 384 672 q 266 555 302 643 q 237 373 237 484 q 266 191 237 248 q 388 102 311 102 q 510 191 465 102 q 538 373 538 248 l 538 712 l 667 773 l 673 773 m 517 1062 l 524 1062 l 644 1005 l 494 791 l 487 791 l 408 828 l 517 1062 z "},"þ":{"ha":809,"x_min":136,"x_max":707,"o":"m 299 554 q 272 373 272 499 q 300 191 272 247 q 422 102 345 102 q 544 191 499 102 q 572 373 572 248 q 544 555 572 498 q 422 644 500 644 q 299 554 344 644 m 136 -305 l 136 990 l 264 1051 l 271 1051 l 271 689 q 422 760 340 760 q 659 603 571 760 q 707 373 707 515 q 659 143 707 232 q 422 -14 574 -14 q 271 58 334 -14 l 271 -244 l 142 -305 l 136 -305 z "},"ÿ":{"ha":809,"x_min":102,"x_max":673,"o":"m 673 773 l 673 95 q 625 -135 673 -44 q 388 -292 541 -292 l 224 -292 l 224 -285 l 276 -176 l 388 -176 q 510 -87 473 -176 q 535 54 535 -25 q 387 -14 469 -14 q 151 143 235 -14 q 102 373 102 233 q 151 603 102 500 q 326 773 210 727 l 333 773 l 384 672 q 266 555 302 643 q 237 373 237 484 q 266 191 237 248 q 388 102 311 102 q 510 191 465 102 q 538 373 538 248 l 538 712 l 667 773 l 673 773 m 483 896 q 471 908 483 896 q 459 955 459 920 q 483 1013 459 989 q 541 1038 507 1038 q 598 1013 574 1038 q 622 955 622 989 q 598 896 622 920 q 541 871 574 871 q 483 896 507 871 m 279 896 q 268 908 279 896 q 256 955 256 920 q 279 1013 256 989 q 337 1038 303 1038 q 395 1013 371 1038 q 418 955 418 989 q 395 896 418 920 q 337 871 371 871 q 279 896 303 871 z "},"Ā":{"ha":986,"x_min":122,"x_max":884,"o":"m 122 -27 l 122 512 q 187 829 122 709 q 503 1038 301 1038 q 819 829 706 1038 q 884 512 884 709 q 819 195 884 318 q 581 -27 728 23 l 574 -27 l 523 74 q 703 248 644 131 q 747 454 741 323 l 258 454 l 258 34 l 129 -27 l 122 -27 m 259 570 l 747 570 q 703 776 741 700 q 503 922 629 922 q 304 776 378 922 q 259 570 266 700 m 337 1111 l 337 1118 l 392 1234 l 703 1234 l 703 1227 l 648 1111 l 337 1111 z "},"ā":{"ha":719,"x_min":68,"x_max":617,"o":"m 481 -27 l 481 68 q 336 -14 423 -13 q 138 63 209 -14 q 68 244 68 140 q 144 429 68 353 q 336 502 218 502 q 479 427 419 502 q 454 555 467 530 q 332 644 408 644 l 174 644 l 174 651 l 225 760 l 332 760 q 568 603 484 760 q 617 373 617 513 l 617 34 l 488 -27 l 481 -27 m 199 245 q 236 143 199 184 q 336 102 273 102 q 441 144 399 102 q 480 243 480 184 q 438 345 480 304 q 337 387 396 387 q 236 345 274 387 q 199 245 199 303 m 203 836 l 203 842 l 258 959 l 569 959 l 569 952 l 514 836 l 203 836 z "},"Ă":{"ha":986,"x_min":122,"x_max":884,"o":"m 122 -27 l 122 512 q 187 829 122 709 q 503 1038 301 1038 q 819 829 706 1038 q 884 512 884 709 q 819 195 884 318 q 581 -27 728 23 l 574 -27 l 523 74 q 703 248 644 131 q 747 454 741 323 l 258 454 l 258 34 l 129 -27 l 122 -27 m 259 570 l 747 570 q 703 776 741 700 q 503 922 629 922 q 304 776 378 922 q 259 570 266 700 m 338 1213 l 338 1219 l 388 1320 q 505 1230 437 1230 q 621 1320 572 1230 l 673 1219 l 673 1213 q 503 1111 604 1111 q 338 1213 399 1111 z "},"ă":{"ha":719,"x_min":68,"x_max":617,"o":"m 481 -27 l 481 68 q 336 -14 423 -13 q 138 63 209 -14 q 68 244 68 140 q 144 429 68 353 q 336 502 218 502 q 479 427 419 502 q 454 555 467 530 q 332 644 408 644 l 174 644 l 174 651 l 225 760 l 332 760 q 568 603 484 760 q 617 373 617 513 l 617 34 l 488 -27 l 481 -27 m 199 245 q 236 143 199 184 q 336 102 273 102 q 441 144 399 102 q 480 243 480 184 q 438 345 480 304 q 337 387 396 387 q 236 345 274 387 q 199 245 199 303 m 203 937 l 203 944 l 254 1045 q 370 954 302 954 q 487 1045 438 954 l 538 944 l 538 937 q 369 836 469 836 q 203 937 264 836 z "},"Ą":{"ha":986,"x_min":122,"x_max":884,"o":"m 259 570 l 747 570 q 703 776 741 700 q 503 922 629 922 q 304 776 378 922 q 259 570 266 700 m 122 -27 l 122 512 q 187 829 122 709 q 503 1038 301 1038 q 819 829 706 1038 q 884 512 884 709 q 819 195 884 319 q 650 5 751 66 q 610 -103 610 -35 q 701 -244 610 -185 l 572 -305 l 565 -305 q 491 -140 491 -233 q 557 7 491 -58 l 523 74 q 703 248 644 131 q 747 454 741 323 l 258 454 l 258 34 l 129 -27 l 122 -27 z "},"ą":{"ha":719,"x_min":68,"x_max":629,"o":"m 617 34 l 597 24 q 538 -103 538 -43 q 629 -244 538 -185 l 500 -305 l 494 -305 q 420 -140 420 -233 q 481 3 420 -61 l 481 68 q 336 -14 423 -14 q 138 63 210 -14 q 68 244 68 140 q 144 429 68 353 q 336 502 218 502 q 479 427 419 502 q 454 555 467 530 q 332 644 408 644 l 174 644 l 174 651 l 225 760 l 332 760 q 568 603 484 760 q 617 373 617 513 l 617 34 m 199 245 q 236 143 199 184 q 336 102 273 102 q 441 144 399 102 q 480 243 480 184 q 438 345 480 304 q 337 387 396 387 q 236 345 274 387 q 199 245 199 303 z "},"Ć":{"ha":926,"x_min":102,"x_max":845,"o":"m 845 321 q 799 195 832 256 q 483 -14 685 -14 q 167 195 281 -14 q 102 512 102 315 q 167 829 102 709 q 483 1038 281 1038 q 799 829 686 1038 l 689 776 l 682 776 q 483 922 609 922 q 283 776 357 922 q 237 512 237 684 q 283 248 237 338 q 483 102 359 102 q 682 248 608 102 l 838 321 l 845 321 m 554 1333 l 561 1333 l 680 1276 l 530 1062 l 524 1062 l 444 1099 l 554 1333 z "},"ć":{"ha":745,"x_min":102,"x_max":663,"o":"m 663 256 q 625 143 651 191 q 387 -14 538 -14 q 151 143 238 -14 q 102 373 102 231 q 151 603 102 513 q 387 760 235 760 q 623 605 539 760 l 516 555 l 509 555 q 387 644 465 644 q 265 555 310 644 q 237 373 237 498 q 265 191 237 247 q 387 102 311 102 q 509 191 465 102 l 656 256 l 663 256 m 463 1062 l 470 1062 l 589 1005 l 439 791 l 433 791 l 353 828 l 463 1062 z "},"Ĉ":{"ha":926,"x_min":102,"x_max":845,"o":"m 845 321 q 799 195 832 256 q 483 -14 685 -14 q 167 195 281 -14 q 102 512 102 315 q 167 829 102 709 q 483 1038 281 1038 q 799 829 686 1038 l 689 776 l 682 776 q 483 922 609 922 q 283 776 357 922 q 237 512 237 684 q 283 248 237 338 q 483 102 359 102 q 682 248 608 102 l 838 321 l 845 321 m 294 1099 l 398 1276 l 517 1333 l 524 1333 l 669 1099 l 590 1062 l 583 1062 l 481 1203 l 381 1062 l 374 1062 l 294 1099 z "},"ĉ":{"ha":745,"x_min":102,"x_max":663,"o":"m 663 256 q 625 143 651 191 q 387 -14 538 -14 q 151 143 238 -14 q 102 373 102 231 q 151 603 102 513 q 387 760 235 760 q 623 605 539 760 l 516 555 l 509 555 q 387 644 465 644 q 265 555 310 644 q 237 373 237 498 q 265 191 237 247 q 387 102 311 102 q 509 191 465 102 l 656 256 l 663 256 m 199 828 l 303 1005 l 422 1062 l 429 1062 l 574 828 l 495 791 l 488 791 l 387 932 l 286 791 l 279 791 l 199 828 z "},"Ċ":{"ha":926,"x_min":102,"x_max":845,"o":"m 845 321 q 799 195 832 256 q 483 -14 685 -14 q 167 195 281 -14 q 102 512 102 315 q 167 829 102 709 q 483 1038 281 1038 q 799 829 686 1038 l 689 776 l 682 776 q 483 922 609 922 q 283 776 357 922 q 237 512 237 684 q 283 248 237 338 q 483 102 359 102 q 682 248 608 102 l 838 321 l 845 321 m 420 1164 q 409 1176 420 1164 q 397 1222 397 1188 q 420 1281 397 1257 q 478 1305 444 1305 q 536 1281 512 1305 q 559 1222 559 1257 q 536 1164 559 1188 q 478 1139 512 1139 q 420 1164 444 1139 z "},"ċ":{"ha":745,"x_min":102,"x_max":663,"o":"m 663 256 q 625 143 651 191 q 387 -14 538 -14 q 151 143 238 -14 q 102 373 102 231 q 151 603 102 513 q 387 760 235 760 q 623 605 539 760 l 516 555 l 509 555 q 387 644 465 644 q 265 555 310 644 q 237 373 237 498 q 265 191 237 247 q 387 102 311 102 q 509 191 465 102 l 656 256 l 663 256 m 326 896 q 314 908 326 896 q 302 955 302 920 q 326 1013 302 989 q 383 1038 349 1038 q 441 1013 417 1038 q 465 955 465 989 q 441 896 465 920 q 383 871 417 871 q 326 896 349 871 z "},"Č":{"ha":926,"x_min":102,"x_max":845,"o":"m 845 321 q 799 195 832 256 q 483 -14 685 -14 q 167 195 281 -14 q 102 512 102 315 q 167 829 102 709 q 483 1038 281 1038 q 799 829 686 1038 l 689 776 l 682 776 q 483 922 609 922 q 283 776 357 922 q 237 512 237 684 q 283 248 237 338 q 483 102 359 102 q 682 248 608 102 l 838 321 l 845 321 m 439 1062 l 294 1296 l 373 1333 l 380 1333 l 481 1192 l 582 1333 l 589 1333 l 669 1296 l 565 1119 l 446 1062 l 439 1062 z "},"č":{"ha":745,"x_min":102,"x_max":663,"o":"m 663 256 q 625 143 651 191 q 387 -14 538 -14 q 151 143 238 -14 q 102 373 102 231 q 151 603 102 513 q 387 760 235 760 q 623 605 539 760 l 516 555 l 509 555 q 387 644 465 644 q 265 555 310 644 q 237 373 237 498 q 265 191 237 247 q 387 102 311 102 q 509 191 465 102 l 656 256 l 663 256 m 326 791 l 181 1025 l 260 1062 l 267 1062 l 368 921 l 469 1062 l 475 1062 l 555 1025 l 452 848 l 332 791 l 326 791 z "},"Ď":{"ha":986,"x_min":122,"x_max":884,"o":"m 292 0 q 122 145 122 0 l 122 512 q 187 829 122 709 q 503 1038 301 1038 q 819 829 706 1038 q 884 512 884 709 q 818 213 884 342 q 503 0 708 0 l 292 0 m 503 115 q 701 266 630 115 q 749 512 749 366 q 703 776 749 684 q 503 922 629 922 q 304 776 378 922 q 258 512 258 685 l 258 145 q 292 115 258 115 l 503 115 m 426 1062 l 281 1296 l 360 1333 l 367 1333 l 469 1192 l 569 1333 l 576 1333 l 656 1296 l 552 1119 l 433 1062 l 426 1062 z "},"ď":{"ha":821,"x_min":102,"x_max":922,"o":"m 102 373 q 151 603 102 514 q 387 760 235 760 q 538 688 475 760 l 538 990 l 667 1051 l 673 1051 l 673 373 q 625 143 673 232 q 387 -14 538 -14 q 151 143 238 -14 q 102 373 102 231 m 237 373 q 265 191 237 245 q 387 102 311 102 q 509 191 464 102 q 538 373 538 248 q 509 555 538 498 q 387 644 465 644 q 265 553 310 644 q 237 373 237 497 m 796 1062 l 803 1062 l 922 1005 l 772 791 l 766 791 l 686 828 l 796 1062 z "},"Đ":{"ha":986,"x_min":34,"x_max":884,"o":"m 503 115 q 701 266 630 115 q 749 512 749 366 q 703 776 749 684 q 503 922 629 922 q 304 776 378 922 q 259 570 266 701 l 577 570 l 577 563 l 526 454 l 258 454 l 258 145 q 292 115 258 115 l 503 115 m 292 0 q 122 145 122 0 l 122 454 l 34 454 l 34 461 l 85 570 l 123 570 q 187 829 132 727 q 503 1038 301 1038 q 819 829 706 1038 q 884 512 884 709 q 818 213 884 342 q 503 0 708 0 l 292 0 z "},"đ":{"ha":795,"x_min":102,"x_max":762,"o":"m 237 373 q 265 191 237 245 q 387 102 311 102 q 509 191 464 102 q 538 373 538 248 q 509 555 538 498 q 387 644 465 644 q 265 553 310 644 q 237 373 237 497 m 102 373 q 151 603 102 513 q 387 760 236 760 q 538 688 475 760 l 538 834 l 371 834 l 371 841 l 422 949 l 538 949 l 538 990 l 667 1051 l 673 1051 l 673 949 l 762 949 l 762 943 l 711 834 l 673 834 l 673 373 q 625 143 673 232 q 387 -14 538 -14 q 151 143 238 -14 q 102 373 102 231 z "},"Ē":{"ha":802,"x_min":122,"x_max":768,"o":"m 292 0 q 122 145 122 0 l 122 512 q 187 829 122 709 q 503 1038 301 1038 l 685 1038 l 685 1031 l 634 922 l 503 922 q 304 776 377 922 q 259 570 266 700 l 644 570 l 644 563 l 593 454 l 258 454 l 258 145 q 292 115 258 115 l 559 115 q 659 195 639 115 l 666 195 l 768 146 q 559 0 727 0 l 292 0 m 255 1111 l 255 1118 l 310 1234 l 621 1234 l 621 1227 l 566 1111 l 255 1111 z "},"ē":{"ha":765,"x_min":102,"x_max":663,"o":"m 663 256 q 625 143 651 191 q 387 -14 538 -14 q 151 143 238 -14 q 102 373 102 231 q 151 603 102 513 q 387 760 235 760 q 624 604 538 760 q 658 513 645 565 l 264 193 q 389 102 310 102 q 509 191 465 102 l 656 256 l 663 256 m 239 321 l 509 555 q 387 644 465 644 q 265 555 311 644 q 237 373 237 499 q 239 321 237 345 m 217 836 l 217 842 l 272 959 l 583 959 l 583 952 l 528 836 l 217 836 z "},"Ĕ":{"ha":802,"x_min":122,"x_max":768,"o":"m 292 0 q 122 145 122 0 l 122 512 q 187 829 122 709 q 503 1038 301 1038 l 685 1038 l 685 1031 l 634 922 l 503 922 q 304 776 377 922 q 259 570 266 700 l 644 570 l 644 563 l 593 454 l 258 454 l 258 145 q 292 115 258 115 l 559 115 q 659 195 639 115 l 666 195 l 768 146 q 559 0 727 0 l 292 0 m 250 1213 l 250 1219 l 300 1320 q 416 1230 349 1230 q 533 1320 484 1230 l 585 1219 l 585 1213 q 415 1111 515 1111 q 250 1213 311 1111 z "},"ĕ":{"ha":765,"x_min":102,"x_max":663,"o":"m 663 256 q 625 143 651 191 q 387 -14 538 -14 q 151 143 238 -14 q 102 373 102 231 q 151 603 102 513 q 387 760 235 760 q 624 604 538 760 q 658 513 645 565 l 264 193 q 389 102 310 102 q 509 191 465 102 l 656 256 l 663 256 m 239 321 l 509 555 q 387 644 465 644 q 265 555 311 644 q 237 373 237 499 q 239 321 237 345 m 217 937 l 217 944 l 267 1045 q 384 954 316 954 q 500 1045 452 954 l 552 944 l 552 937 q 382 836 483 836 q 217 937 278 836 z "},"Ė":{"ha":802,"x_min":122,"x_max":768,"o":"m 292 0 q 122 145 122 0 l 122 512 q 187 829 122 709 q 503 1038 301 1038 l 685 1038 l 685 1031 l 634 922 l 503 922 q 304 776 377 922 q 259 570 266 700 l 644 570 l 644 563 l 593 454 l 258 454 l 258 145 q 292 115 258 115 l 559 115 q 659 195 639 115 l 666 195 l 768 146 q 559 0 727 0 l 292 0 m 360 1164 q 348 1176 360 1164 q 336 1222 336 1188 q 360 1281 336 1257 q 418 1305 384 1305 q 475 1281 452 1305 q 499 1222 499 1257 q 475 1164 499 1188 q 418 1139 452 1139 q 360 1164 384 1139 z "},"ė":{"ha":765,"x_min":102,"x_max":663,"o":"m 663 256 q 625 143 651 191 q 387 -14 538 -14 q 151 143 238 -14 q 102 373 102 231 q 151 603 102 513 q 387 760 235 760 q 624 604 538 760 q 658 513 645 565 l 264 193 q 389 102 310 102 q 509 191 465 102 l 656 256 l 663 256 m 239 321 l 509 555 q 387 644 465 644 q 265 555 311 644 q 237 373 237 499 q 239 321 237 345 m 326 896 q 314 908 326 896 q 302 955 302 920 q 326 1013 302 989 q 383 1038 349 1038 q 441 1013 417 1038 q 465 955 465 989 q 441 896 465 920 q 383 871 417 871 q 326 896 349 871 z "},"Ę":{"ha":802,"x_min":122,"x_max":768,"o":"m 292 0 q 122 145 122 0 l 122 512 q 187 829 122 709 q 503 1038 301 1038 l 685 1038 l 685 1031 l 634 922 l 503 922 q 304 776 377 922 q 259 570 266 700 l 644 570 l 644 563 l 593 454 l 258 454 l 258 145 q 292 115 258 115 l 559 115 q 659 195 639 115 l 666 195 l 768 146 q 702 42 749 78 q 635 -103 635 -12 q 726 -244 635 -185 l 597 -305 l 591 -305 q 517 -140 517 -233 q 576 1 517 -62 q 559 0 568 0 l 292 0 z "},"ę":{"ha":765,"x_min":102,"x_max":663,"o":"m 558 54 q 481 -103 481 -22 q 572 -244 481 -185 l 443 -305 l 436 -305 q 362 -140 362 -233 q 410 -13 362 -70 q 387 -14 399 -14 q 151 143 238 -14 q 102 373 102 231 q 151 603 102 513 q 387 760 235 760 q 624 604 538 760 q 658 513 645 565 l 264 193 q 389 102 310 102 q 509 191 465 102 l 656 256 l 663 256 q 625 143 651 192 q 558 54 595 90 m 239 321 l 509 555 q 387 644 465 644 q 265 555 311 644 q 237 373 237 499 q 239 321 237 345 z "},"Ě":{"ha":802,"x_min":122,"x_max":768,"o":"m 292 0 q 122 145 122 0 l 122 512 q 187 829 122 709 q 503 1038 301 1038 l 685 1038 l 685 1031 l 634 922 l 503 922 q 304 776 377 922 q 259 570 266 700 l 644 570 l 644 563 l 593 454 l 258 454 l 258 145 q 292 115 258 115 l 559 115 q 659 195 639 115 l 666 195 l 768 146 q 559 0 727 0 l 292 0 m 382 1062 l 237 1296 l 316 1333 l 323 1333 l 425 1192 l 525 1333 l 532 1333 l 612 1296 l 508 1119 l 389 1062 l 382 1062 z "},"ě":{"ha":765,"x_min":102,"x_max":663,"o":"m 663 256 q 625 143 651 191 q 387 -14 538 -14 q 151 143 238 -14 q 102 373 102 231 q 151 603 102 513 q 387 760 235 760 q 624 604 538 760 q 658 513 645 565 l 264 193 q 389 102 310 102 q 509 191 465 102 l 656 256 l 663 256 m 239 321 l 509 555 q 387 644 465 644 q 265 555 311 644 q 237 373 237 499 q 239 321 237 345 m 326 791 l 181 1025 l 260 1062 l 267 1062 l 368 921 l 469 1062 l 475 1062 l 555 1025 l 452 848 l 332 791 l 326 791 z "},"Ĝ":{"ha":966,"x_min":102,"x_max":864,"o":"m 864 570 l 864 512 q 799 195 864 315 q 483 -14 686 -14 q 167 195 281 -14 q 102 512 102 315 q 167 829 102 709 q 483 1038 281 1038 q 799 829 686 1038 l 689 776 l 682 776 q 483 922 609 922 q 283 776 358 922 q 237 512 237 684 q 283 248 237 338 q 483 102 359 102 q 682 248 608 102 q 727 454 720 324 l 471 454 l 471 461 l 522 570 l 864 570 m 294 1099 l 398 1276 l 517 1333 l 524 1333 l 669 1099 l 590 1062 l 583 1062 l 481 1203 l 381 1062 l 374 1062 l 294 1099 z "},"ĝ":{"ha":789,"x_min":102,"x_max":673,"o":"m 264 554 q 237 373 237 499 q 265 191 237 247 q 387 102 310 102 q 509 191 465 102 q 538 373 538 248 q 509 555 538 498 q 387 644 465 644 q 264 554 309 644 m 102 373 q 151 603 102 514 q 387 760 235 760 q 624 603 539 760 q 673 373 673 513 l 673 95 q 625 -135 673 -44 q 388 -292 541 -292 l 224 -292 l 224 -285 l 276 -176 l 388 -176 q 510 -87 473 -176 q 535 54 535 -25 q 387 -14 469 -14 q 151 143 238 -14 q 102 373 102 231 m 199 828 l 303 1005 l 422 1062 l 429 1062 l 574 828 l 495 791 l 488 791 l 387 932 l 286 791 l 279 791 l 199 828 z "},"Ğ":{"ha":966,"x_min":102,"x_max":864,"o":"m 864 570 l 864 512 q 799 195 864 315 q 483 -14 686 -14 q 167 195 281 -14 q 102 512 102 315 q 167 829 102 709 q 483 1038 281 1038 q 799 829 686 1038 l 689 776 l 682 776 q 483 922 609 922 q 283 776 358 922 q 237 512 237 684 q 283 248 237 338 q 483 102 359 102 q 682 248 608 102 q 727 454 720 324 l 471 454 l 471 461 l 522 570 l 864 570 m 317 1213 l 317 1219 l 368 1320 q 484 1230 416 1230 q 601 1320 552 1230 l 652 1219 l 652 1213 q 483 1111 583 1111 q 317 1213 378 1111 z "},"ğ":{"ha":789,"x_min":102,"x_max":673,"o":"m 264 554 q 237 373 237 499 q 265 191 237 247 q 387 102 310 102 q 509 191 465 102 q 538 373 538 248 q 509 555 538 498 q 387 644 465 644 q 264 554 309 644 m 102 373 q 151 603 102 514 q 387 760 235 760 q 624 603 539 760 q 673 373 673 513 l 673 95 q 625 -135 673 -44 q 388 -292 541 -292 l 224 -292 l 224 -285 l 276 -176 l 388 -176 q 510 -87 473 -176 q 535 54 535 -25 q 387 -14 469 -14 q 151 143 238 -14 q 102 373 102 231 m 217 937 l 217 944 l 267 1045 q 384 954 316 954 q 500 1045 452 954 l 552 944 l 552 937 q 382 836 483 836 q 217 937 278 836 z "},"Ġ":{"ha":966,"x_min":102,"x_max":864,"o":"m 864 570 l 864 512 q 799 195 864 315 q 483 -14 686 -14 q 167 195 281 -14 q 102 512 102 315 q 167 829 102 709 q 483 1038 281 1038 q 799 829 686 1038 l 689 776 l 682 776 q 483 922 609 922 q 283 776 358 922 q 237 512 237 684 q 283 248 237 338 q 483 102 359 102 q 682 248 608 102 q 727 454 720 324 l 471 454 l 471 461 l 522 570 l 864 570 m 420 1164 q 409 1176 420 1164 q 397 1222 397 1188 q 420 1281 397 1257 q 478 1305 444 1305 q 536 1281 512 1305 q 559 1222 559 1257 q 536 1164 559 1188 q 478 1139 512 1139 q 420 1164 444 1139 z "},"ġ":{"ha":789,"x_min":102,"x_max":673,"o":"m 264 554 q 237 373 237 499 q 265 191 237 247 q 387 102 310 102 q 509 191 465 102 q 538 373 538 248 q 509 555 538 498 q 387 644 465 644 q 264 554 309 644 m 102 373 q 151 603 102 514 q 387 760 235 760 q 624 603 539 760 q 673 373 673 513 l 673 95 q 625 -135 673 -44 q 388 -292 541 -292 l 224 -292 l 224 -285 l 276 -176 l 388 -176 q 510 -87 473 -176 q 535 54 535 -25 q 387 -14 469 -14 q 151 143 238 -14 q 102 373 102 231 m 326 896 q 314 908 326 896 q 302 955 302 920 q 326 1013 302 989 q 383 1038 349 1038 q 441 1013 417 1038 q 465 955 465 989 q 441 896 465 920 q 383 871 417 871 q 326 896 349 871 z "},"Ģ":{"ha":966,"x_min":102,"x_max":864,"o":"m 864 570 l 864 512 q 799 195 864 315 q 483 -14 686 -14 q 167 195 281 -14 q 102 512 102 315 q 167 829 102 709 q 483 1038 281 1038 q 799 829 686 1038 l 689 776 l 682 776 q 483 922 609 922 q 283 776 358 922 q 237 512 237 684 q 283 248 237 338 q 483 102 359 102 q 682 248 608 102 q 727 454 720 324 l 471 454 l 471 461 l 522 570 l 864 570 m 404 -305 l 397 -305 l 278 -248 l 428 -34 l 435 -34 l 514 -71 l 404 -305 z "},"ģ":{"ha":789,"x_min":102,"x_max":673,"o":"m 264 554 q 237 373 237 499 q 265 191 237 247 q 387 102 310 102 q 509 191 465 102 q 538 373 538 248 q 509 555 538 498 q 387 644 465 644 q 264 554 309 644 m 102 373 q 151 603 102 514 q 387 760 235 760 q 624 603 539 760 q 673 373 673 513 l 673 95 q 625 -135 673 -44 q 388 -292 541 -292 l 224 -292 l 224 -285 l 276 -176 l 388 -176 q 510 -87 473 -176 q 535 54 535 -25 q 387 -14 469 -14 q 151 143 238 -14 q 102 373 102 231 m 463 1062 l 470 1062 l 589 1005 l 439 791 l 433 791 l 353 828 l 463 1062 z "},"Ĥ":{"ha":986,"x_min":136,"x_max":884,"o":"m 136 -27 l 136 990 l 264 1051 l 271 1051 l 271 570 l 747 570 q 703 776 741 701 q 523 950 644 893 l 574 1051 l 581 1051 q 819 829 728 1001 q 884 512 884 706 q 819 195 884 318 q 581 -27 728 23 l 574 -27 l 523 74 q 703 248 644 131 q 747 454 741 323 l 271 454 l 271 34 l 142 -27 l 136 -27 m 254 1099 l 357 1276 l 477 1333 l 484 1333 l 628 1099 l 549 1062 l 543 1062 l 441 1203 l 340 1062 l 334 1062 l 254 1099 z "},"ĥ":{"ha":809,"x_min":136,"x_max":707,"o":"m 136 -27 l 136 990 l 264 1051 l 271 1051 l 271 689 q 421 760 334 760 q 658 603 573 760 q 707 373 707 513 q 659 143 707 243 q 483 -27 600 19 l 476 -27 l 425 74 q 543 191 507 103 q 572 373 572 262 q 543 555 572 498 q 421 644 498 644 q 299 555 344 644 q 271 373 271 498 l 271 34 l 142 -27 l 136 -27 m 245 1099 l 349 1276 l 468 1333 l 475 1333 l 619 1099 l 541 1062 l 534 1062 l 432 1203 l 332 1062 l 325 1062 l 245 1099 z "},"Ħ":{"ha":986,"x_min":34,"x_max":952,"o":"m 136 -27 l 136 834 l 34 834 l 34 841 l 85 949 l 136 949 l 136 990 l 264 1051 l 271 1051 l 271 949 l 524 949 l 523 950 l 574 1051 l 581 1051 q 735 949 667 1021 l 952 949 l 952 943 l 901 834 l 817 834 q 883 515 883 711 q 819 195 883 319 q 581 -27 729 24 l 574 -27 l 523 74 q 703 248 644 131 q 747 454 741 323 l 271 454 l 271 34 l 142 -27 l 136 -27 m 667 834 l 271 834 l 271 570 l 747 570 q 703 776 741 700 q 667 834 687 807 z "},"ħ":{"ha":809,"x_min":34,"x_max":707,"o":"m 136 -27 l 136 834 l 34 834 l 34 841 l 85 949 l 136 949 l 136 990 l 264 1051 l 271 1051 l 271 949 l 425 949 l 425 943 l 374 834 l 271 834 l 271 689 q 421 760 334 760 q 658 603 572 760 q 707 373 707 512 q 659 143 707 243 q 483 -27 600 19 l 476 -27 l 425 74 q 543 191 507 103 q 572 373 572 262 q 543 555 572 498 q 420 644 498 644 q 299 555 344 644 q 271 373 271 499 l 271 34 l 142 -27 l 136 -27 z "},"Ĩ":{"ha":407,"x_min":33,"x_max":374,"o":"m 136 -27 l 136 990 l 264 1051 l 271 1051 l 271 34 l 142 -27 l 136 -27 m 33 1111 q 128 1305 33 1305 q 221 1257 172 1305 q 272 1224 256 1224 q 295 1273 295 1224 l 370 1305 l 374 1305 q 278 1111 374 1111 q 185 1158 235 1111 q 134 1192 151 1192 q 111 1143 111 1192 l 37 1111 l 33 1111 z "},"ĩ":{"ha":407,"x_min":33,"x_max":374,"o":"m 136 -27 l 136 712 l 264 773 l 271 773 l 271 34 l 142 -27 l 136 -27 m 33 836 q 128 1029 33 1029 q 221 982 172 1029 q 272 949 256 949 q 295 998 295 949 l 370 1029 l 374 1029 q 278 836 374 836 q 185 883 235 836 q 134 916 151 916 q 111 867 111 916 l 37 836 l 33 836 z "},"Ī":{"ha":407,"x_min":20,"x_max":386,"o":"m 136 -27 l 136 990 l 264 1051 l 271 1051 l 271 34 l 142 -27 l 136 -27 m 20 1111 l 20 1118 l 75 1234 l 386 1234 l 386 1227 l 331 1111 l 20 1111 z "},"ī":{"ha":407,"x_min":20,"x_max":386,"o":"m 136 -27 l 136 712 l 264 773 l 271 773 l 271 34 l 142 -27 l 136 -27 m 20 836 l 20 842 l 75 959 l 386 959 l 386 952 l 331 836 l 20 836 z "},"Ĭ":{"ha":407,"x_min":36,"x_max":371,"o":"m 136 -27 l 136 990 l 264 1051 l 271 1051 l 271 34 l 142 -27 l 136 -27 m 36 1213 l 36 1219 l 86 1320 q 203 1230 135 1230 q 319 1320 271 1230 l 371 1219 l 371 1213 q 201 1111 302 1111 q 36 1213 97 1111 z "},"ĭ":{"ha":407,"x_min":36,"x_max":371,"o":"m 136 -27 l 136 712 l 264 773 l 271 773 l 271 34 l 142 -27 l 136 -27 m 36 937 l 36 944 l 86 1045 q 203 954 135 954 q 319 1045 271 954 l 371 944 l 371 937 q 201 836 302 836 q 36 937 97 836 z "},"Į":{"ha":407,"x_min":70,"x_max":279,"o":"m 136 7 l 136 990 l 264 1051 l 271 1051 l 271 34 l 245 22 q 189 -103 189 -44 q 279 -244 189 -185 l 151 -305 l 144 -305 q 70 -140 70 -233 q 136 7 70 -58 z "},"į":{"ha":407,"x_min":70,"x_max":285,"o":"m 146 896 q 134 908 146 896 q 122 955 122 920 q 146 1013 122 989 q 203 1038 170 1038 q 261 1013 237 1038 q 285 955 285 989 q 261 896 285 920 q 203 871 237 871 q 146 896 170 871 m 136 7 l 136 712 l 264 773 l 271 773 l 271 34 l 245 22 q 189 -103 189 -44 q 279 -244 189 -185 l 151 -305 l 144 -305 q 70 -140 70 -233 q 136 7 70 -58 z "},"İ":{"ha":407,"x_min":122,"x_max":285,"o":"m 136 -27 l 136 990 l 264 1051 l 271 1051 l 271 34 l 142 -27 l 136 -27 m 146 1164 q 134 1176 146 1164 q 122 1222 122 1188 q 146 1281 122 1257 q 203 1305 170 1305 q 261 1281 237 1305 q 285 1222 285 1257 q 261 1164 285 1188 q 203 1139 237 1139 q 146 1164 170 1139 z "},"ı":{"ha":407,"x_min":136,"x_max":271,"o":"m 136 -27 l 136 712 l 264 773 l 271 773 l 271 34 l 142 -27 l 136 -27 z "},"Ĳ":{"ha":1205,"x_min":136,"x_max":1069,"o":"m 372 195 l 482 248 l 489 248 q 688 102 562 102 q 888 248 816 102 q 934 512 934 342 l 934 879 q 900 909 934 909 l 539 909 l 539 916 l 590 1024 l 900 1024 q 1069 879 1069 1024 l 1069 512 q 1004 195 1069 315 q 688 -14 890 -14 q 372 195 486 -14 m 136 -27 l 136 990 l 264 1051 l 271 1051 l 271 34 l 142 -27 l 136 -27 z "},"ĳ":{"ha":746,"x_min":122,"x_max":624,"o":"m 325 -292 l 380 -170 q 447 -94 420 -147 q 475 88 475 -37 l 475 712 l 604 773 l 610 773 l 610 88 q 562 -142 610 -53 q 325 -298 477 -298 l 325 -292 m 485 896 q 473 908 485 896 q 461 955 461 920 q 485 1013 461 989 q 543 1038 509 1038 q 600 1013 576 1038 q 624 955 624 989 q 600 896 624 920 q 543 871 576 871 q 485 896 509 871 m 146 896 q 134 908 146 896 q 122 955 122 920 q 146 1013 122 989 q 203 1038 170 1038 q 261 1013 237 1038 q 285 955 285 989 q 261 896 285 920 q 203 871 237 871 q 146 896 170 871 m 136 -27 l 136 712 l 264 773 l 271 773 l 271 34 l 142 -27 l 136 -27 z "},"Ĵ":{"ha":887,"x_min":54,"x_max":751,"o":"m 54 195 l 164 248 l 171 248 q 370 102 244 102 q 570 248 498 102 q 616 512 616 342 l 616 879 q 582 909 616 909 l 221 909 l 221 916 l 272 1024 l 582 1024 q 751 879 751 1024 l 751 512 q 686 195 751 315 q 370 -14 572 -14 q 54 195 168 -14 m 317 1099 l 421 1276 l 541 1333 l 547 1333 l 692 1099 l 613 1062 l 606 1062 l 505 1203 l 404 1062 l 397 1062 l 317 1099 z "},"ĵ":{"ha":407,"x_min":-14,"x_max":391,"o":"m -14 -292 l 41 -170 q 108 -94 81 -147 q 136 88 136 -37 l 136 712 l 264 773 l 271 773 l 271 88 q 222 -142 271 -53 q -14 -298 138 -298 l -14 -292 m 16 828 l 120 1005 l 239 1062 l 246 1062 l 391 828 l 312 791 l 305 791 l 203 932 l 103 791 l 96 791 l 16 828 z "},"Ķ":{"ha":917,"x_min":136,"x_max":815,"o":"m 136 -27 l 136 990 l 264 1051 l 271 1051 l 271 541 l 640 1051 l 646 1051 l 766 995 l 468 593 q 748 470 654 593 q 815 271 815 382 q 737 71 815 155 q 581 -27 669 -5 l 574 -27 l 523 74 q 621 123 585 87 q 680 271 680 183 q 628 416 680 366 q 468 477 566 477 q 320 408 379 477 q 271 260 271 350 l 271 34 l 142 -27 l 136 -27 m 404 -305 l 397 -305 l 278 -248 l 428 -34 l 435 -34 l 514 -71 l 404 -305 z "},"ķ":{"ha":800,"x_min":136,"x_max":699,"o":"m 136 -27 l 136 990 l 264 1051 l 271 1051 l 271 486 l 532 773 l 538 773 l 658 717 l 456 510 q 614 447 553 497 q 699 252 699 378 q 650 90 699 155 q 474 -27 584 0 l 467 -27 l 416 74 q 534 138 507 101 q 563 252 563 176 q 520 367 563 330 q 417 403 478 403 q 313 366 356 403 q 271 252 271 330 l 271 34 l 142 -27 l 136 -27 m 348 -305 l 341 -305 l 222 -248 l 372 -34 l 378 -34 l 458 -71 l 348 -305 z "},"ĸ":{"ha":800,"x_min":136,"x_max":699,"o":"m 136 -27 l 136 712 l 264 773 l 271 773 l 271 486 l 532 773 l 538 773 l 658 717 l 456 510 q 614 447 553 497 q 699 252 699 378 q 650 90 699 155 q 474 -27 584 0 l 467 -27 l 416 74 q 534 138 507 101 q 563 252 563 176 q 520 367 563 330 q 417 403 478 403 q 313 366 356 403 q 271 252 271 330 l 271 34 l 142 -27 l 136 -27 z "},"Ĺ":{"ha":751,"x_min":126,"x_max":748,"o":"m 305 0 q 136 145 136 0 l 136 990 l 264 1051 l 271 1051 l 271 145 q 305 115 271 115 l 539 115 q 640 195 619 115 l 646 195 l 748 146 q 539 0 707 0 l 305 0 m 236 1333 l 243 1333 l 362 1276 l 212 1062 l 205 1062 l 126 1099 l 236 1333 z "},"ĺ":{"ha":407,"x_min":126,"x_max":362,"o":"m 236 1333 l 243 1333 l 362 1276 l 212 1062 l 205 1062 l 126 1099 l 236 1333 m 136 -27 l 136 990 l 264 1051 l 271 1051 l 271 34 l 142 -27 l 136 -27 z "},"Ļ":{"ha":751,"x_min":136,"x_max":748,"o":"m 305 0 q 136 145 136 0 l 136 990 l 264 1051 l 271 1051 l 271 145 q 305 115 271 115 l 539 115 q 640 195 619 115 l 646 195 l 748 146 q 539 0 707 0 l 305 0 m 372 -305 l 365 -305 l 245 -248 l 395 -34 l 402 -34 l 481 -71 l 372 -305 z "},"ļ":{"ha":407,"x_min":45,"x_max":281,"o":"m 171 -305 l 164 -305 l 45 -248 l 195 -34 l 201 -34 l 281 -71 l 171 -305 m 136 -27 l 136 990 l 264 1051 l 271 1051 l 271 34 l 142 -27 l 136 -27 z "},"Ľ":{"ha":751,"x_min":136,"x_max":748,"o":"m 305 0 q 136 145 136 0 l 136 990 l 264 1051 l 271 1051 l 271 145 q 305 115 271 115 l 539 115 q 640 195 619 115 l 646 195 l 748 146 q 539 0 707 0 l 305 0 m 403 1062 l 410 1062 l 529 1005 l 379 791 l 372 791 l 293 828 l 403 1062 z "},"ľ":{"ha":427,"x_min":136,"x_max":529,"o":"m 403 1062 l 410 1062 l 529 1005 l 379 791 l 372 791 l 293 828 l 403 1062 m 136 -27 l 136 990 l 264 1051 l 271 1051 l 271 34 l 142 -27 l 136 -27 z "},"Ŀ":{"ha":751,"x_min":136,"x_max":748,"o":"m 305 0 q 136 145 136 0 l 136 990 l 264 1051 l 271 1051 l 271 145 q 305 115 271 115 l 539 115 q 640 195 619 115 l 646 195 l 748 146 q 539 0 707 0 l 305 0 m 366 618 q 354 630 366 618 q 342 676 342 642 q 366 735 342 711 q 424 760 390 760 q 481 735 458 760 q 505 676 505 711 q 481 618 505 642 q 424 593 458 593 q 366 618 390 593 z "},"ŀ":{"ha":451,"x_min":136,"x_max":505,"o":"m 366 618 q 354 630 366 618 q 342 676 342 642 q 366 735 342 711 q 424 760 390 760 q 481 735 458 760 q 505 676 505 711 q 481 618 505 642 q 424 593 458 593 q 366 618 390 593 m 136 -27 l 136 990 l 264 1051 l 271 1051 l 271 34 l 142 -27 l 136 -27 z "},"Ł":{"ha":751,"x_min":136,"x_max":748,"o":"m 305 0 q 136 145 136 0 l 136 990 l 264 1051 l 271 1051 l 271 486 l 486 773 l 493 773 l 600 719 l 271 311 l 271 145 q 305 115 271 115 l 539 115 q 640 195 619 115 l 646 195 l 748 146 q 539 0 707 0 l 305 0 z "},"ł":{"ha":491,"x_min":14,"x_max":477,"o":"m 178 -27 l 178 367 l 127 284 l 121 284 l 14 339 l 178 543 l 178 990 l 307 1051 l 313 1051 l 313 690 l 363 773 l 370 773 l 477 719 l 313 515 l 313 34 l 184 -27 l 178 -27 z "},"Ń":{"ha":986,"x_min":122,"x_max":884,"o":"m 122 -27 l 122 512 q 187 829 122 709 q 503 1038 301 1038 q 819 829 706 1038 q 884 512 884 709 q 819 195 884 318 q 581 -27 728 23 l 574 -27 l 523 74 q 703 248 644 131 q 749 512 749 338 q 703 776 749 684 q 503 922 629 922 q 304 776 377 922 q 258 512 258 684 l 258 34 l 129 -27 l 122 -27 m 574 1333 l 581 1333 l 701 1276 l 551 1062 l 544 1062 l 465 1099 l 574 1333 z "},"ń":{"ha":775,"x_min":102,"x_max":673,"o":"m 102 -27 l 102 373 q 151 603 102 514 q 387 760 235 760 q 624 603 539 760 q 673 373 673 513 q 625 143 673 243 q 449 -27 566 19 l 442 -27 l 391 74 q 509 191 473 103 q 538 373 538 262 q 509 555 538 498 q 387 644 465 644 q 265 555 310 644 q 237 373 237 498 l 237 34 l 109 -27 l 102 -27 m 463 1062 l 470 1062 l 589 1005 l 439 791 l 433 791 l 353 828 l 463 1062 z "},"Ņ":{"ha":986,"x_min":122,"x_max":884,"o":"m 122 -27 l 122 512 q 187 829 122 709 q 503 1038 301 1038 q 819 829 706 1038 q 884 512 884 709 q 819 195 884 318 q 581 -27 728 23 l 574 -27 l 523 74 q 703 248 644 131 q 749 512 749 338 q 703 776 749 684 q 503 922 629 922 q 304 776 377 922 q 258 512 258 684 l 258 34 l 129 -27 l 122 -27 m 404 -305 l 397 -305 l 278 -248 l 428 -34 l 435 -34 l 514 -71 l 404 -305 z "},"ņ":{"ha":775,"x_min":102,"x_max":673,"o":"m 102 -27 l 102 373 q 151 603 102 514 q 387 760 235 760 q 624 603 539 760 q 673 373 673 513 q 625 143 673 243 q 449 -27 566 19 l 442 -27 l 391 74 q 509 191 473 103 q 538 373 538 262 q 509 555 538 498 q 387 644 465 644 q 265 555 310 644 q 237 373 237 498 l 237 34 l 109 -27 l 102 -27 m 319 -305 l 313 -305 l 193 -248 l 343 -34 l 350 -34 l 429 -71 l 319 -305 z "},"Ň":{"ha":986,"x_min":122,"x_max":884,"o":"m 122 -27 l 122 512 q 187 829 122 709 q 503 1038 301 1038 q 819 829 706 1038 q 884 512 884 709 q 819 195 884 318 q 581 -27 728 23 l 574 -27 l 523 74 q 703 248 644 131 q 749 512 749 338 q 703 776 749 684 q 503 922 629 922 q 304 776 377 922 q 258 512 258 684 l 258 34 l 129 -27 l 122 -27 m 439 1062 l 294 1296 l 373 1333 l 380 1333 l 481 1192 l 582 1333 l 589 1333 l 669 1296 l 565 1119 l 446 1062 l 439 1062 z "},"ň":{"ha":775,"x_min":102,"x_max":673,"o":"m 102 -27 l 102 373 q 151 603 102 514 q 387 760 235 760 q 624 603 539 760 q 673 373 673 513 q 625 143 673 243 q 449 -27 566 19 l 442 -27 l 391 74 q 509 191 473 103 q 538 373 538 262 q 509 555 538 498 q 387 644 465 644 q 265 555 310 644 q 237 373 237 498 l 237 34 l 109 -27 l 102 -27 m 326 791 l 181 1025 l 260 1062 l 267 1062 l 368 921 l 469 1062 l 475 1062 l 555 1025 l 452 848 l 332 791 l 326 791 z "},"ŉ":{"ha":775,"x_min":33,"x_max":673,"o":"m 102 -27 l 102 373 q 151 603 102 514 q 387 760 235 760 q 624 603 539 760 q 673 373 673 513 q 625 143 673 243 q 449 -27 566 19 l 442 -27 l 391 74 q 509 191 473 103 q 538 373 538 262 q 509 555 538 498 q 387 644 465 644 q 265 555 310 644 q 237 373 237 498 l 237 34 l 109 -27 l 102 -27 m 142 986 l 149 986 l 269 929 l 119 715 l 112 715 l 33 752 l 142 986 z "},"Ŋ":{"ha":1006,"x_min":122,"x_max":884,"o":"m 122 -27 l 122 512 q 187 829 122 709 q 503 1038 301 1038 q 819 829 706 1038 q 884 512 884 709 l 884 241 q 819 -76 884 47 q 581 -298 728 -248 l 574 -298 l 523 -197 q 703 -23 644 -140 q 749 241 749 67 l 749 512 q 703 776 749 684 q 503 922 629 922 q 304 776 377 922 q 258 512 258 684 l 258 34 l 129 -27 l 122 -27 z "},"ŋ":{"ha":789,"x_min":102,"x_max":673,"o":"m 102 -27 l 102 373 q 151 603 102 514 q 387 760 235 760 q 624 603 538 760 q 673 373 673 513 l 673 241 q 608 -76 673 47 q 370 -298 517 -248 l 363 -298 l 312 -197 q 492 -23 439 -138 q 538 241 538 77 l 538 373 q 509 555 538 498 q 387 644 465 644 q 265 555 310 644 q 237 373 237 498 l 237 34 l 109 -27 l 102 -27 z "},"Ō":{"ha":966,"x_min":102,"x_max":864,"o":"m 237 512 q 283 248 237 338 q 483 102 359 102 q 682 248 608 102 q 728 512 728 340 q 682 776 728 684 q 483 922 609 922 q 283 776 357 922 q 237 512 237 684 m 167 195 q 102 512 102 315 q 167 829 102 709 q 483 1038 281 1038 q 799 829 686 1038 q 864 512 864 709 q 799 195 864 315 q 483 -14 686 -14 q 167 195 281 -14 m 317 1111 l 317 1118 l 372 1234 l 682 1234 l 682 1227 l 627 1111 l 317 1111 z "},"ō":{"ha":775,"x_min":102,"x_max":673,"o":"m 264 554 q 237 373 237 499 q 265 191 237 247 q 387 102 310 102 q 509 191 465 102 q 538 373 538 248 q 509 555 538 498 q 387 644 465 644 q 264 554 309 644 m 102 373 q 151 603 102 514 q 387 760 235 760 q 624 603 539 760 q 673 373 673 513 q 625 143 673 231 q 387 -14 538 -14 q 151 143 238 -14 q 102 373 102 231 m 217 836 l 217 842 l 272 959 l 583 959 l 583 952 l 528 836 l 217 836 z "},"Ŏ":{"ha":966,"x_min":102,"x_max":864,"o":"m 237 512 q 283 248 237 338 q 483 102 359 102 q 682 248 608 102 q 728 512 728 340 q 682 776 728 684 q 483 922 609 922 q 283 776 357 922 q 237 512 237 684 m 167 195 q 102 512 102 315 q 167 829 102 709 q 483 1038 281 1038 q 799 829 686 1038 q 864 512 864 709 q 799 195 864 315 q 483 -14 686 -14 q 167 195 281 -14 m 317 1213 l 317 1219 l 368 1320 q 484 1230 416 1230 q 601 1320 552 1230 l 652 1219 l 652 1213 q 483 1111 583 1111 q 317 1213 378 1111 z "},"ŏ":{"ha":775,"x_min":102,"x_max":673,"o":"m 264 554 q 237 373 237 499 q 265 191 237 247 q 387 102 310 102 q 509 191 465 102 q 538 373 538 248 q 509 555 538 498 q 387 644 465 644 q 264 554 309 644 m 102 373 q 151 603 102 514 q 387 760 235 760 q 624 603 539 760 q 673 373 673 513 q 625 143 673 231 q 387 -14 538 -14 q 151 143 238 -14 q 102 373 102 231 m 217 937 l 217 944 l 267 1045 q 384 954 316 954 q 500 1045 452 954 l 552 944 l 552 937 q 382 836 483 836 q 217 937 278 836 z "},"Ő":{"ha":966,"x_min":102,"x_max":864,"o":"m 237 512 q 283 248 237 338 q 483 102 359 102 q 682 248 608 102 q 728 512 728 340 q 682 776 728 684 q 483 922 609 922 q 283 776 357 922 q 237 512 237 684 m 167 195 q 102 512 102 315 q 167 829 102 709 q 483 1038 281 1038 q 799 829 686 1038 q 864 512 864 709 q 799 195 864 315 q 483 -14 686 -14 q 167 195 281 -14 m 633 1333 l 640 1333 l 759 1276 l 609 1062 l 602 1062 l 523 1099 l 633 1333 m 445 1333 l 452 1333 l 571 1276 l 421 1062 l 414 1062 l 335 1099 l 445 1333 z "},"ő":{"ha":775,"x_min":102,"x_max":673,"o":"m 264 554 q 237 373 237 499 q 265 191 237 247 q 387 102 310 102 q 509 191 465 102 q 538 373 538 248 q 509 555 538 498 q 387 644 465 644 q 264 554 309 644 m 102 373 q 151 603 102 514 q 387 760 235 760 q 624 603 539 760 q 673 373 673 513 q 625 143 673 231 q 387 -14 538 -14 q 151 143 238 -14 q 102 373 102 231 m 522 1062 l 529 1062 l 648 1005 l 498 791 l 492 791 l 412 828 l 522 1062 m 334 1062 l 341 1062 l 460 1005 l 311 791 l 304 791 l 224 828 l 334 1062 z "},"Œ":{"ha":1408,"x_min":102,"x_max":1374,"o":"m 898 0 q 733 100 757 0 q 483 -14 632 -14 q 167 195 281 -14 q 102 512 102 315 q 167 829 102 709 q 483 1038 281 1038 q 796 833 683 1038 q 1109 1038 910 1038 l 1291 1038 l 1291 1031 l 1240 922 l 1109 922 q 910 776 983 922 q 865 570 872 700 l 1251 570 l 1251 563 l 1200 454 l 864 454 l 864 145 q 898 115 864 115 l 1165 115 q 1265 195 1245 115 l 1272 195 l 1374 146 q 1165 0 1333 0 l 898 0 m 237 512 q 283 248 237 338 q 483 102 359 102 q 682 248 608 102 q 728 512 728 340 q 682 776 728 684 q 483 922 609 922 q 283 776 357 922 q 237 512 237 684 z "},"œ":{"ha":1201,"x_min":102,"x_max":1099,"o":"m 102 373 q 151 603 102 513 q 387 760 236 760 q 605 634 523 760 q 823 760 688 760 q 1060 604 975 760 q 1094 513 1081 565 l 701 193 q 825 102 746 102 q 945 191 901 102 l 1093 256 l 1099 256 q 1061 143 1087 191 q 823 -14 975 -14 q 606 112 690 -14 q 387 -14 522 -14 q 151 143 238 -14 q 102 373 102 231 m 264 554 q 237 373 237 499 q 265 191 237 247 q 387 102 310 102 q 509 191 465 102 q 538 373 538 248 q 509 555 538 498 q 387 644 465 644 q 264 554 309 644 m 675 321 l 945 555 q 823 644 901 644 q 701 555 747 644 q 673 373 673 499 q 675 321 673 345 z "},"Ŕ":{"ha":975,"x_min":122,"x_max":873,"o":"m 258 454 l 469 454 q 652 517 597 454 q 715 682 715 589 q 650 859 715 791 q 503 922 589 922 q 304 776 378 922 q 258 512 258 685 l 258 454 m 122 -27 l 122 512 q 187 829 122 709 q 503 1038 301 1038 q 770 913 672 1038 q 850 682 850 810 q 768 464 850 565 q 637 368 715 399 l 873 29 l 754 -27 l 747 -27 l 492 339 l 258 339 l 258 34 l 129 -27 l 122 -27 m 529 1333 l 536 1333 l 655 1276 l 505 1062 l 498 1062 l 419 1099 l 529 1333 z "},"ŕ":{"ha":492,"x_min":102,"x_max":479,"o":"m 102 -27 l 102 373 q 151 603 102 514 q 387 760 235 760 l 479 760 l 479 753 l 427 644 l 387 644 q 265 555 310 644 q 237 373 237 498 l 237 34 l 109 -27 l 102 -27 m 321 1062 l 328 1062 l 447 1005 l 297 791 l 290 791 l 211 828 l 321 1062 z "},"Ŗ":{"ha":975,"x_min":122,"x_max":873,"o":"m 258 454 l 469 454 q 652 517 597 454 q 715 682 715 589 q 650 859 715 791 q 503 922 589 922 q 304 776 378 922 q 258 512 258 685 l 258 454 m 122 -27 l 122 512 q 187 829 122 709 q 503 1038 301 1038 q 770 913 672 1038 q 850 682 850 810 q 768 464 850 565 q 637 368 715 399 l 873 29 l 754 -27 l 747 -27 l 492 339 l 258 339 l 258 34 l 129 -27 l 122 -27 m 404 -305 l 397 -305 l 278 -248 l 428 -34 l 435 -34 l 514 -71 l 404 -305 z "},"ŗ":{"ha":492,"x_min":16,"x_max":479,"o":"m 102 -27 l 102 373 q 151 603 102 514 q 387 760 235 760 l 479 760 l 479 753 l 427 644 l 387 644 q 265 555 310 644 q 237 373 237 498 l 237 34 l 109 -27 l 102 -27 m 142 -305 l 136 -305 l 16 -248 l 166 -34 l 173 -34 l 252 -71 l 142 -305 z "},"Ř":{"ha":975,"x_min":122,"x_max":873,"o":"m 258 454 l 469 454 q 652 517 597 454 q 715 682 715 589 q 650 859 715 791 q 503 922 589 922 q 304 776 378 922 q 258 512 258 685 l 258 454 m 122 -27 l 122 512 q 187 829 122 709 q 503 1038 301 1038 q 770 913 672 1038 q 850 682 850 810 q 768 464 850 565 q 637 368 715 399 l 873 29 l 754 -27 l 747 -27 l 492 339 l 258 339 l 258 34 l 129 -27 l 122 -27 m 452 1062 l 308 1296 l 387 1333 l 393 1333 l 495 1192 l 595 1333 l 602 1333 l 682 1296 l 578 1119 l 459 1062 l 452 1062 z "},"ř":{"ha":492,"x_min":77,"x_max":479,"o":"m 102 -27 l 102 373 q 151 603 102 514 q 387 760 235 760 l 479 760 l 479 753 l 427 644 l 387 644 q 265 555 310 644 q 237 373 237 498 l 237 34 l 109 -27 l 102 -27 m 222 791 l 77 1025 l 156 1062 l 163 1062 l 264 921 l 365 1062 l 372 1062 l 452 1025 l 348 848 l 229 791 l 222 791 z "},"Ś":{"ha":821,"x_min":81,"x_max":739,"o":"m 81 195 q 191 248 81 195 l 198 248 q 397 102 271 102 q 553 180 484 102 q 602 324 602 237 q 559 438 602 392 q 410 513 509 492 q 230 589 307 534 q 136 768 136 656 q 224 968 136 890 q 418 1038 300 1038 q 654 883 570 1038 l 547 832 l 540 832 q 418 922 494 922 q 313 881 353 922 q 272 778 272 840 q 308 692 272 724 q 448 634 353 653 q 657 528 575 610 q 739 320 739 446 q 642 90 739 191 q 397 -14 545 -14 q 81 195 195 -14 m 475 1333 l 482 1333 l 602 1276 l 452 1062 l 445 1062 l 366 1099 l 475 1333 z "},"ś":{"ha":680,"x_min":81,"x_max":599,"o":"m 81 141 q 189 191 81 141 l 195 191 q 317 102 240 102 q 433 151 392 102 q 466 238 466 191 q 431 317 466 288 q 325 357 394 347 q 184 409 237 372 q 111 559 111 461 q 197 715 111 654 q 338 760 260 760 q 532 631 471 760 l 425 581 l 418 581 q 338 644 387 644 q 272 624 298 644 q 241 557 241 600 q 275 497 241 515 q 380 464 309 478 q 524 404 469 446 q 599 231 599 345 q 521 62 599 142 q 317 -14 447 -14 q 81 141 165 -14 m 401 1062 l 408 1062 l 527 1005 l 377 791 l 370 791 l 291 828 l 401 1062 z "},"Ŝ":{"ha":821,"x_min":81,"x_max":739,"o":"m 81 195 q 191 248 81 195 l 198 248 q 397 102 271 102 q 553 180 484 102 q 602 324 602 237 q 559 438 602 392 q 410 513 509 492 q 230 589 307 534 q 136 768 136 656 q 224 968 136 890 q 418 1038 300 1038 q 654 883 570 1038 l 547 832 l 540 832 q 418 922 494 922 q 313 881 353 922 q 272 778 272 840 q 308 692 272 724 q 448 634 353 653 q 657 528 575 610 q 739 320 739 446 q 642 90 739 191 q 397 -14 545 -14 q 81 195 195 -14 m 224 1099 l 328 1276 l 447 1333 l 454 1333 l 598 1099 l 519 1062 l 513 1062 l 411 1203 l 311 1062 l 304 1062 l 224 1099 z "},"ŝ":{"ha":680,"x_min":81,"x_max":599,"o":"m 81 141 q 189 191 81 141 l 195 191 q 317 102 240 102 q 433 151 392 102 q 466 238 466 191 q 431 317 466 288 q 325 357 394 347 q 184 409 237 372 q 111 559 111 461 q 197 715 111 654 q 338 760 260 760 q 532 631 471 760 l 425 581 l 418 581 q 338 644 387 644 q 272 624 298 644 q 241 557 241 600 q 275 497 241 515 q 380 464 309 478 q 524 404 469 446 q 599 231 599 345 q 521 62 599 142 q 317 -14 447 -14 q 81 141 165 -14 m 138 828 l 242 1005 l 361 1062 l 368 1062 l 513 828 l 434 791 l 427 791 l 326 932 l 225 791 l 218 791 l 138 828 z "},"Ş":{"ha":821,"x_min":81,"x_max":739,"o":"m 81 195 l 191 248 l 198 248 q 397 102 271 102 q 553 180 484 102 q 602 324 602 237 q 559 438 602 392 q 410 513 509 492 q 230 589 304 535 q 136 768 136 656 q 224 968 136 889 q 418 1038 300 1038 q 654 883 570 1038 l 547 832 l 540 832 q 418 922 494 922 q 313 881 352 922 q 272 778 272 840 q 308 692 272 724 q 448 634 353 653 q 657 528 577 608 q 739 320 739 446 q 642 90 739 193 q 456 -9 565 8 q 506 -140 506 -66 q 432 -305 506 -233 l 425 -305 l 296 -244 q 387 -103 387 -185 q 356 -12 387 -60 q 81 195 183 8 z "},"ş":{"ha":680,"x_min":81,"x_max":599,"o":"m 81 141 l 189 191 l 195 191 q 317 102 240 102 q 433 151 392 102 q 466 238 466 191 q 431 317 466 288 q 325 357 395 346 q 184 409 237 372 q 111 559 111 461 q 197 715 111 654 q 338 760 260 760 q 532 631 471 760 l 425 581 l 418 581 q 338 644 387 644 q 272 624 298 644 q 241 557 241 600 q 275 497 241 515 q 380 464 310 478 q 524 404 469 446 q 599 231 599 345 q 521 62 599 142 q 370 -10 463 3 q 420 -140 420 -68 q 346 -305 420 -233 l 339 -305 l 210 -244 q 301 -103 301 -185 q 268 -9 301 -58 q 81 141 151 13 z "},"Š":{"ha":821,"x_min":81,"x_max":739,"o":"m 81 195 q 191 248 81 195 l 198 248 q 397 102 271 102 q 553 180 484 102 q 602 324 602 237 q 559 438 602 392 q 410 513 509 492 q 230 589 307 534 q 136 768 136 656 q 224 968 136 890 q 418 1038 300 1038 q 654 883 570 1038 l 547 832 l 540 832 q 418 922 494 922 q 313 881 353 922 q 272 778 272 840 q 308 692 272 724 q 448 634 353 653 q 657 528 575 610 q 739 320 739 446 q 642 90 739 191 q 397 -14 545 -14 q 81 195 195 -14 m 345 1062 l 200 1296 l 279 1333 l 286 1333 l 387 1192 l 488 1333 l 494 1333 l 574 1296 l 471 1119 l 351 1062 l 345 1062 z "},"š":{"ha":680,"x_min":81,"x_max":599,"o":"m 81 141 q 189 191 81 141 l 195 191 q 317 102 240 102 q 433 151 392 102 q 466 238 466 191 q 431 317 466 288 q 325 357 394 347 q 184 409 237 372 q 111 559 111 461 q 197 715 111 654 q 338 760 260 760 q 532 631 471 760 l 425 581 l 418 581 q 338 644 387 644 q 272 624 298 644 q 241 557 241 600 q 275 497 241 515 q 380 464 309 478 q 524 404 469 446 q 599 231 599 345 q 521 62 599 142 q 317 -14 447 -14 q 81 141 165 -14 m 252 791 l 107 1025 l 186 1062 l 193 1062 l 294 921 l 395 1062 l 401 1062 l 481 1025 l 378 848 l 258 791 l 252 791 z "},"Ţ":{"ha":723,"x_min":3,"x_max":720,"o":"m 294 -27 l 294 909 l 212 909 q 112 829 132 909 l 105 829 l 3 878 q 212 1024 43 1024 l 720 1024 l 720 1017 l 669 909 l 430 909 l 429 35 q 528 -140 528 -40 q 454 -305 528 -233 l 448 -305 l 319 -244 q 410 -103 410 -185 q 367 4 410 -52 l 300 -27 l 294 -27 z "},"ţ":{"ha":511,"x_min":14,"x_max":498,"o":"m 188 -27 l 188 631 l 14 631 l 14 637 l 64 746 l 188 746 l 188 990 l 317 1051 l 323 1051 l 323 746 l 498 746 l 498 739 l 447 631 l 323 631 l 323 35 q 422 -140 422 -40 q 349 -305 422 -233 l 342 -305 l 213 -244 q 304 -103 304 -185 q 261 4 304 -52 l 195 -27 l 188 -27 z "},"Ť":{"ha":723,"x_min":3,"x_max":720,"o":"m 294 -27 l 294 909 l 212 909 q 112 829 132 909 l 105 829 l 3 878 q 212 1024 43 1024 l 720 1024 l 720 1017 l 669 909 l 430 909 l 429 34 l 300 -27 l 294 -27 m 304 1062 l 159 1296 l 238 1333 l 245 1333 l 347 1192 l 447 1333 l 454 1333 l 534 1296 l 430 1119 l 311 1062 l 304 1062 z "},"ť":{"ha":518,"x_min":14,"x_max":589,"o":"m 188 -27 l 188 631 l 14 631 l 14 637 l 64 746 l 188 746 l 188 990 l 317 1051 l 323 1051 l 323 746 l 498 746 l 498 739 l 447 631 l 323 631 l 323 34 l 195 -27 l 188 -27 m 463 1062 l 470 1062 l 589 1005 l 439 791 l 433 791 l 353 828 l 463 1062 z "},"Ŧ":{"ha":723,"x_min":3,"x_max":720,"o":"m 294 -27 l 294 378 l 166 378 l 166 385 l 217 494 l 294 494 l 294 909 l 212 909 q 112 829 132 909 l 105 829 l 3 878 q 212 1024 43 1024 l 720 1024 l 720 1017 l 669 909 l 430 909 l 430 494 l 557 494 l 557 487 l 506 378 l 429 378 l 429 34 l 300 -27 l 294 -27 z "},"ŧ":{"ha":511,"x_min":14,"x_max":498,"o":"m 188 -27 l 188 378 l 60 378 l 60 385 l 111 494 l 188 494 l 188 631 l 14 631 l 14 637 l 64 746 l 188 746 l 188 990 l 317 1051 l 323 1051 l 323 746 l 498 746 l 498 739 l 447 631 l 323 631 l 323 494 l 451 494 l 451 487 l 400 378 l 323 378 l 323 34 l 195 -27 l 188 -27 z "},"Ũ":{"ha":1000,"x_min":102,"x_max":864,"o":"m 864 1051 l 864 512 q 799 195 864 315 q 483 -14 685 -14 q 167 195 280 -14 q 102 512 102 315 q 167 829 102 706 q 406 1051 258 1001 l 412 1051 l 463 950 q 283 776 342 893 q 237 512 237 686 q 283 248 237 340 q 483 102 357 102 q 682 248 608 102 q 728 512 728 340 l 728 990 l 857 1051 l 864 1051 m 387 1111 q 483 1305 387 1305 q 576 1257 526 1305 q 627 1224 610 1224 q 650 1273 650 1224 l 724 1305 l 728 1305 q 633 1111 728 1111 q 540 1158 589 1111 q 489 1192 505 1192 q 466 1143 466 1192 l 391 1111 l 387 1111 z "},"ũ":{"ha":795,"x_min":102,"x_max":673,"o":"m 673 773 l 673 373 q 625 143 673 232 q 388 -14 540 -14 q 151 143 236 -14 q 102 373 102 233 q 151 603 102 503 q 326 773 210 727 l 333 773 l 384 672 q 266 555 302 643 q 237 373 237 484 q 266 191 237 248 q 388 102 311 102 q 510 191 465 102 q 538 373 538 248 l 538 712 l 667 773 l 673 773 m 286 836 q 382 1029 286 1029 q 475 982 425 1029 q 526 949 509 949 q 549 998 549 949 l 623 1029 l 627 1029 q 532 836 627 836 q 439 883 488 836 q 388 916 404 916 q 365 867 365 916 l 290 836 l 286 836 z "},"Ū":{"ha":1000,"x_min":102,"x_max":864,"o":"m 864 1051 l 864 512 q 799 195 864 315 q 483 -14 685 -14 q 167 195 280 -14 q 102 512 102 315 q 167 829 102 706 q 406 1051 258 1001 l 412 1051 l 463 950 q 283 776 342 893 q 237 512 237 686 q 283 248 237 340 q 483 102 357 102 q 682 248 608 102 q 728 512 728 340 l 728 990 l 857 1051 l 864 1051 m 385 1111 l 385 1118 l 439 1234 l 750 1234 l 750 1227 l 695 1111 l 385 1111 z "},"ū":{"ha":795,"x_min":102,"x_max":673,"o":"m 673 773 l 673 373 q 625 143 673 232 q 388 -14 540 -14 q 151 143 236 -14 q 102 373 102 233 q 151 603 102 503 q 326 773 210 727 l 333 773 l 384 672 q 266 555 302 643 q 237 373 237 484 q 266 191 237 248 q 388 102 311 102 q 510 191 465 102 q 538 373 538 248 l 538 712 l 667 773 l 673 773 m 271 836 l 271 842 l 326 959 l 637 959 l 637 952 l 582 836 l 271 836 z "},"Ŭ":{"ha":1000,"x_min":102,"x_max":864,"o":"m 864 1051 l 864 512 q 799 195 864 315 q 483 -14 685 -14 q 167 195 280 -14 q 102 512 102 315 q 167 829 102 706 q 406 1051 258 1001 l 412 1051 l 463 950 q 283 776 342 893 q 237 512 237 686 q 283 248 237 340 q 483 102 357 102 q 682 248 608 102 q 728 512 728 340 l 728 990 l 857 1051 l 864 1051 m 385 1213 l 385 1219 l 435 1320 q 552 1230 484 1230 q 669 1320 620 1230 l 720 1219 l 720 1213 q 551 1111 651 1111 q 385 1213 446 1111 z "},"ŭ":{"ha":795,"x_min":102,"x_max":673,"o":"m 673 773 l 673 373 q 625 143 673 232 q 388 -14 540 -14 q 151 143 236 -14 q 102 373 102 233 q 151 603 102 503 q 326 773 210 727 l 333 773 l 384 672 q 266 555 302 643 q 237 373 237 484 q 266 191 237 248 q 388 102 311 102 q 510 191 465 102 q 538 373 538 248 l 538 712 l 667 773 l 673 773 m 271 937 l 271 944 l 321 1045 q 438 954 370 954 q 555 1045 506 954 l 606 944 l 606 937 q 437 836 537 836 q 271 937 332 836 z "},"Ů":{"ha":1000,"x_min":102,"x_max":864,"o":"m 864 1051 l 864 512 q 799 195 864 315 q 483 -14 685 -14 q 167 195 280 -14 q 102 512 102 315 q 167 829 102 706 q 406 1051 258 1001 l 412 1051 l 463 950 q 283 776 342 893 q 237 512 237 686 q 283 248 237 340 q 483 102 357 102 q 682 248 608 102 q 728 512 728 340 l 728 990 l 857 1051 l 864 1051 m 637 1110 q 546 1077 600 1077 q 454 1110 492 1077 q 412 1205 412 1147 q 454 1300 412 1261 q 546 1333 490 1333 q 637 1300 600 1333 q 680 1205 680 1263 q 637 1110 680 1147 m 546 1263 q 509 1249 523 1263 q 496 1205 496 1234 q 510 1161 496 1174 q 545 1147 525 1147 q 581 1162 566 1147 q 595 1205 595 1175 q 580 1250 595 1236 q 546 1263 566 1263 z "},"ů":{"ha":795,"x_min":102,"x_max":673,"o":"m 673 773 l 673 373 q 625 143 673 232 q 388 -14 540 -14 q 151 143 236 -14 q 102 373 102 233 q 151 603 102 503 q 326 773 210 727 l 333 773 l 384 672 q 266 555 302 643 q 237 373 237 484 q 266 191 237 248 q 388 102 311 102 q 510 191 465 102 q 538 373 538 248 l 538 712 l 667 773 l 673 773 m 530 839 q 438 806 492 806 q 347 839 384 806 q 304 934 304 876 q 347 1029 304 990 q 438 1062 382 1062 q 530 1029 492 1062 q 572 934 572 991 q 530 839 572 876 m 438 991 q 401 977 415 991 q 388 934 388 963 q 402 890 388 903 q 437 876 417 876 q 473 891 458 876 q 487 934 487 904 q 472 979 487 964 q 438 991 458 991 z "},"Ű":{"ha":1000,"x_min":102,"x_max":864,"o":"m 864 1051 l 864 512 q 799 195 864 315 q 483 -14 685 -14 q 167 195 280 -14 q 102 512 102 315 q 167 829 102 706 q 406 1051 258 1001 l 412 1051 l 463 950 q 283 776 342 893 q 237 512 237 686 q 283 248 237 340 q 483 102 357 102 q 682 248 608 102 q 728 512 728 340 l 728 990 l 857 1051 l 864 1051 m 701 1333 l 707 1333 l 827 1276 l 677 1062 l 670 1062 l 591 1099 l 701 1333 m 513 1333 l 519 1333 l 639 1276 l 489 1062 l 482 1062 l 403 1099 l 513 1333 z "},"ű":{"ha":795,"x_min":102,"x_max":703,"o":"m 673 773 l 673 373 q 625 143 673 232 q 388 -14 540 -14 q 151 143 236 -14 q 102 373 102 233 q 151 603 102 503 q 326 773 210 727 l 333 773 l 384 672 q 266 555 302 643 q 237 373 237 484 q 266 191 237 248 q 388 102 311 102 q 510 191 465 102 q 538 373 538 248 l 538 712 l 667 773 l 673 773 m 576 1062 l 583 1062 l 703 1005 l 553 791 l 546 791 l 467 828 l 576 1062 m 389 1062 l 395 1062 l 515 1005 l 365 791 l 358 791 l 279 828 l 389 1062 z "},"Ų":{"ha":1000,"x_min":102,"x_max":864,"o":"m 864 1051 l 864 512 q 799 195 864 315 q 673 46 746 98 q 602 -103 602 -30 q 693 -244 602 -185 l 564 -305 l 557 -305 q 484 -140 484 -233 q 533 -10 484 -68 q 483 -14 509 -14 q 167 195 280 -14 q 102 512 102 315 q 167 829 102 706 q 406 1051 258 1001 l 412 1051 l 463 950 q 283 776 343 893 q 237 512 237 685 q 283 248 237 340 q 483 102 357 102 q 682 248 608 102 q 728 512 728 340 l 728 990 l 857 1051 l 864 1051 z "},"ų":{"ha":795,"x_min":102,"x_max":673,"o":"m 673 773 l 673 373 q 625 143 673 231 q 550 46 593 83 q 480 -103 480 -28 q 571 -244 480 -185 l 442 -305 l 435 -305 q 361 -140 361 -233 q 408 -13 361 -69 q 388 -14 398 -14 q 151 143 236 -14 q 102 373 102 233 q 151 603 102 503 q 326 773 210 727 l 333 773 l 384 672 q 266 555 302 643 q 237 373 237 484 q 266 191 237 248 q 388 102 311 102 q 510 191 465 102 q 538 373 538 248 l 538 712 l 667 773 l 673 773 z "},"Ŵ":{"ha":1592,"x_min":102,"x_max":1491,"o":"m 864 1051 l 864 512 q 910 248 864 340 q 1109 102 984 102 q 1309 248 1235 102 q 1355 512 1355 340 q 1309 776 1355 686 q 1129 950 1249 894 l 1180 1051 l 1187 1051 q 1426 829 1334 1001 q 1491 512 1491 706 q 1426 195 1491 315 q 1109 -14 1312 -14 q 796 191 910 -14 q 483 -14 682 -14 q 167 195 280 -14 q 102 512 102 315 q 167 829 102 706 q 406 1051 258 1001 l 412 1051 l 463 950 q 283 776 343 893 q 237 512 237 685 q 283 248 237 340 q 483 102 357 102 q 682 248 608 102 q 728 512 728 340 l 728 990 l 857 1051 l 864 1051 m 612 1099 l 716 1276 l 836 1333 l 842 1333 l 987 1099 l 908 1062 l 901 1062 l 800 1203 l 699 1062 l 692 1062 l 612 1099 z "},"ŵ":{"ha":1211,"x_min":102,"x_max":1109,"o":"m 673 773 l 673 373 q 701 191 673 249 q 823 102 745 102 q 945 191 901 102 q 974 373 974 249 q 945 555 974 484 q 827 672 909 643 l 878 773 l 885 773 q 1061 603 1002 727 q 1109 373 1109 500 q 1061 143 1109 233 q 823 -14 975 -14 q 606 111 688 -14 q 388 -14 523 -14 q 151 143 235 -14 q 102 373 102 233 q 151 603 102 500 q 326 773 210 727 l 333 773 l 384 672 q 266 555 302 643 q 237 373 237 484 q 266 191 237 249 q 388 102 311 102 q 510 191 465 102 q 538 373 538 248 l 538 712 l 667 773 l 673 773 m 419 828 l 523 1005 l 642 1062 l 649 1062 l 793 828 l 715 791 l 708 791 l 606 932 l 506 791 l 499 791 l 419 828 z "},"Ŷ":{"ha":930,"x_min":81,"x_max":795,"o":"m 659 -27 l 659 359 q 446 260 574 260 q 162 399 271 260 q 81 647 81 502 q 163 910 81 803 q 317 1051 232 1000 l 324 1051 l 375 950 q 280 857 316 910 q 217 647 217 764 q 284 451 217 526 q 446 376 351 376 q 599 446 537 376 q 659 606 659 515 l 659 990 l 788 1051 l 795 1051 l 795 34 l 666 -27 l 659 -27 m 319 1099 l 422 1276 l 542 1333 l 549 1333 l 693 1099 l 614 1062 l 608 1062 l 506 1203 l 406 1062 l 399 1062 l 319 1099 z "},"ŷ":{"ha":809,"x_min":102,"x_max":673,"o":"m 673 773 l 673 95 q 625 -135 673 -44 q 388 -292 541 -292 l 224 -292 l 224 -285 l 276 -176 l 388 -176 q 510 -87 473 -176 q 535 54 535 -25 q 387 -14 469 -14 q 151 143 235 -14 q 102 373 102 233 q 151 603 102 500 q 326 773 210 727 l 333 773 l 384 672 q 266 555 302 643 q 237 373 237 484 q 266 191 237 248 q 388 102 311 102 q 510 191 465 102 q 538 373 538 248 l 538 712 l 667 773 l 673 773 m 254 828 l 357 1005 l 477 1062 l 484 1062 l 628 828 l 549 791 l 543 791 l 441 932 l 340 791 l 334 791 l 254 828 z "},"Ÿ":{"ha":930,"x_min":81,"x_max":795,"o":"m 659 -27 l 659 359 q 446 260 574 260 q 162 399 271 260 q 81 647 81 502 q 163 910 81 803 q 317 1051 232 1000 l 324 1051 l 375 950 q 280 857 316 910 q 217 647 217 764 q 284 451 217 526 q 446 376 351 376 q 599 446 537 376 q 659 606 659 515 l 659 990 l 788 1051 l 795 1051 l 795 34 l 666 -27 l 659 -27 m 545 1164 q 533 1176 545 1164 q 521 1222 521 1188 q 545 1281 521 1257 q 602 1305 568 1305 q 660 1281 636 1305 q 684 1222 684 1257 q 660 1164 684 1188 q 602 1139 636 1139 q 545 1164 568 1139 m 341 1164 q 329 1176 341 1164 q 317 1222 317 1188 q 341 1281 317 1257 q 399 1305 365 1305 q 456 1281 433 1305 q 480 1222 480 1257 q 456 1164 480 1188 q 399 1139 433 1139 q 341 1164 365 1139 z "},"Ź":{"ha":819,"x_min":81,"x_max":738,"o":"m 212 0 q 81 91 81 0 q 146 265 81 168 l 557 909 l 127 909 l 127 916 l 178 1024 l 557 1024 q 692 932 692 1024 q 623 759 692 863 l 212 115 l 529 115 q 629 195 609 115 l 636 195 l 738 146 q 529 0 697 0 l 212 0 m 474 1333 l 481 1333 l 600 1276 l 450 1062 l 444 1062 l 364 1099 l 474 1333 z "},"ź":{"ha":714,"x_min":68,"x_max":646,"o":"m 199 0 q 68 91 68 0 q 153 258 68 158 l 466 631 l 113 631 l 113 637 l 164 746 l 466 746 q 597 655 597 746 q 511 491 597 593 l 199 115 l 437 115 q 538 195 517 115 l 545 195 l 646 146 q 437 0 606 0 l 199 0 m 408 1062 l 415 1062 l 534 1005 l 385 791 l 378 791 l 298 828 l 408 1062 z "},"Ż":{"ha":819,"x_min":81,"x_max":738,"o":"m 212 0 q 81 91 81 0 q 146 265 81 168 l 557 909 l 127 909 l 127 916 l 178 1024 l 557 1024 q 692 932 692 1024 q 623 759 692 863 l 212 115 l 529 115 q 629 195 609 115 l 636 195 l 738 146 q 529 0 697 0 l 212 0 m 381 1164 q 369 1176 381 1164 q 357 1222 357 1188 q 381 1281 357 1257 q 439 1305 405 1305 q 496 1281 473 1305 q 520 1222 520 1257 q 496 1164 520 1188 q 439 1139 473 1139 q 381 1164 405 1139 z "},"ż":{"ha":714,"x_min":68,"x_max":646,"o":"m 199 0 q 68 91 68 0 q 153 258 68 158 l 466 631 l 113 631 l 113 637 l 164 746 l 466 746 q 597 655 597 746 q 511 491 597 593 l 199 115 l 437 115 q 538 195 517 115 l 545 195 l 646 146 q 437 0 606 0 l 199 0 m 307 896 q 295 908 307 896 q 283 955 283 920 q 307 1013 283 989 q 365 1038 331 1038 q 422 1013 399 1038 q 446 955 446 989 q 422 896 446 920 q 365 871 399 871 q 307 896 331 871 z "},"Ž":{"ha":819,"x_min":81,"x_max":738,"o":"m 212 0 q 81 91 81 0 q 146 265 81 168 l 557 909 l 127 909 l 127 916 l 178 1024 l 557 1024 q 692 932 692 1024 q 623 759 692 863 l 212 115 l 529 115 q 629 195 609 115 l 636 195 l 738 146 q 529 0 697 0 l 212 0 m 386 1062 l 241 1296 l 320 1333 l 327 1333 l 429 1192 l 529 1333 l 536 1333 l 616 1296 l 512 1119 l 393 1062 l 386 1062 z "},"ž":{"ha":714,"x_min":68,"x_max":646,"o":"m 199 0 q 68 91 68 0 q 153 258 68 158 l 466 631 l 113 631 l 113 637 l 164 746 l 466 746 q 597 655 597 746 q 511 491 597 593 l 199 115 l 437 115 q 538 195 517 115 l 545 195 l 646 146 q 437 0 606 0 l 199 0 m 326 791 l 181 1025 l 260 1062 l 267 1062 l 368 921 l 469 1062 l 475 1062 l 555 1025 l 452 848 l 332 791 l 326 791 z "},"ſ":{"ha":581,"x_min":34,"x_max":547,"o":"m 170 -27 l 170 563 l 34 563 l 34 570 l 85 678 l 170 678 q 218 881 174 800 q 455 1038 304 1038 l 547 1038 l 547 1031 l 495 922 l 455 922 q 333 833 380 922 q 305 677 305 781 l 305 34 l 176 -27 l 170 -27 z "},"Ƒ":{"ha":766,"x_min":-28,"x_max":685,"o":"m -28 -292 l 28 -170 q 94 -94 70 -146 q 122 88 122 -33 l 122 512 q 187 829 122 708 q 503 1038 301 1038 l 685 1038 l 685 1031 l 634 922 l 503 922 q 304 776 377 922 q 259 570 266 700 l 644 570 l 644 563 l 593 454 l 258 454 l 258 88 q 209 -142 258 -52 q -28 -298 123 -298 l -28 -292 z "},"ƒ":{"ha":567,"x_min":-28,"x_max":499,"o":"m -28 -292 l 28 -170 q 94 -94 73 -144 q 122 88 122 -27 l 122 651 q 171 881 122 792 q 408 1038 256 1038 l 499 1038 l 499 1031 l 448 922 l 408 922 q 286 833 331 922 q 258 678 261 785 l 499 678 l 499 671 l 448 563 l 258 563 l 258 88 q 209 -142 258 -52 q -28 -298 123 -298 l -28 -292 z "},"Ǥ":{"ha":966,"x_min":102,"x_max":932,"o":"m 864 570 l 864 512 q 849 340 864 417 l 932 340 l 932 334 l 881 225 l 814 225 q 799 195 807 210 q 483 -14 680 -14 q 167 195 281 -14 q 102 512 102 315 q 167 829 102 709 q 483 1038 281 1038 q 799 829 686 1038 l 689 776 l 682 776 q 483 922 609 922 q 283 776 358 922 q 237 512 237 684 q 283 248 237 338 q 483 102 359 102 q 670 225 598 102 l 541 225 l 541 232 l 592 340 l 713 340 q 727 454 724 391 l 471 454 l 471 461 l 522 570 l 864 570 z "},"ǥ":{"ha":789,"x_min":102,"x_max":755,"o":"m 102 373 q 151 603 102 513 q 387 760 236 760 q 624 603 538 760 q 672 414 666 526 l 755 414 l 755 407 l 704 298 l 673 298 l 673 95 q 625 -135 673 -44 q 388 -292 541 -292 l 224 -292 l 224 -285 l 276 -176 l 388 -176 q 510 -87 473 -176 q 535 54 535 -25 q 387 -14 469 -14 q 151 143 238 -14 q 102 373 102 231 m 264 554 q 237 373 237 499 q 265 191 237 247 q 387 102 310 102 q 509 191 465 102 q 534 298 528 229 l 364 298 l 364 305 l 415 414 l 537 414 q 509 555 533 508 q 387 644 464 644 q 264 554 309 644 z "},"Ǽ":{"ha":1427,"x_min":122,"x_max":1393,"o":"m 259 570 l 747 570 q 703 776 741 700 q 503 922 629 922 q 304 776 378 922 q 259 570 266 700 m 122 -27 l 122 512 q 187 829 122 709 q 503 1038 301 1038 q 816 835 703 1038 q 1128 1038 929 1038 l 1310 1038 l 1310 1031 l 1259 922 l 1128 922 q 929 776 1002 922 q 884 570 891 700 l 1270 570 l 1270 563 l 1219 454 l 883 454 l 883 145 q 917 115 883 115 l 1184 115 q 1284 195 1264 115 l 1291 195 l 1393 146 q 1184 0 1352 0 l 917 0 q 747 145 747 0 l 747 454 l 258 454 l 258 34 l 129 -27 l 122 -27 m 838 1333 l 844 1333 l 964 1276 l 814 1062 l 807 1062 l 728 1099 l 838 1333 z "},"ǽ":{"ha":1145,"x_min":68,"x_max":1043,"o":"m 199 245 q 236 143 199 184 q 336 102 273 102 q 441 144 399 102 q 480 243 480 184 q 438 345 480 304 q 337 387 396 387 q 236 345 274 387 q 199 245 199 303 m 481 -27 l 481 68 q 336 -14 423 -13 q 138 63 209 -14 q 68 244 68 140 q 144 429 68 353 q 336 502 218 502 q 479 427 419 502 q 454 555 467 530 q 332 644 408 644 l 174 644 l 174 651 l 225 760 l 332 760 q 549 635 467 760 q 767 760 631 760 q 1004 604 918 760 q 1038 513 1025 565 l 644 193 q 768 102 690 102 q 889 191 845 102 l 1036 256 l 1043 256 q 1004 143 1031 191 q 767 -14 918 -14 q 617 37 682 -14 l 617 34 l 488 -27 l 481 -27 m 618 321 l 889 555 q 767 644 845 644 q 645 555 690 644 q 617 373 617 499 q 618 321 617 345 m 617 1062 l 624 1062 l 743 1005 l 593 791 l 587 791 l 507 828 l 617 1062 z "},"Ǿ":{"ha":966,"x_min":102,"x_max":864,"o":"m 279 -27 l 272 -27 l 201 7 l 241 92 q 167 195 200 134 q 102 512 102 315 q 167 829 102 709 q 483 1038 281 1038 q 658 989 581 1038 l 687 1051 l 694 1051 l 764 1017 l 725 932 q 799 829 766 890 q 864 512 864 709 q 799 195 864 315 q 483 -14 686 -14 q 308 35 385 -14 l 279 -27 m 237 512 q 283 248 237 336 q 300 219 292 233 l 606 878 q 483 922 553 922 q 283 776 357 922 q 237 512 237 684 m 666 806 l 360 147 q 483 102 414 102 q 682 248 608 102 q 728 512 728 340 q 682 776 728 688 q 666 806 674 791 m 554 1333 l 561 1333 l 680 1276 l 530 1062 l 524 1062 l 444 1099 l 554 1333 z "},"ǿ":{"ha":775,"x_min":102,"x_max":673,"o":"m 248 -27 l 241 -27 l 170 7 l 201 72 q 151 143 174 102 q 102 373 102 229 q 151 603 102 513 q 387 760 236 760 q 506 730 453 760 l 526 773 l 533 773 l 604 739 l 574 675 q 624 603 602 644 q 673 373 673 511 q 625 143 673 232 q 387 -14 538 -14 q 268 17 321 -14 l 248 -27 m 456 623 q 387 644 426 644 q 264 554 309 644 q 237 373 237 499 q 260 201 237 258 l 456 623 m 514 545 l 318 124 q 387 102 349 102 q 509 191 465 102 q 538 373 538 248 q 514 545 538 488 m 463 1062 l 470 1062 l 589 1005 l 439 791 l 433 791 l 353 828 l 463 1062 z "},"Ș":{"ha":821,"x_min":81,"x_max":739,"o":"m 81 195 q 191 248 81 195 l 198 248 q 397 102 271 102 q 553 180 484 102 q 602 324 602 237 q 559 438 602 392 q 410 513 509 492 q 230 589 307 534 q 136 768 136 656 q 224 968 136 890 q 418 1038 300 1038 q 654 883 570 1038 l 547 832 l 540 832 q 418 922 494 922 q 313 881 353 922 q 272 778 272 840 q 308 692 272 724 q 448 634 353 653 q 657 528 575 610 q 739 320 739 446 q 642 90 739 191 q 397 -14 545 -14 q 81 195 195 -14 m 340 -305 l 333 -305 l 214 -248 l 363 -34 l 370 -34 l 450 -71 l 340 -305 z "},"ș":{"ha":680,"x_min":81,"x_max":599,"o":"m 81 141 q 189 191 81 141 l 195 191 q 317 102 240 102 q 433 151 392 102 q 466 238 466 191 q 431 317 466 288 q 325 357 394 347 q 184 409 237 372 q 111 559 111 461 q 197 715 111 654 q 338 760 260 760 q 532 631 471 760 l 425 581 l 418 581 q 338 644 387 644 q 272 624 298 644 q 241 557 241 600 q 275 497 241 515 q 380 464 309 478 q 524 404 469 446 q 599 231 599 345 q 521 62 599 142 q 317 -14 447 -14 q 81 141 165 -14 m 247 -305 l 240 -305 l 121 -248 l 271 -34 l 277 -34 l 357 -71 l 247 -305 z "},"Ț":{"ha":723,"x_min":3,"x_max":720,"o":"m 294 -27 l 294 909 l 212 909 q 112 829 132 909 l 105 829 l 3 878 q 212 1024 43 1024 l 720 1024 l 720 1017 l 669 909 l 430 909 l 429 34 l 300 -27 l 294 -27 m 323 -305 l 317 -305 l 197 -248 l 347 -34 l 354 -34 l 433 -71 l 323 -305 z "},"ț":{"ha":511,"x_min":14,"x_max":498,"o":"m 188 -27 l 188 631 l 14 631 l 14 637 l 64 746 l 188 746 l 188 990 l 317 1051 l 323 1051 l 323 746 l 498 746 l 498 739 l 447 631 l 323 631 l 323 34 l 195 -27 l 188 -27 m 240 -305 l 233 -305 l 114 -248 l 264 -34 l 271 -34 l 350 -71 l 240 -305 z "},"ȷ":{"ha":407,"x_min":-14,"x_max":271,"o":"m -14 -292 l 41 -170 q 108 -94 81 -147 q 136 88 136 -37 l 136 712 l 264 773 l 271 773 l 271 88 q 222 -142 271 -53 q -14 -298 138 -298 l -14 -292 z "},"Δ":{"ha":772,"x_min":34,"x_max":738,"o":"m 165 0 q 34 91 34 0 q 83 295 34 155 l 316 996 l 433 1051 l 440 1051 l 688 295 q 738 91 738 156 q 607 0 738 0 l 165 0 m 165 115 l 605 115 l 387 824 l 165 115 z "},"Π":{"ha":943,"x_min":136,"x_max":807,"o":"m 136 -27 l 136 879 q 305 1024 136 1024 l 637 1024 q 807 879 807 1024 l 807 34 l 678 -27 l 671 -27 l 671 879 q 637 909 671 909 l 305 909 q 271 879 271 909 l 271 34 l 142 -27 l 136 -27 z "},"Σ":{"ha":792,"x_min":102,"x_max":758,"o":"m 233 0 q 102 91 102 0 q 178 245 102 148 l 397 525 l 199 779 q 123 933 123 876 q 254 1024 123 1024 l 639 1024 l 639 1017 l 588 909 l 254 909 l 554 525 l 233 115 l 549 115 q 650 195 629 115 q 656 195 650 195 l 758 146 q 549 0 718 0 l 233 0 z "},"Ω":{"ha":1000,"x_min":68,"x_max":932,"o":"m 427 0 l 277 0 q 68 146 109 0 l 170 195 l 176 195 q 277 115 198 115 l 317 115 l 317 181 q 117 609 117 302 q 202 880 117 758 q 500 1038 313 1038 q 798 880 685 1038 q 883 609 883 760 q 682 181 883 302 l 682 115 l 723 115 q 823 195 802 115 l 830 195 l 932 146 q 723 0 891 0 l 572 0 l 572 250 q 747 609 747 338 q 686 821 747 729 q 501 925 616 925 q 314 821 383 925 q 252 609 252 729 q 427 250 252 338 l 427 0 z "},"μ":{"ha":816,"x_min":122,"x_max":694,"o":"m 122 -305 l 122 373 q 171 603 122 500 q 347 773 230 727 l 353 773 l 404 672 q 286 555 322 643 q 258 373 258 484 q 286 191 258 248 q 408 102 331 102 q 530 191 486 102 q 558 373 558 248 l 558 712 l 687 773 l 694 773 l 694 373 q 646 143 694 231 q 408 -14 560 -14 q 258 37 322 -14 l 258 -244 l 129 -305 l 122 -305 z "},"π":{"ha":795,"x_min":136,"x_max":660,"o":"m 136 -27 l 136 601 q 305 746 136 746 l 490 746 q 660 601 660 746 l 660 34 l 531 -27 l 524 -27 l 524 601 q 490 631 524 631 l 305 631 q 271 601 271 631 l 271 34 l 142 -27 l 136 -27 z "},"Ḃ":{"ha":947,"x_min":122,"x_max":846,"o":"m 292 0 q 122 145 122 0 l 122 512 q 187 829 122 709 q 503 1038 301 1038 q 694 975 617 1038 q 784 774 784 901 q 681 580 784 657 q 747 537 714 566 q 846 313 846 447 q 759 93 846 179 q 503 0 665 0 l 292 0 m 503 513 l 258 513 l 258 512 l 258 145 q 292 115 258 115 l 503 115 q 665 182 602 115 q 710 309 710 230 q 666 444 710 393 q 503 513 606 513 m 264 628 l 503 628 q 612 672 571 628 q 649 777 649 712 q 610 882 649 842 q 503 922 571 922 q 304 776 378 922 q 264 628 275 718 m 413 1164 q 401 1176 413 1164 q 389 1222 389 1188 q 413 1281 389 1257 q 471 1305 437 1305 q 528 1281 505 1305 q 552 1222 552 1257 q 528 1164 552 1188 q 471 1139 505 1139 q 413 1164 437 1139 z "},"ḃ":{"ha":795,"x_min":122,"x_max":694,"o":"m 258 373 q 286 191 258 245 q 408 102 332 102 q 530 191 484 102 q 558 373 558 248 q 530 555 558 498 q 408 644 485 644 q 285 553 330 644 q 258 373 258 498 m 258 689 q 408 760 325 760 q 644 603 559 760 q 694 373 694 513 q 645 143 694 232 q 408 -14 559 -14 q 171 143 258 -14 q 122 373 122 231 l 122 990 l 251 1051 l 258 1051 l 258 689 m 403 896 q 391 908 403 896 q 379 955 379 920 q 403 1013 379 989 q 460 1038 427 1038 q 518 1013 494 1038 q 542 955 542 989 q 518 896 542 920 q 460 871 494 871 q 403 896 427 871 z "},"Ḋ":{"ha":986,"x_min":122,"x_max":884,"o":"m 292 0 q 122 145 122 0 l 122 512 q 187 829 122 709 q 503 1038 301 1038 q 819 829 706 1038 q 884 512 884 709 q 818 213 884 342 q 503 0 708 0 l 292 0 m 503 115 q 701 266 630 115 q 749 512 749 366 q 703 776 749 684 q 503 922 629 922 q 304 776 378 922 q 258 512 258 685 l 258 145 q 292 115 258 115 l 503 115 m 427 1164 q 415 1176 427 1164 q 404 1222 404 1188 q 427 1281 404 1257 q 485 1305 451 1305 q 543 1281 519 1305 q 566 1222 566 1257 q 543 1164 566 1188 q 485 1139 519 1139 q 427 1164 451 1139 z "},"ḋ":{"ha":795,"x_min":102,"x_max":673,"o":"m 102 373 q 151 603 102 514 q 387 760 235 760 q 538 688 475 760 l 538 990 l 667 1051 l 673 1051 l 673 373 q 625 143 673 232 q 387 -14 538 -14 q 151 143 238 -14 q 102 373 102 231 m 237 373 q 265 191 237 245 q 387 102 311 102 q 509 191 464 102 q 538 373 538 248 q 509 555 538 498 q 387 644 465 644 q 265 553 310 644 q 237 373 237 497 m 258 896 q 247 908 258 896 q 235 955 235 920 q 258 1013 235 989 q 316 1038 282 1038 q 374 1013 350 1038 q 397 955 397 989 q 374 896 397 920 q 316 871 350 871 q 258 896 282 871 z "},"Ḟ":{"ha":753,"x_min":122,"x_max":685,"o":"m 122 -27 l 122 512 q 187 829 122 710 q 503 1038 301 1038 l 685 1038 l 685 1031 l 634 922 l 503 922 q 304 776 377 922 q 259 570 266 700 l 644 570 l 644 563 l 593 454 l 258 454 l 258 34 q 129 -27 258 34 l 122 -27 m 342 1164 q 331 1176 342 1164 q 319 1222 319 1188 q 342 1281 319 1257 q 400 1305 366 1305 q 458 1281 434 1305 q 481 1222 481 1257 q 458 1164 481 1188 q 400 1139 434 1139 q 342 1164 366 1139 z "},"ḟ":{"ha":567,"x_min":122,"x_max":499,"o":"m 122 -27 l 122 651 q 171 881 122 792 q 408 1038 256 1038 l 499 1038 l 499 1031 l 448 922 l 408 922 q 286 833 331 922 q 258 678 261 785 l 499 678 l 499 671 l 448 563 l 258 563 l 258 34 l 129 -27 l 122 -27 m 254 1164 q 242 1176 254 1164 q 231 1222 231 1188 q 254 1281 231 1257 q 312 1305 278 1305 q 370 1281 346 1305 q 393 1222 393 1257 q 370 1164 393 1188 q 312 1139 346 1139 q 254 1164 278 1139 z "},"Ṁ":{"ha":1592,"x_min":102,"x_max":1491,"o":"m 728 -27 l 728 512 q 682 776 728 684 q 483 922 608 922 q 283 776 357 922 q 237 512 237 684 q 283 248 237 338 q 463 74 344 130 l 412 -27 l 406 -27 q 167 195 258 23 q 102 512 102 318 q 167 829 102 709 q 483 1038 280 1038 q 796 833 682 1038 q 1109 1038 910 1038 q 1426 829 1312 1038 q 1491 512 1491 709 q 1426 195 1491 318 q 1187 -27 1334 23 l 1180 -27 l 1129 74 q 1309 248 1249 131 q 1355 512 1355 339 q 1309 776 1355 684 q 1109 922 1235 922 q 910 776 984 922 q 864 512 864 684 l 864 34 l 735 -27 l 728 -27 m 760 1164 q 748 1176 760 1164 q 736 1222 736 1188 q 760 1281 736 1257 q 818 1305 784 1305 q 876 1281 852 1305 q 899 1222 899 1257 q 876 1164 899 1188 q 818 1139 852 1139 q 760 1164 784 1139 z "},"ṁ":{"ha":1211,"x_min":102,"x_max":1109,"o":"m 538 -27 l 538 373 q 510 555 538 497 q 388 644 467 644 q 266 555 311 644 q 237 373 237 497 q 266 191 237 262 q 384 74 302 103 l 333 -27 l 326 -27 q 151 143 210 19 q 102 373 102 245 q 151 603 102 513 q 388 760 236 760 q 606 635 523 760 q 823 760 688 760 q 1061 603 975 760 q 1109 373 1109 513 q 1061 143 1109 243 q 885 -27 1002 19 l 878 -27 l 827 74 q 945 191 909 103 q 974 373 974 262 q 945 555 974 497 q 823 644 901 644 q 701 555 746 644 q 673 373 673 498 l 673 34 l 545 -27 l 538 -27 m 546 896 q 534 908 546 896 q 522 955 522 920 q 546 1013 522 989 q 604 1038 570 1038 q 661 1013 637 1038 q 685 955 685 989 q 661 896 685 920 q 604 871 637 871 q 546 896 570 871 z "},"Ṗ":{"ha":932,"x_min":122,"x_max":850,"o":"m 122 -27 l 122 512 q 187 829 122 709 q 503 1038 301 1038 q 770 913 672 1038 q 850 682 850 810 q 768 464 850 565 q 469 339 667 339 l 258 339 l 258 34 l 129 -27 l 122 -27 m 258 454 l 469 454 q 652 517 597 454 q 715 682 715 589 q 650 859 715 791 q 503 922 589 922 q 304 776 378 922 q 258 512 258 685 l 258 454 m 427 1164 q 415 1176 427 1164 q 404 1222 404 1188 q 427 1281 404 1257 q 485 1305 451 1305 q 543 1281 519 1305 q 566 1222 566 1257 q 543 1164 566 1188 q 485 1139 519 1139 q 427 1164 451 1139 z "},"ṗ":{"ha":789,"x_min":115,"x_max":687,"o":"m 279 554 q 252 373 252 499 q 279 191 252 247 q 401 102 324 102 q 524 191 479 102 q 552 373 552 248 q 524 555 552 498 q 401 644 479 644 q 279 554 323 644 m 115 -305 l 115 373 q 164 603 115 514 q 401 760 250 760 q 638 603 551 760 q 687 373 687 515 q 639 143 687 232 q 401 -14 553 -14 q 251 58 313 -14 l 251 -244 l 122 -305 l 115 -305 m 363 896 q 351 908 363 896 q 339 955 339 920 q 363 1013 339 989 q 420 1038 387 1038 q 478 1013 454 1038 q 502 955 502 989 q 478 896 502 920 q 420 871 454 871 q 363 896 387 871 z "},"Ṡ":{"ha":821,"x_min":81,"x_max":739,"o":"m 81 195 q 191 248 81 195 l 198 248 q 397 102 271 102 q 553 180 484 102 q 602 324 602 237 q 559 438 602 392 q 410 513 509 492 q 230 589 307 534 q 136 768 136 656 q 224 968 136 890 q 418 1038 300 1038 q 654 883 570 1038 l 547 832 l 540 832 q 418 922 494 922 q 313 881 353 922 q 272 778 272 840 q 308 692 272 724 q 448 634 353 653 q 657 528 575 610 q 739 320 739 446 q 642 90 739 191 q 397 -14 545 -14 q 81 195 195 -14 m 347 1164 q 335 1176 347 1164 q 323 1222 323 1188 q 347 1281 323 1257 q 404 1305 370 1305 q 462 1281 438 1305 q 486 1222 486 1257 q 462 1164 486 1188 q 404 1139 438 1139 q 347 1164 370 1139 z "},"ṡ":{"ha":680,"x_min":81,"x_max":599,"o":"m 81 141 q 189 191 81 141 l 195 191 q 317 102 240 102 q 433 151 392 102 q 466 238 466 191 q 431 317 466 288 q 325 357 394 347 q 184 409 237 372 q 111 559 111 461 q 197 715 111 654 q 338 760 260 760 q 532 631 471 760 l 425 581 l 418 581 q 338 644 387 644 q 272 624 298 644 q 241 557 241 600 q 275 497 241 515 q 380 464 309 478 q 524 404 469 446 q 599 231 599 345 q 521 62 599 142 q 317 -14 447 -14 q 81 141 165 -14 m 271 896 q 259 908 271 896 q 247 955 247 920 q 271 1013 247 989 q 328 1038 294 1038 q 386 1013 362 1038 q 410 955 410 989 q 386 896 410 920 q 328 871 362 871 q 271 896 294 871 z "},"Ṫ":{"ha":723,"x_min":3,"x_max":720,"o":"m 294 -27 l 294 909 l 212 909 q 112 829 132 909 l 105 829 l 3 878 q 212 1024 43 1024 l 720 1024 l 720 1017 l 669 909 l 430 909 l 429 34 l 300 -27 l 294 -27 m 299 1164 q 287 1176 299 1164 q 275 1222 275 1188 q 299 1281 275 1257 q 357 1305 323 1305 q 414 1281 391 1305 q 438 1222 438 1257 q 414 1164 438 1188 q 357 1139 391 1139 q 299 1164 323 1139 z "},"ṫ":{"ha":511,"x_min":14,"x_max":498,"o":"m 188 -27 l 188 631 l 14 631 l 14 637 l 64 746 l 188 746 l 188 990 l 317 1051 l 323 1051 l 323 746 l 498 746 l 498 739 l 447 631 l 323 631 l 323 34 l 195 -27 l 188 -27 m 201 1164 q 190 1176 201 1164 q 178 1222 178 1188 q 201 1281 178 1257 q 259 1305 225 1305 q 317 1281 293 1305 q 340 1222 340 1257 q 317 1164 340 1188 q 259 1139 293 1139 q 201 1164 225 1139 z "},"Ẁ":{"ha":1592,"x_min":102,"x_max":1491,"o":"m 864 1051 l 864 512 q 910 248 864 340 q 1109 102 984 102 q 1309 248 1235 102 q 1355 512 1355 340 q 1309 776 1355 686 q 1129 950 1249 894 l 1180 1051 l 1187 1051 q 1426 829 1334 1001 q 1491 512 1491 706 q 1426 195 1491 315 q 1109 -14 1312 -14 q 796 191 910 -14 q 483 -14 682 -14 q 167 195 280 -14 q 102 512 102 315 q 167 829 102 706 q 406 1051 258 1001 l 412 1051 l 463 950 q 283 776 343 893 q 237 512 237 685 q 283 248 237 340 q 483 102 357 102 q 682 248 608 102 q 728 512 728 340 l 728 990 l 857 1051 l 864 1051 m 713 1333 l 720 1333 l 829 1099 l 750 1062 l 743 1062 l 593 1276 l 713 1333 z "},"ẁ":{"ha":1211,"x_min":102,"x_max":1109,"o":"m 673 773 l 673 373 q 701 191 673 249 q 823 102 745 102 q 945 191 901 102 q 974 373 974 249 q 945 555 974 484 q 827 672 909 643 l 878 773 l 885 773 q 1061 603 1002 727 q 1109 373 1109 500 q 1061 143 1109 233 q 823 -14 975 -14 q 606 111 688 -14 q 388 -14 523 -14 q 151 143 235 -14 q 102 373 102 233 q 151 603 102 500 q 326 773 210 727 l 333 773 l 384 672 q 266 555 302 643 q 237 373 237 484 q 266 191 237 249 q 388 102 311 102 q 510 191 465 102 q 538 373 538 248 l 538 712 l 667 773 l 673 773 m 562 1062 l 569 1062 l 679 828 l 600 791 l 593 791 l 443 1005 l 562 1062 z "},"Ẃ":{"ha":1592,"x_min":102,"x_max":1491,"o":"m 864 1051 l 864 512 q 910 248 864 340 q 1109 102 984 102 q 1309 248 1235 102 q 1355 512 1355 340 q 1309 776 1355 686 q 1129 950 1249 894 l 1180 1051 l 1187 1051 q 1426 829 1334 1001 q 1491 512 1491 706 q 1426 195 1491 315 q 1109 -14 1312 -14 q 796 191 910 -14 q 483 -14 682 -14 q 167 195 280 -14 q 102 512 102 315 q 167 829 102 706 q 406 1051 258 1001 l 412 1051 l 463 950 q 283 776 343 893 q 237 512 237 685 q 283 248 237 340 q 483 102 357 102 q 682 248 608 102 q 728 512 728 340 l 728 990 l 857 1051 l 864 1051 m 850 1333 l 857 1333 l 976 1276 l 826 1062 l 819 1062 l 740 1099 l 850 1333 z "},"ẃ":{"ha":1211,"x_min":102,"x_max":1109,"o":"m 673 773 l 673 373 q 701 191 673 249 q 823 102 745 102 q 945 191 901 102 q 974 373 974 249 q 945 555 974 484 q 827 672 909 643 l 878 773 l 885 773 q 1061 603 1002 727 q 1109 373 1109 500 q 1061 143 1109 233 q 823 -14 975 -14 q 606 111 688 -14 q 388 -14 523 -14 q 151 143 235 -14 q 102 373 102 233 q 151 603 102 500 q 326 773 210 727 l 333 773 l 384 672 q 266 555 302 643 q 237 373 237 484 q 266 191 237 249 q 388 102 311 102 q 510 191 465 102 q 538 373 538 248 l 538 712 l 667 773 l 673 773 m 622 1062 l 629 1062 l 748 1005 l 598 791 l 591 791 l 512 828 l 622 1062 z "},"Ẅ":{"ha":1592,"x_min":102,"x_max":1491,"o":"m 864 1051 l 864 512 q 910 248 864 340 q 1109 102 984 102 q 1309 248 1235 102 q 1355 512 1355 340 q 1309 776 1355 686 q 1129 950 1249 894 l 1180 1051 l 1187 1051 q 1426 829 1334 1001 q 1491 512 1491 706 q 1426 195 1491 315 q 1109 -14 1312 -14 q 796 191 910 -14 q 483 -14 682 -14 q 167 195 280 -14 q 102 512 102 315 q 167 829 102 706 q 406 1051 258 1001 l 412 1051 l 463 950 q 283 776 343 893 q 237 512 237 685 q 283 248 237 340 q 483 102 357 102 q 682 248 608 102 q 728 512 728 340 l 728 990 l 857 1051 l 864 1051 m 857 1164 q 845 1176 857 1164 q 833 1222 833 1188 q 857 1281 833 1257 q 914 1305 880 1305 q 972 1281 948 1305 q 996 1222 996 1257 q 972 1164 996 1188 q 914 1139 948 1139 q 857 1164 880 1139 m 653 1164 q 641 1176 653 1164 q 629 1222 629 1188 q 653 1281 629 1257 q 711 1305 677 1305 q 768 1281 745 1305 q 792 1222 792 1257 q 768 1164 792 1188 q 711 1139 745 1139 q 653 1164 677 1139 z "},"ẅ":{"ha":1211,"x_min":102,"x_max":1109,"o":"m 673 773 l 673 373 q 701 191 673 249 q 823 102 745 102 q 945 191 901 102 q 974 373 974 249 q 945 555 974 484 q 827 672 909 643 l 878 773 l 885 773 q 1061 603 1002 727 q 1109 373 1109 500 q 1061 143 1109 233 q 823 -14 975 -14 q 606 111 688 -14 q 388 -14 523 -14 q 151 143 235 -14 q 102 373 102 233 q 151 603 102 500 q 326 773 210 727 l 333 773 l 384 672 q 266 555 302 643 q 237 373 237 484 q 266 191 237 249 q 388 102 311 102 q 510 191 465 102 q 538 373 538 248 l 538 712 l 667 773 l 673 773 m 635 896 q 624 908 635 896 q 612 955 612 920 q 635 1013 612 989 q 693 1038 659 1038 q 751 1013 727 1038 q 774 955 774 989 q 751 896 774 920 q 693 871 727 871 q 635 896 659 871 m 432 896 q 420 908 432 896 q 408 955 408 920 q 432 1013 408 989 q 490 1038 456 1038 q 547 1013 524 1038 q 571 955 571 989 q 547 896 571 920 q 490 871 524 871 q 432 896 456 871 z "},"Ỳ":{"ha":930,"x_min":81,"x_max":795,"o":"m 659 -27 l 659 359 q 446 260 574 260 q 162 399 271 260 q 81 647 81 502 q 163 910 81 803 q 317 1051 232 1000 l 324 1051 l 375 950 q 280 857 316 910 q 217 647 217 764 q 284 451 217 526 q 446 376 351 376 q 599 446 537 376 q 659 606 659 515 l 659 990 l 788 1051 l 795 1051 l 795 34 l 666 -27 l 659 -27 m 472 1333 l 479 1333 l 589 1099 l 509 1062 l 503 1062 l 353 1276 l 472 1333 z "},"ỳ":{"ha":795,"x_min":102,"x_max":673,"o":"m 673 773 l 673 95 q 625 -135 673 -44 q 388 -292 541 -292 l 224 -292 l 224 -285 l 276 -176 l 388 -176 q 510 -87 473 -176 q 535 54 535 -25 q 387 -14 469 -14 q 151 143 235 -14 q 102 373 102 233 q 151 603 102 500 q 326 773 210 727 l 333 773 l 384 672 q 266 555 302 643 q 237 373 237 484 q 266 191 237 248 q 388 102 311 102 q 510 191 465 102 q 538 373 538 248 l 538 712 l 667 773 l 673 773 m 389 1062 l 395 1062 l 505 828 l 426 791 l 419 791 l 269 1005 l 389 1062 z "},"‐":{"ha":823,"x_min":153,"x_max":671,"o":"m 153 450 l 153 457 l 208 574 l 671 574 l 671 567 l 616 450 l 153 450 z "},"‑":{"ha":823,"x_min":153,"x_max":671,"o":"m 153 450 l 153 457 l 208 574 l 671 574 l 671 567 l 616 450 l 153 450 z "},"‒":{"ha":823,"x_min":102,"x_max":722,"o":"m 102 450 l 102 457 l 157 574 l 722 574 l 722 567 l 667 450 l 102 450 z "},"–":{"ha":823,"x_min":102,"x_max":722,"o":"m 102 450 l 102 457 l 157 574 l 722 574 l 722 567 l 667 450 l 102 450 z "},"—":{"ha":823,"x_min":17,"x_max":806,"o":"m 17 450 l 17 457 l 72 574 l 806 574 l 806 567 l 751 450 l 17 450 z "},"―":{"ha":823,"x_min":17,"x_max":806,"o":"m 17 450 l 17 457 l 72 574 l 806 574 l 806 567 l 751 450 l 17 450 z "},"‗":{"ha":823,"x_min":102,"x_max":722,"o":"m 102 -123 l 102 -117 l 157 0 l 722 0 l 722 -7 l 667 -123 l 102 -123 m 102 -278 l 102 -271 l 157 -155 l 722 -155 l 722 -161 l 667 -278 l 102 -278 z "},"‘":{"ha":413,"x_min":102,"x_max":311,"o":"m 268 1051 l 297 1017 q 220 871 220 939 q 311 730 220 789 l 182 669 l 176 669 q 102 834 102 741 q 268 1051 102 964 z "},"’":{"ha":413,"x_min":102,"x_max":311,"o":"m 231 1051 l 237 1051 q 311 886 311 979 q 145 669 311 756 l 116 703 q 193 849 193 781 q 102 990 193 931 l 231 1051 z "},"‚":{"ha":413,"x_min":102,"x_max":311,"o":"m 231 189 l 237 189 q 311 23 311 116 q 145 -194 311 -106 l 116 -160 q 193 -14 193 -82 q 102 127 193 68 l 231 189 z "},"‛":{"ha":413,"x_min":102,"x_max":311,"o":"m 176 1051 l 182 1051 l 311 990 q 220 849 220 931 q 297 703 220 781 l 268 669 q 102 886 102 756 q 176 1051 102 979 z "},"“":{"ha":627,"x_min":102,"x_max":525,"o":"m 268 1051 l 297 1017 q 220 871 220 939 q 311 730 220 789 l 182 669 l 176 669 q 102 834 102 741 q 268 1051 102 964 m 481 1051 l 511 1017 q 434 871 434 939 q 525 730 434 789 l 396 669 l 389 669 q 315 834 315 741 q 481 1051 315 964 z "},"”":{"ha":627,"x_min":102,"x_max":525,"o":"m 444 1051 l 451 1051 q 525 886 525 979 q 359 669 525 756 l 330 703 q 406 849 406 781 q 315 990 406 931 l 444 1051 m 231 1051 l 237 1051 q 311 886 311 979 q 145 669 311 756 l 116 703 q 193 849 193 781 q 102 990 193 931 l 231 1051 z "},"„":{"ha":627,"x_min":102,"x_max":525,"o":"m 444 189 l 451 189 q 525 23 525 116 q 359 -194 525 -106 l 330 -160 q 406 -14 406 -82 q 315 127 406 68 l 444 189 m 231 189 l 237 189 q 311 23 311 116 q 145 -194 311 -106 l 116 -160 q 193 -14 193 -82 q 102 127 193 68 l 231 189 z "},"‟":{"ha":627,"x_min":102,"x_max":525,"o":"m 176 1051 q 182 1051 176 1051 l 311 990 q 220 849 220 931 q 297 703 220 781 l 268 669 q 102 886 102 756 q 176 1051 102 979 m 389 1051 l 396 1051 l 525 990 q 434 849 434 931 q 511 703 434 781 l 481 669 q 315 886 315 756 q 389 1051 315 979 z "},"†":{"ha":823,"x_min":102,"x_max":722,"o":"m 351 -27 l 344 -27 l 344 675 l 102 675 l 102 682 l 157 799 l 344 799 l 344 990 l 473 1051 l 479 1051 l 479 799 l 722 799 l 722 792 l 667 675 l 479 675 l 479 34 l 351 -27 z "},"‡":{"ha":823,"x_min":102,"x_max":722,"o":"m 351 -27 l 344 -27 l 344 225 l 102 225 l 102 232 l 157 349 l 344 349 l 344 675 l 102 675 l 102 682 l 157 799 l 344 799 l 344 990 l 473 1051 l 479 1051 l 479 799 l 722 799 l 722 792 l 667 675 l 479 675 l 479 349 l 722 349 l 722 342 l 667 225 l 479 225 l 479 34 l 351 -27 z "},"•":{"ha":704,"x_min":102,"x_max":602,"o":"m 102 513 q 182 715 102 629 q 352 783 245 783 q 522 715 458 783 q 602 511 602 629 q 522 308 602 393 q 352 240 458 240 q 182 308 245 240 q 102 513 102 393 z "},"‣":{"ha":629,"x_min":136,"x_max":562,"o":"m 136 245 l 136 774 l 562 519 l 136 245 z "},"․":{"ha":407,"x_min":122,"x_max":285,"o":"m 146 11 q 134 23 146 11 q 122 70 122 35 q 146 128 122 104 q 203 153 170 153 q 261 128 237 153 q 285 70 285 104 q 261 11 285 35 q 203 -14 237 -14 q 146 11 170 -14 z "},"‥":{"ha":635,"x_min":122,"x_max":513,"o":"m 374 11 q 362 23 374 11 q 350 70 350 35 q 374 128 350 104 q 431 153 397 153 q 489 128 465 153 q 513 70 513 104 q 489 11 513 35 q 431 -14 465 -14 q 374 11 397 -14 m 146 11 q 134 23 146 11 q 122 70 122 35 q 146 128 122 104 q 203 153 170 153 q 261 128 237 153 q 285 70 285 104 q 261 11 285 35 q 203 -14 237 -14 q 146 11 170 -14 z "},"…":{"ha":863,"x_min":122,"x_max":741,"o":"m 602 11 q 590 23 602 11 q 578 70 578 35 q 602 128 578 104 q 659 153 625 153 q 717 128 693 153 q 741 70 741 104 q 717 11 741 35 q 659 -14 693 -14 q 602 11 625 -14 m 374 11 q 362 23 374 11 q 350 70 350 35 q 374 128 350 104 q 431 153 397 153 q 489 128 465 153 q 513 70 513 104 q 489 11 513 35 q 431 -14 465 -14 q 374 11 397 -14 m 146 11 q 134 23 146 11 q 122 70 122 35 q 146 128 122 104 q 203 153 170 153 q 261 128 237 153 q 285 70 285 104 q 261 11 285 35 q 203 -14 237 -14 q 146 11 170 -14 z "},"‧":{"ha":407,"x_min":122,"x_max":285,"o":"m 146 452 q 134 465 146 452 q 122 511 122 477 q 146 570 122 545 q 203 594 170 594 q 261 570 237 594 q 285 511 285 545 q 261 452 285 477 q 203 428 237 428 q 146 452 170 428 z "},"‰":{"ha":1968,"x_min":102,"x_max":1866,"o":"m 1733 258 q 1695 393 1733 345 q 1616 429 1666 429 q 1538 393 1569 429 q 1499 258 1499 347 q 1538 122 1499 168 q 1616 86 1569 86 q 1695 122 1665 86 q 1733 258 1733 168 m 1366 260 q 1446 461 1366 376 q 1616 529 1510 529 q 1786 461 1722 529 q 1866 258 1866 378 q 1786 54 1866 141 q 1616 -14 1723 -14 q 1446 54 1510 -14 q 1366 260 1366 140 m 469 766 q 431 902 469 854 q 352 938 402 938 q 274 902 304 938 q 235 766 235 856 q 274 631 235 675 q 352 595 305 595 q 431 631 401 595 q 469 766 469 676 m 102 768 q 182 970 102 884 q 352 1038 245 1038 q 522 970 458 1038 q 602 766 602 884 q 522 563 602 648 q 352 495 458 495 q 182 563 245 495 q 102 768 102 648 m 1156 258 q 1118 393 1156 345 q 1040 429 1090 429 q 962 393 992 429 q 922 258 922 347 q 962 122 922 168 q 1040 86 993 86 q 1118 122 1088 86 q 1156 258 1156 168 m 789 260 q 869 461 789 376 q 1040 529 933 529 q 1210 461 1145 529 q 1290 258 1290 378 q 1210 54 1290 141 q 1040 -14 1146 -14 q 869 54 933 -14 q 789 260 789 140 m 503 -27 l 408 19 l 888 1051 l 895 1051 l 991 1005 l 510 -27 l 503 -27 z "},"′":{"ha":461,"x_min":102,"x_max":359,"o":"m 233 1051 l 240 1051 l 359 994 l 188 718 l 181 718 l 102 755 l 233 1051 z "},"″":{"ha":677,"x_min":102,"x_max":575,"o":"m 449 1051 l 456 1051 l 575 994 l 404 718 l 397 718 l 317 755 l 449 1051 m 233 1051 l 240 1051 l 359 994 l 188 718 l 181 718 l 102 755 l 233 1051 z "},"‴":{"ha":892,"x_min":102,"x_max":791,"o":"m 665 1051 l 671 1051 l 791 994 l 619 718 l 612 718 l 533 755 l 665 1051 m 449 1051 l 456 1051 l 575 994 l 404 718 l 397 718 l 317 755 l 449 1051 m 233 1051 l 240 1051 l 359 994 l 188 718 l 181 718 l 102 755 l 233 1051 z "},"‵":{"ha":461,"x_min":102,"x_max":359,"o":"m 221 1051 l 228 1051 l 359 755 l 280 718 l 273 718 l 102 994 l 221 1051 z "},"‶":{"ha":677,"x_min":102,"x_max":575,"o":"m 221 1051 l 228 1051 l 359 755 l 280 718 l 273 718 l 102 994 l 221 1051 m 437 1051 l 444 1051 l 575 755 l 496 718 l 489 718 l 317 994 l 437 1051 z "},"‷":{"ha":892,"x_min":102,"x_max":791,"o":"m 228 1051 l 359 755 l 280 718 l 273 718 l 102 994 l 221 1051 l 228 1051 m 437 1051 l 444 1051 l 575 755 l 496 718 l 489 718 l 317 994 l 437 1051 m 652 1051 l 659 1051 l 791 755 l 711 718 l 705 718 l 533 994 l 652 1051 z "},"‹":{"ha":558,"x_min":102,"x_max":422,"o":"m 298 206 l 102 537 l 298 871 l 304 871 l 422 815 l 258 539 l 422 262 l 304 206 l 298 206 z "},"›":{"ha":558,"x_min":136,"x_max":456,"o":"m 260 206 l 254 206 l 136 262 l 300 539 l 136 815 l 254 871 l 260 871 l 456 537 l 260 206 z "},"⁃":{"ha":802,"x_min":102,"x_max":701,"o":"m 463 827 l 463 625 l 591 699 l 697 625 l 701 619 l 524 517 l 701 416 l 697 410 l 591 336 l 463 410 l 463 262 l 346 208 l 339 208 l 339 410 l 211 336 l 105 410 l 102 416 l 277 517 l 102 619 l 105 625 l 211 699 l 339 625 l 339 772 l 456 827 l 463 827 z "},"⁄":{"ha":661,"x_min":7,"x_max":654,"o":"m 102 -95 l 7 -49 l 551 1119 l 557 1119 l 654 1073 l 109 -95 l 102 -95 z "},"€":{"ha":1073,"x_min":102,"x_max":971,"o":"m 722 467 l 722 460 l 667 344 l 378 344 q 410 248 389 288 q 609 102 486 102 q 808 248 734 102 l 964 321 l 971 321 q 925 195 958 256 q 609 -14 811 -14 q 293 195 408 -14 q 242 344 258 258 l 102 344 l 102 351 l 157 467 l 229 467 q 228 512 228 489 q 229 562 228 537 l 102 562 l 102 568 l 157 685 l 243 685 q 293 829 260 767 q 609 1038 406 1038 q 925 829 812 1038 l 815 776 l 808 776 q 609 922 735 922 q 410 776 481 922 q 379 685 391 737 l 722 685 l 722 678 l 667 562 l 365 562 q 363 512 363 538 q 364 467 363 489 l 722 467 z "},"℅":{"ha":1171,"x_min":102,"x_max":1069,"o":"m 688 433 q 861 545 749 545 q 1034 433 973 545 q 1069 267 1069 370 q 1034 100 1069 165 q 861 -14 972 -14 q 688 100 750 -14 q 654 267 654 165 q 688 433 654 370 m 946 391 q 861 454 913 454 q 777 391 809 454 q 755 267 755 349 q 777 142 755 184 q 863 79 809 79 q 946 142 914 79 q 967 267 967 184 q 946 391 967 349 m 509 675 q 482 590 501 629 q 309 479 427 479 q 136 593 198 479 q 102 759 102 657 q 136 925 102 862 q 309 1038 197 1038 q 490 909 428 1038 l 416 873 l 399 873 q 312 947 367 947 q 224 883 257 947 q 203 759 203 841 q 224 635 203 676 q 311 571 257 571 q 394 635 361 571 l 481 675 l 509 675 m 389 -27 l 294 19 l 774 1051 l 781 1051 l 877 1005 l 396 -27 l 389 -27 z "},"ℓ":{"ha":751,"x_min":102,"x_max":616,"o":"m 366 456 q 445 666 407 540 q 494 942 494 830 q 416 745 459 885 q 366 456 366 581 m 102 0 q 231 201 170 99 q 225 301 225 248 q 245 497 225 401 q 391 979 326 904 q 522 1038 442 1038 q 583 1016 557 1038 q 616 907 616 989 q 595 741 616 845 q 354 184 548 503 q 414 79 376 79 q 443 95 427 79 q 486 155 464 117 l 605 155 q 509 27 553 68 q 408 -14 465 -14 q 273 55 321 -14 l 238 0 l 102 0 z "},"™":{"ha":1306,"x_min":102,"x_max":1171,"o":"m 608 478 q 477 598 527 505 q 443 765 443 663 q 477 931 443 867 q 650 1044 539 1044 q 807 958 747 1044 q 964 1044 867 1044 q 1137 931 1077 1044 q 1171 765 1171 865 q 1137 598 1171 663 q 1005 478 1088 507 l 988 478 l 950 553 q 1048 640 1018 579 q 1069 765 1069 684 q 1048 889 1069 846 q 964 953 1016 953 q 879 889 907 953 q 858 765 858 841 l 858 515 l 780 478 l 756 478 l 756 765 q 734 889 756 848 q 650 953 701 953 q 566 889 597 953 q 545 765 545 846 q 566 640 545 677 q 663 553 597 587 l 625 478 l 608 478 m 250 478 l 250 946 l 227 946 q 189 906 197 946 l 169 906 l 102 938 q 227 1038 127 1038 l 497 1038 l 497 1013 l 465 946 l 352 946 l 352 515 l 274 478 l 250 478 z "},"Ω":{"ha":1000,"x_min":68,"x_max":932,"o":"m 427 0 l 277 0 q 68 146 109 0 l 170 195 l 176 195 q 277 115 198 115 l 317 115 l 317 181 q 117 609 117 302 q 202 880 117 758 q 500 1038 313 1038 q 798 880 685 1038 q 883 609 883 760 q 682 181 883 302 l 682 115 l 723 115 q 823 195 802 115 l 830 195 l 932 146 q 723 0 891 0 l 572 0 l 572 250 q 747 609 747 338 q 686 821 747 729 q 501 925 616 925 q 314 821 383 925 q 252 609 252 729 q 427 250 252 338 l 427 0 z "},"℮":{"ha":921,"x_min":102,"x_max":819,"o":"m 258 373 l 258 121 q 460 39 340 39 q 728 206 633 39 l 777 177 q 620 25 696 60 q 460 -10 544 -10 q 201 98 300 -10 q 102 373 102 207 q 201 648 102 541 q 460 756 301 756 q 709 660 606 756 q 819 373 812 564 l 258 373 m 663 423 l 663 625 q 459 707 576 707 q 258 624 340 707 l 258 423 l 663 423 z "},"∂":{"ha":859,"x_min":102,"x_max":724,"o":"m 311 0 q 160 62 218 0 q 102 235 102 123 q 205 498 102 377 q 530 656 341 656 q 601 654 553 656 q 589 814 601 755 q 546 928 574 890 q 482 968 516 968 q 402 913 437 968 q 352 785 376 873 l 260 825 q 374 978 307 930 q 505 1024 439 1024 q 659 930 594 1024 q 724 645 724 835 q 665 297 724 454 q 507 73 606 145 q 311 0 407 0 m 331 62 q 431 128 381 62 q 519 267 473 182 q 602 588 581 376 q 525 599 575 599 q 378 512 452 599 q 296 394 329 456 q 245 226 245 301 q 258 119 245 158 q 331 62 277 62 z "},"∆":{"ha":772,"x_min":34,"x_max":738,"o":"m 165 0 q 34 91 34 0 q 83 295 34 155 l 316 996 l 433 1051 l 440 1051 l 688 295 q 738 91 738 156 q 607 0 738 0 l 165 0 m 165 115 l 605 115 l 387 824 l 165 115 z "},"∏":{"ha":943,"x_min":136,"x_max":807,"o":"m 136 -305 l 136 879 q 305 1024 136 1024 l 637 1024 q 807 879 807 1024 l 807 -244 l 678 -305 l 671 -305 l 671 879 q 637 909 671 909 l 305 909 q 271 879 271 909 l 271 -244 l 142 -305 l 136 -305 z "},"∑":{"ha":792,"x_min":102,"x_max":758,"o":"m 233 -278 q 102 -188 102 -278 q 158 -28 102 -122 l 397 404 l 181 777 q 123 933 123 875 q 254 1024 123 1024 l 640 1024 l 640 1017 l 589 909 l 254 909 l 546 399 l 233 -163 l 549 -163 q 650 -83 629 -163 q 656 -83 650 -83 l 758 -132 q 549 -278 718 -278 l 233 -278 z "},"−":{"ha":823,"x_min":102,"x_max":722,"o":"m 102 450 l 102 457 l 157 574 l 722 574 l 722 567 l 667 450 l 102 450 z "},"∕":{"ha":661,"x_min":7,"x_max":654,"o":"m 102 -95 l 7 -49 l 551 1119 l 557 1119 l 654 1073 l 109 -95 l 102 -95 z "},"∗":{"ha":802,"x_min":102,"x_max":701,"o":"m 463 827 l 463 625 l 591 699 l 697 625 l 701 619 l 524 517 l 701 416 l 697 410 l 591 336 l 463 410 l 463 262 l 346 208 l 339 208 l 339 410 l 211 336 l 105 410 l 102 416 l 277 517 l 102 619 l 105 625 l 211 699 l 339 625 l 339 772 l 456 827 l 463 827 z "},"∘":{"ha":704,"x_min":102,"x_max":602,"o":"m 469 511 q 431 647 469 599 q 352 683 402 683 q 274 647 304 683 q 235 511 235 601 q 274 376 235 420 q 352 340 305 340 q 431 376 401 340 q 469 511 469 421 m 102 513 q 182 715 102 629 q 352 783 245 783 q 522 715 458 783 q 602 511 602 629 q 522 308 602 393 q 352 240 458 240 q 182 308 245 240 q 102 513 102 393 z "},"∙":{"ha":407,"x_min":122,"x_max":285,"o":"m 146 452 q 134 465 146 452 q 122 511 122 477 q 146 570 122 545 q 203 594 170 594 q 261 570 237 594 q 285 511 285 545 q 261 452 285 477 q 203 428 237 428 q 146 452 170 428 z "},"√":{"ha":985,"x_min":68,"x_max":951,"o":"m 356 -27 l 349 -27 l 210 386 l 68 386 l 68 393 l 123 509 l 311 509 l 410 184 l 717 1024 l 951 1024 l 951 1017 l 896 901 l 799 901 l 473 28 l 356 -27 z "},"∛":{"ha":985,"x_min":68,"x_max":951,"o":"m 169 652 l 236 684 l 252 684 q 332 618 279 618 q 391 644 368 618 q 410 701 410 666 q 393 743 410 724 q 326 762 376 762 l 276 809 l 363 941 l 216 941 l 216 964 l 244 1024 l 395 1024 q 465 966 465 1024 q 435 896 465 938 l 392 838 q 454 805 426 830 q 502 701 502 764 q 456 585 502 629 q 329 536 407 536 q 169 652 227 536 m 356 -27 l 349 -27 l 210 386 l 68 386 l 68 393 l 123 509 l 311 509 l 410 184 l 717 1024 l 951 1024 l 951 1017 l 896 901 l 799 901 l 473 28 l 356 -27 z "},"∞":{"ha":1071,"x_min":102,"x_max":969,"o":"m 836 511 q 798 647 836 599 q 719 683 769 683 q 641 647 671 683 q 602 511 602 601 q 641 376 602 420 q 719 340 672 340 q 798 376 768 340 q 836 511 836 421 m 102 513 q 182 715 102 629 q 352 783 245 783 q 522 715 460 783 q 535 700 529 707 q 549 715 542 707 q 719 783 610 783 q 889 715 825 783 q 969 511 969 629 q 889 308 969 393 q 719 240 825 240 q 549 308 610 240 q 536 323 542 315 q 522 308 529 315 q 352 240 460 240 q 182 308 245 240 q 102 513 102 393 m 469 511 q 431 647 469 599 q 352 683 402 683 q 274 647 304 683 q 235 511 235 601 q 274 376 235 420 q 352 340 305 340 q 431 376 401 340 q 469 511 469 421 z "},"≈":{"ha":772,"x_min":102,"x_max":670,"o":"m 102 269 q 262 514 102 514 q 414 446 353 514 q 500 389 463 389 q 549 459 549 389 l 663 514 l 670 514 q 509 269 670 269 q 358 338 418 269 q 271 394 309 394 q 222 324 222 394 l 109 269 l 102 269 m 102 507 q 262 752 102 752 q 414 684 353 752 q 500 627 463 627 q 549 697 549 627 l 663 752 l 670 752 q 509 507 670 507 q 358 576 418 507 q 271 632 309 632 q 222 562 222 632 l 109 507 l 102 507 z "},"≠":{"ha":823,"x_min":102,"x_max":722,"o":"m 292 136 l 196 182 l 264 327 l 102 327 l 102 334 l 157 450 l 321 450 l 378 574 l 102 574 l 102 581 l 157 697 l 436 697 l 525 888 l 532 888 l 627 842 l 559 697 l 722 697 l 722 690 l 667 574 l 503 574 l 445 450 l 722 450 l 722 444 l 667 327 l 387 327 l 298 136 l 292 136 z "},"≡":{"ha":823,"x_min":102,"x_max":722,"o":"m 102 203 l 102 210 l 157 327 l 722 327 l 722 320 l 667 203 l 102 203 m 102 697 l 102 704 l 157 821 l 722 821 l 722 814 l 667 697 l 102 697 m 102 450 l 102 457 l 157 574 l 722 574 l 722 567 l 667 450 l 102 450 z "},"≤":{"ha":907,"x_min":102,"x_max":772,"o":"m 102 543 l 102 550 l 157 667 l 716 905 l 772 788 l 772 781 l 315 593 l 772 406 l 772 399 l 716 281 l 102 543 m 102 130 l 102 136 l 157 253 l 772 253 l 772 246 l 717 130 l 102 130 z "},"≥":{"ha":907,"x_min":136,"x_max":806,"o":"m 806 655 l 806 648 l 750 531 l 191 293 l 136 410 l 136 417 l 593 605 l 136 793 l 136 800 l 191 917 l 806 655 m 136 130 l 136 136 l 191 253 l 806 253 l 806 246 l 751 130 l 136 130 z "},"◊":{"ha":796,"x_min":81,"x_max":715,"o":"m 408 195 l 576 492 l 393 814 l 222 511 l 408 195 m 398 0 l 81 500 l 398 1024 l 715 503 l 398 0 z "}}}
